<?xml version="1.0" encoding="UTF-8"?>
<svg xmlns="http://www.w3.org/2000/svg" width="259" height="97" viewBox="0 0 259 97" fill="none">
  <path d="M2.89094 17.6962C1.26417 18.0105 0.200198 19.584 0.514497 21.2108C0.828797 22.8376 2.40234 23.9015 4.02912 23.5872L2.89094 17.6962ZM202.372 46.857L202.514 43.8604L202.372 46.857ZM238.377 95.9361C239.754 96.8562 241.617 96.485 242.537 95.1071L257.531 72.6527C258.451 71.2748 258.08 69.4119 256.702 68.4918C255.324 67.5717 253.461 67.9429 252.541 69.3208L239.213 89.2803L219.254 75.9529C217.876 75.0329 216.013 75.404 215.093 76.7819C214.173 78.1599 214.544 80.0227 215.922 80.9428L238.377 95.9361ZM4.02912 23.5872C42.8648 16.084 70.5485 10.0407 89.8058 7.50697C99.4328 6.24033 106.677 5.89391 112.003 6.59902C117.291 7.29897 120.247 8.97001 121.935 11.3529L126.831 7.88388C123.805 3.61472 118.965 1.46817 112.791 0.650906C106.656 -0.161207 98.7723 0.275514 89.0231 1.55824C69.528 4.12326 41.464 10.2437 2.89094 17.6962L4.02912 23.5872ZM121.935 11.3529C122.645 12.3552 122.657 13.0279 122.489 13.6234C122.266 14.4119 121.587 15.473 120.149 16.8113C117.247 19.5111 112.527 22.22 107.257 25.2654C102.207 28.1834 96.6653 31.4066 92.9237 34.9795C91.0334 36.7847 89.386 38.875 88.5635 41.2876C87.7011 43.8172 87.82 46.4939 89.1305 49.1566L94.5138 46.5071C93.9044 45.2689 93.8955 44.2416 94.2425 43.2237C94.6294 42.0889 95.5287 40.7882 97.0675 39.3188C100.184 36.3427 105.03 33.4822 110.259 30.4603C115.268 27.5658 120.717 24.4785 124.236 21.2041C126.008 19.5552 127.604 17.5847 128.262 15.2569C128.975 12.736 128.477 10.2076 126.831 7.88388L121.935 11.3529ZM89.1305 49.1566C90.6063 52.1552 93.5986 53.9485 96.8679 55.0645C100.197 56.2011 104.342 56.8191 108.926 57.1041C118.113 57.6752 129.744 56.9423 141.673 55.7752C153.614 54.607 166.077 52.9789 176.855 51.7264C187.76 50.459 196.794 49.5967 202.231 49.8537L202.514 43.8604C196.49 43.5756 186.934 44.5146 176.162 45.7665C165.263 47.0332 152.961 48.6422 141.089 49.8037C129.207 50.9661 117.978 51.6552 109.298 51.1157C104.949 50.8453 101.409 50.2747 98.8063 49.3863C96.144 48.4774 94.9579 47.4094 94.5138 46.5071L89.1305 49.1566ZM202.231 49.8537C211.386 50.2864 217.788 52.4282 222.341 55.4107C226.875 58.3814 229.783 62.3227 231.738 66.7206C233.711 71.1614 234.702 76.0453 235.366 80.8386C235.998 85.3936 236.377 90.3981 237.1 94.0274L242.985 92.855C242.293 89.3851 242.034 85.243 241.309 80.0146C240.618 75.0246 239.534 69.4886 237.221 64.284C234.889 59.0364 231.299 54.1067 225.629 50.3919C219.977 46.689 212.468 44.3309 202.514 43.8604L202.231 49.8537Z" fill="#EFA7DB"></path>
</svg>
