<?xml version="1.0" encoding="UTF-8"?>
<svg xmlns="http://www.w3.org/2000/svg" width="298" height="141" viewBox="0 0 298 141" fill="none">
  <path d="M119.073 79.45L120.148 76.6493L119.073 79.45ZM3.23516 134.341C1.60214 134.061 0.505294 132.51 0.785308 130.877L5.34831 104.265C5.62832 102.632 7.17914 101.535 8.81216 101.815C10.4452 102.095 11.542 103.646 11.262 105.279L7.20601 128.934L30.8608 132.99C32.4938 133.27 33.5906 134.821 33.3107 136.454C33.0306 138.087 31.4798 139.184 29.8468 138.904L3.23516 134.341ZM297.888 6.24278C270.382 17.6033 254.089 30.0885 244.723 42.4846C235.406 54.8167 232.769 67.2915 233.012 79.0482C233.258 90.9382 236.429 101.986 238.802 111.654C239.967 116.399 240.964 120.924 241.174 124.898C241.384 128.871 240.837 132.771 238.423 135.886L233.681 132.211C234.82 130.741 235.359 128.557 235.182 125.214C235.006 121.873 234.145 117.851 232.975 113.084C230.679 103.727 227.277 91.8913 227.014 79.1723C226.748 66.32 229.666 52.4606 239.936 38.8677C250.157 25.339 267.484 12.3085 295.597 0.697161L297.888 6.24278ZM238.423 135.886C235.884 139.162 232.059 140.356 227.961 140.358C223.911 140.361 219.22 139.219 214.235 137.412C204.238 133.788 192.166 127.146 179.961 119.758C167.739 112.36 155.142 104.061 144.187 97.1024C133.094 90.0572 123.848 84.4972 117.997 82.2506L120.148 76.6493C126.674 79.1552 136.463 85.0888 147.404 92.0376C158.481 99.0736 170.916 107.269 183.068 114.625C195.237 121.991 206.879 128.363 216.28 131.771C220.995 133.48 224.924 134.36 227.958 134.358C230.943 134.356 232.665 133.52 233.681 132.211L238.423 135.886ZM117.997 82.2506C98.7689 74.8675 77.5471 82.5458 57.2607 95.127C47.1992 101.367 37.5734 108.683 28.7891 115.635C20.074 122.531 12.0627 129.173 5.47445 133.833L2.00986 128.934C8.4223 124.399 16.1682 117.971 25.0658 110.93C33.8943 103.943 43.7369 96.4539 54.0984 90.028C74.6579 77.2775 98.1008 68.1838 120.148 76.6493L117.997 82.2506Z" fill="#EFA7DB"></path>
</svg>
