<svg width="600" height="450" viewBox="0 0 600 450" fill="none" xmlns="http://www.w3.org/2000/svg">
<rect x="204.961" y="244.777" width="132.877" height="115.131" rx="15.3" fill="#92A6B0"/>
<rect x="279.168" y="261.969" width="43.148" height="13.41" rx="6.705" fill="#9BF7FF"/>
<path d="M285.405 268.675L289.777 268.675M289.777 268.675L287.568 266.465M289.777 268.675L287.568 270.884" stroke="#252829" stroke-width="0.72"/>
<path d="M302.591 267.465C302.591 267.965 302.385 268.416 302.052 268.74C302.385 269.064 302.591 269.515 302.591 270.015V270.407C302.591 271.387 301.807 272.172 300.826 272.172H300.042C299.071 272.172 298.277 271.387 298.277 270.407V270.064H299.257V270.407C299.257 270.838 299.61 271.191 300.042 271.191H300.826C301.267 271.191 301.611 270.848 301.611 270.407V270.015C301.611 269.573 301.267 269.23 300.826 269.23H300.14V268.25H300.826C301.267 268.25 301.611 267.906 301.611 267.465V267.073C301.611 266.632 301.267 266.289 300.826 266.289H300.042C299.61 266.289 299.257 266.642 299.257 267.073V267.416H298.277V267.073C298.277 266.092 299.071 265.308 300.042 265.308H300.826C301.807 265.308 302.591 266.092 302.591 267.073V267.465ZM303.617 271.191H304.695V272.172H303.617V271.191ZM310.036 271.191V272.172H305.721V269.907L309.055 268.034V267.073C309.055 266.632 308.712 266.289 308.271 266.289H307.486C307.055 266.289 306.702 266.642 306.702 267.073V267.416H305.721V267.073C305.721 266.092 306.515 265.308 307.486 265.308H308.271C309.251 265.308 310.036 266.092 310.036 267.073V268.612L306.702 270.485V271.191H310.036Z" fill="#252829"/>
<path d="M313.257 272.172H312.277V270.603L315.611 266.524V265.308H316.591V266.877L313.257 270.956V272.172ZM311.688 266.612C311.688 265.887 312.267 265.308 312.992 265.308C313.708 265.308 314.287 265.887 314.287 266.612C314.287 267.338 313.708 267.916 312.992 267.916C312.267 267.916 311.688 267.338 311.688 266.612ZM312.669 266.612C312.669 266.789 312.816 266.936 312.992 266.936C313.169 266.936 313.306 266.789 313.306 266.612C313.306 266.436 313.169 266.289 312.992 266.289C312.816 266.289 312.669 266.436 312.669 266.612ZM314.581 270.868C314.581 270.142 315.159 269.564 315.885 269.564C316.601 269.564 317.179 270.142 317.179 270.868C317.179 271.593 316.601 272.172 315.885 272.172C315.159 272.172 314.581 271.593 314.581 270.868ZM315.561 270.868C315.561 271.044 315.709 271.191 315.885 271.191C316.062 271.191 316.199 271.044 316.199 270.868C316.199 270.691 316.062 270.544 315.885 270.544C315.709 270.544 315.561 270.691 315.561 270.868Z" fill="#252829"/>
<path d="M226.783 272.715C228.799 272.715 230.434 271.081 230.434 269.064C230.434 267.048 228.799 265.414 226.783 265.414C224.767 265.414 223.133 267.048 223.133 269.064C223.133 271.081 224.767 272.715 226.783 272.715Z" stroke="#3B4144" stroke-width="1.35" stroke-linecap="round" stroke-linejoin="round"/>
<path d="M221.605 275.528C222.166 274.666 222.934 273.957 223.838 273.466C224.743 272.976 225.755 272.719 226.784 272.719C227.813 272.719 228.826 272.976 229.73 273.466C230.634 273.957 231.402 274.666 231.963 275.528" stroke="#3B4144" stroke-width="1.35" stroke-linecap="round" stroke-linejoin="round"/>
<path d="M232.961 272.719C233.99 272.718 235.002 272.975 235.907 273.465C236.811 273.956 237.579 274.664 238.14 275.527" stroke="#5F6F77" stroke-width="1.35" stroke-linecap="round" stroke-linejoin="round"/>
<path d="M231.605 265.674C232.105 265.475 232.642 265.388 233.179 265.421C233.715 265.453 234.238 265.604 234.71 265.862C235.181 266.12 235.59 266.479 235.907 266.913C236.224 267.348 236.441 267.846 236.542 268.374C236.644 268.902 236.628 269.446 236.495 269.967C236.362 270.488 236.116 270.973 235.773 271.388C235.431 271.802 235.002 272.136 234.516 272.366C234.029 272.595 233.499 272.714 232.961 272.715" stroke="#5F6F77" stroke-width="1.35" stroke-linecap="round" stroke-linejoin="round"/>
<path d="M231.384 324.227V326.477H221.484V324.227H225.309V313.337L221.484 315.587V312.977L225.309 310.727H227.559V324.227H231.384ZM243.075 324.227V326.477H233.175V321.279L240.825 316.982V314.777C240.825 313.764 240.037 312.977 239.025 312.977H237.225C236.235 312.977 235.425 313.787 235.425 314.777V315.564H233.175V314.777C233.175 312.527 234.997 310.727 237.225 310.727H239.025C241.275 310.727 243.075 312.527 243.075 314.777V318.309L235.425 322.607V324.227H243.075ZM250.716 324.204C251.099 324.204 251.436 324.092 251.729 323.889L247.116 316.374V322.404C247.116 323.394 247.926 324.204 248.916 324.204H250.716ZM244.866 322.404V314.777C244.866 312.527 246.689 310.727 248.916 310.727H250.716C252.966 310.727 254.766 312.527 254.766 314.777V322.404C254.766 324.632 252.966 326.477 250.716 326.477H248.916C246.689 326.477 244.866 324.632 244.866 322.404ZM247.881 313.292L252.516 320.829V314.777C252.516 313.764 251.729 312.977 250.716 312.977H248.916C248.534 312.977 248.174 313.089 247.881 313.292ZM268.248 319.794V310.727H276.798V312.977H270.498V317.072L272.366 315.812H274.098C276.326 315.812 278.148 317.612 278.148 319.862V322.427C278.148 324.677 276.348 326.477 274.098 326.477H272.298C270.071 326.477 268.248 324.677 268.248 322.427V322.202H270.498V322.427C270.498 323.417 271.308 324.227 272.298 324.227H274.098C275.111 324.227 275.898 323.439 275.898 322.427V319.862C275.898 318.872 275.088 318.062 274.098 318.062H273.063L270.498 319.794H268.248ZM285.34 312.077H287.59V317.702H289.84V319.952H287.59V326.477H285.34V319.952H279.94V310.727H282.19V317.702H285.34V312.077ZM294.781 326.477H292.531V322.089L299.281 315.114V312.977H293.881V315.452H291.631V310.727H301.531V316.014L294.781 322.989V326.477Z" fill="#313334"/>
<path d="M220.476 335.847H224.832V336.837H223.149V342.777H222.159V336.837H220.476V335.847ZM228.194 341.777C228.629 341.777 228.986 341.421 228.986 340.985V337.629C228.986 337.184 228.639 336.837 228.194 336.837H227.402C226.956 336.837 226.61 337.194 226.61 337.629V340.985C226.61 341.421 226.966 341.777 227.402 341.777H228.194ZM225.62 340.985V337.629C225.62 336.639 226.422 335.847 227.402 335.847H228.194C229.184 335.847 229.976 336.639 229.976 337.629V340.985C229.976 341.966 229.184 342.777 228.194 342.777H227.402C226.422 342.777 225.62 341.966 225.62 340.985ZM230.764 335.847H235.12V336.837H233.437V342.777H232.447V336.837H230.764V335.847ZM236.898 342.777H235.908V340.5L237.591 335.847H238.581L240.264 340.5V342.777H239.274V341.174H236.898V342.777ZM237.076 340.184H239.096L238.096 337.412H238.076L237.076 340.184ZM242.042 335.847V341.787H245.408V342.777H241.052V335.847H242.042ZM255.696 340.985C255.696 341.966 254.894 342.777 253.914 342.777H253.122C252.132 342.777 251.34 341.966 251.34 340.985V335.847H252.33V340.985C252.33 341.421 252.687 341.777 253.122 341.777H253.914C254.35 341.777 254.706 341.421 254.706 340.985V335.847H255.696V340.985ZM256.485 340.54H257.475V340.936C257.475 341.401 257.861 341.787 258.326 341.787H258.989C259.494 341.787 259.851 341.471 259.851 341.035C259.851 339.669 256.584 339.372 256.584 337.491C256.584 336.521 257.346 335.847 258.425 335.847H258.89C259.91 335.847 260.742 336.669 260.742 337.689V337.986H259.752V337.689C259.752 337.214 259.365 336.837 258.89 336.837H258.425C257.89 336.837 257.574 337.085 257.574 337.491C257.574 338.54 260.841 338.946 260.841 341.035C260.841 342.025 260.039 342.777 258.989 342.777H258.326C257.306 342.777 256.485 341.956 256.485 340.936V340.54ZM265.985 335.847V336.837H262.619V338.649H265.589V339.639H262.619V341.787H265.985V342.777H261.629V335.847H265.985ZM271.129 342.777H270.04L268.782 340.005H267.763V342.777H266.773V335.847H269.347C270.337 335.847 271.129 336.639 271.129 337.629V338.223C271.129 339.045 270.584 339.728 269.832 339.936L271.129 342.777ZM267.763 339.015H269.347C269.792 339.015 270.139 338.669 270.139 338.223V337.629C270.139 337.184 269.792 336.837 269.347 336.837H267.763V339.015ZM271.917 340.54H272.907V340.936C272.907 341.401 273.293 341.787 273.758 341.787H274.422C274.927 341.787 275.283 341.471 275.283 341.035C275.283 339.669 272.016 339.372 272.016 337.491C272.016 336.521 272.778 335.847 273.857 335.847H274.323C275.342 335.847 276.174 336.669 276.174 337.689V337.986H275.184V337.689C275.184 337.214 274.798 336.837 274.323 336.837H273.857C273.323 336.837 273.006 337.085 273.006 337.491C273.006 338.54 276.273 338.946 276.273 341.035C276.273 342.025 275.471 342.777 274.422 342.777H273.758C272.739 342.777 271.917 341.956 271.917 340.936V340.54Z" fill="#5F6F77"/>
<rect x="204.961" y="127.848" width="132.877" height="115.131" rx="15.3" fill="#92A6B0"/>
<g clip-path="url(#clip0_6568_34175)">
<path d="M221.414 151.93H232.502" stroke="#3B4144" stroke-width="1.26" stroke-linecap="round" stroke-linejoin="round"/>
<path d="M229.477 148.402L227.461 159.49" stroke="#3B4144" stroke-width="1.26" stroke-linecap="round" stroke-linejoin="round"/>
<path d="M225.448 148.402L223.432 159.49" stroke="#3B4144" stroke-width="1.26" stroke-linecap="round" stroke-linejoin="round"/>
<path d="M220.408 155.961H231.496" stroke="#3B4144" stroke-width="1.26" stroke-linecap="round" stroke-linejoin="round"/>
</g>
<path d="M232.284 196.391V198.641H222.384V196.391H226.209V185.501L222.384 187.751V185.141L226.209 182.891H228.459V196.391H232.284ZM236.325 194.591C236.325 195.581 237.135 196.391 238.125 196.391H239.925C240.938 196.391 241.725 195.603 241.725 194.591V192.701C241.725 191.711 240.915 190.901 239.925 190.901H238.89L236.325 192.633V194.591ZM234.075 194.591V186.941C234.075 184.691 235.875 182.891 238.125 182.891H239.925C242.175 182.891 243.975 184.691 243.975 186.941V187.616H241.725V186.941C241.725 185.928 240.938 185.141 239.925 185.141H238.125C237.113 185.141 236.325 185.928 236.325 186.941V189.911L238.193 188.651H239.925C242.153 188.651 243.975 190.451 243.975 192.701V194.591C243.975 196.841 242.175 198.641 239.925 198.641H238.125C235.898 198.641 234.075 196.841 234.075 194.591Z" fill="#313334"/>
<path d="M221.376 212.704H222.366V213.1C222.366 213.565 222.752 213.951 223.217 213.951H223.881C224.386 213.951 224.742 213.635 224.742 213.199C224.742 211.833 221.475 211.536 221.475 209.655C221.475 208.685 222.237 208.011 223.316 208.011H223.782C224.801 208.011 225.633 208.833 225.633 209.853V210.15H224.643V209.853C224.643 209.378 224.257 209.001 223.782 209.001H223.316C222.782 209.001 222.465 209.249 222.465 209.655C222.465 210.704 225.732 211.11 225.732 213.199C225.732 214.189 224.93 214.941 223.881 214.941H223.217C222.198 214.941 221.376 214.12 221.376 213.1V212.704ZM226.52 208.011H230.876V209.001H229.193V213.951H230.876V214.941H226.52V213.951H228.203V209.001H226.52V208.011ZM233.575 212.15L232.654 210.189V214.941H231.664V208.011H232.654L233.842 210.595L235.03 208.011H236.02V214.941H235.03V210.189L234.11 212.15H233.575ZM236.808 212.704H237.798V213.1C237.798 213.565 238.184 213.951 238.65 213.951H239.313C239.818 213.951 240.174 213.635 240.174 213.199C240.174 211.833 236.907 211.536 236.907 209.655C236.907 208.685 237.67 208.011 238.749 208.011H239.214C240.234 208.011 241.065 208.833 241.065 209.853V210.15H240.075V209.853C240.075 209.378 239.689 209.001 239.214 209.001H238.749C238.214 209.001 237.897 209.249 237.897 209.655C237.897 210.704 241.164 211.11 241.164 213.199C241.164 214.189 240.362 214.941 239.313 214.941H238.65C237.63 214.941 236.808 214.12 236.808 213.1V212.704ZM222.366 226.941H221.376V224.664L223.059 220.011H224.049L225.732 224.664V226.941H224.742V225.338H222.366V226.941ZM222.544 224.348H224.564L223.564 221.576H223.544L222.544 224.348ZM229.886 220.011H230.876V222.288L229.193 226.941H228.203L226.52 222.288V220.011H227.51V222.11L228.688 225.377H228.708L229.886 222.11V220.011ZM232.654 226.941H231.664V224.664L233.347 220.011H234.337L236.02 224.664V226.941H235.03V225.338H232.654V226.941ZM232.832 224.348H234.852L233.852 221.576H233.832L232.832 224.348ZM236.808 220.011H241.164V221.001H239.481V225.951H241.164V226.941H236.808V225.951H238.491V221.001H236.808V220.011ZM242.943 220.011V225.951H246.309V226.941H241.953V220.011H242.943ZM248.087 226.941H247.097V224.664L248.78 220.011H249.77L251.453 224.664V226.941H250.463V225.338H248.087V226.941ZM248.265 224.348H250.284L249.285 221.576H249.265L248.265 224.348ZM256.399 222.189C256.399 222.645 256.23 223.071 255.943 223.377C256.339 223.704 256.597 224.199 256.597 224.763V225.159C256.597 226.149 255.805 226.941 254.815 226.941H252.241V220.011H254.617C255.607 220.011 256.399 220.803 256.399 221.793V222.189ZM253.231 225.951H254.815C255.26 225.951 255.607 225.605 255.607 225.159V224.763C255.607 224.318 255.26 223.971 254.815 223.971H253.231V225.951ZM253.231 222.981H254.617C255.062 222.981 255.409 222.635 255.409 222.189V221.793C255.409 221.348 255.062 221.001 254.617 221.001H253.231V222.981ZM258.375 220.011V225.951H261.741V226.941H257.385V220.011H258.375ZM266.885 220.011V221.001H263.519V222.813H266.489V223.803H263.519V225.951H266.885V226.941H262.529V220.011H266.885Z" fill="#5F6F77"/>
<path d="M70.0957 109.776C70.0957 102.52 75.9786 96.6367 83.2355 96.6367H190.022C197.279 96.6367 203.162 102.52 203.162 109.776V258.519C203.162 265.776 197.279 271.659 190.022 271.659H83.2355C75.9786 271.659 70.0957 265.776 70.0957 258.519V109.776Z" fill="#92A6B0"/>
<rect x="152.328" y="115.949" width="37.8797" height="11.5166" rx="5.75831" fill="#ABFDBE"/>
<path d="M159.562 123.587V119.832M159.562 119.832L157.664 121.73M159.562 119.832L161.46 121.73" stroke="#252829" stroke-width="0.618342"/>
<path d="M168.738 122.206V118.812H171.938V119.654H169.58V121.187L170.279 120.715H170.928C171.761 120.715 172.443 121.389 172.443 122.231V123.191C172.443 124.033 171.77 124.707 170.928 124.707H170.254C169.42 124.707 168.738 124.033 168.738 123.191V123.107H169.58V123.191C169.58 123.562 169.883 123.865 170.254 123.865H170.928C171.307 123.865 171.601 123.57 171.601 123.191V122.231C171.601 121.861 171.298 121.558 170.928 121.558H170.54L169.58 122.206H168.738ZM173.324 123.865H174.251V124.707H173.324V123.865ZM176.311 124.707H175.468V123.065L177.995 120.454V119.654H175.974V120.581H175.132V118.812H178.837V120.791L176.311 123.402V124.707Z" fill="#252829"/>
<path d="M181.58 124.707H180.738V123.36L183.601 119.856V118.812H184.443V120.16L181.58 123.663V124.707ZM180.233 119.932C180.233 119.309 180.73 118.812 181.353 118.812C181.968 118.812 182.464 119.309 182.464 119.932C182.464 120.555 181.968 121.052 181.353 121.052C180.73 121.052 180.233 120.555 180.233 119.932ZM181.075 119.932C181.075 120.084 181.201 120.21 181.353 120.21C181.504 120.21 181.622 120.084 181.622 119.932C181.622 119.781 181.504 119.654 181.353 119.654C181.201 119.654 181.075 119.781 181.075 119.932ZM182.717 123.587C182.717 122.964 183.214 122.467 183.837 122.467C184.452 122.467 184.949 122.964 184.949 123.587C184.949 124.21 184.452 124.707 183.837 124.707C183.214 124.707 182.717 124.21 182.717 123.587ZM183.559 123.587C183.559 123.739 183.686 123.865 183.837 123.865C183.989 123.865 184.107 123.739 184.107 123.587C184.107 123.435 183.989 123.309 183.837 123.309C183.686 123.309 183.559 123.435 183.559 123.587Z" fill="#252829"/>
<path d="M90.6448 116.071H91.6754V123.285H90.181L88.1714 117.803V123.285H87.1409V116.071H88.6352L90.6448 121.554V116.071ZM97.2364 116.071V117.102H93.7325V118.988H96.8242V120.018H93.7325V122.255H97.2364V123.285H92.7019V116.071H97.2364ZM98.263 116.071H102.797V117.102H101.046V123.285H100.015V117.102H98.263V116.071ZM91.6754 134.285H90.5417L89.2329 131.4H88.1714V134.285H87.1409V127.071H89.8203C90.8509 127.071 91.6754 127.896 91.6754 128.926V129.545C91.6754 130.4 91.1086 131.111 90.3253 131.327L91.6754 134.285ZM88.1714 130.369H89.8203C90.2841 130.369 90.6448 130.008 90.6448 129.545V128.926C90.6448 128.462 90.2841 128.102 89.8203 128.102H88.1714V130.369ZM97.2364 127.071V128.102H93.7325V129.988H96.8242V131.018H93.7325V133.255H97.2364V134.285H92.7019V127.071H97.2364ZM101.767 127.071H102.797V129.441L101.046 134.285H100.015L98.263 129.441V127.071H99.2935V129.256L100.52 132.657H100.541L101.767 129.256V127.071ZM108.359 127.071V128.102H104.855V129.988H107.946V131.018H104.855V133.255H108.359V134.285H103.824V127.071H108.359ZM112.889 127.071H113.92V134.285H112.425L110.416 128.803V134.285H109.385V127.071H110.879L112.889 132.554V127.071ZM119.481 132.42C119.481 133.44 118.646 134.285 117.626 134.285H116.801C115.771 134.285 114.946 133.44 114.946 132.42V127.071H115.977V132.42C115.977 132.873 116.348 133.244 116.801 133.244H117.626C118.079 133.244 118.45 132.873 118.45 132.42V127.071H119.481V132.42ZM125.042 127.071V128.102H121.538V129.988H124.629V131.018H121.538V133.255H125.042V134.285H120.507V127.071H125.042Z" fill="#5F6F77"/>
<path d="M97.4996 249.345V251.695H87.156V249.345H91.1524V237.967L87.156 240.317V237.591L91.1524 235.24H93.5032V249.345H97.4996ZM109.715 240.411C109.715 241.61 109.221 242.692 108.422 243.468C109.221 244.243 109.715 245.325 109.715 246.524V247.464C109.715 249.815 107.834 251.695 105.483 251.695H103.602C101.275 251.695 99.371 249.815 99.371 247.464V246.641H101.722V247.464C101.722 248.498 102.568 249.345 103.602 249.345H105.483C106.541 249.345 107.364 248.522 107.364 247.464V246.524C107.364 245.466 106.541 244.643 105.483 244.643H103.838V242.292H105.483C106.541 242.292 107.364 241.469 107.364 240.411V239.471C107.364 238.413 106.541 237.591 105.483 237.591H103.602C102.568 237.591 101.722 238.437 101.722 239.471V240.294H99.371V239.471C99.371 237.12 101.275 235.24 103.602 235.24H105.483C107.834 235.24 109.715 237.12 109.715 239.471V240.411ZM115.465 249.345H118.051V251.695H115.465V249.345ZM134.144 240.411C134.144 241.61 133.651 242.692 132.852 243.468C133.651 244.243 134.144 245.325 134.144 246.524V247.464C134.144 249.815 132.264 251.695 129.913 251.695H128.032C125.705 251.695 123.801 249.815 123.801 247.464V246.641H126.152V247.464C126.152 248.498 126.998 249.345 128.032 249.345H129.913C130.971 249.345 131.794 248.522 131.794 247.464V246.524C131.794 245.466 130.971 244.643 129.913 244.643H128.267V242.292H129.913C130.971 242.292 131.794 241.469 131.794 240.411V239.471C131.794 238.413 130.971 237.591 129.913 237.591H128.032C126.998 237.591 126.152 238.437 126.152 239.471V240.294H123.801V239.471C123.801 237.12 125.705 235.24 128.032 235.24H129.913C132.264 235.24 134.144 237.12 134.144 239.471V240.411Z" fill="#313334"/>
<path d="M140.553 245.066L138.367 240.411V251.695H136.016V235.24H138.367L141.188 241.375L144.009 235.24H146.359V251.695H144.009V240.411L141.822 245.066H140.553Z" fill="#313334" fill-opacity="0.3"/>
<path opacity="0.3" d="M103.301 184.82L88.1536 196.168C87.6082 196.577 87.2871 197.219 87.2871 197.9V206.684C87.2871 207.88 88.2577 208.849 89.454 208.848L191.45 208.722C192.644 208.721 193.611 207.752 193.611 206.558V183.364C193.611 182.922 193.476 182.491 193.224 182.128L188.029 174.663C187.572 174.006 186.79 173.657 185.994 173.739C182.482 174.104 177.226 174.44 176.977 173.595C176.734 172.768 171.275 168.421 167.48 165.508C166.568 164.807 165.269 164.955 164.528 165.836L159.782 171.474C159.536 171.767 159.217 171.988 158.858 172.118L148.325 175.902C147.4 176.234 146.367 175.901 145.81 175.092L142.394 170.128C141.548 168.9 139.743 168.874 138.864 170.078L128.779 183.873C128.659 184.037 128.517 184.184 128.356 184.308L121.806 189.375C121.221 189.827 120.446 189.949 119.75 189.699L105.331 184.515C104.646 184.269 103.883 184.383 103.301 184.82Z" fill="url(#paint0_linear_6568_34175)"/>
<path d="M87.4141 196.56L103.304 184.809C103.885 184.379 104.643 184.268 105.323 184.512L119.751 189.699C120.447 189.949 121.222 189.827 121.807 189.375L128.357 184.308C128.518 184.184 128.66 184.037 128.78 183.873L138.864 170.078C139.744 168.874 141.549 168.9 142.394 170.128L145.811 175.092C146.368 175.901 147.4 176.234 148.325 175.902L158.858 172.118C159.218 171.988 159.537 171.767 159.782 171.474L164.528 165.836C165.269 164.955 166.568 164.807 167.481 165.508C171.276 168.421 176.735 172.768 176.978 173.595C177.226 174.44 182.483 174.104 185.995 173.739C186.791 173.657 187.572 174.006 188.029 174.663L193.612 182.685" stroke="#ABFDBE" stroke-width="1.6929" stroke-linecap="round"/>
<rect x="340.959" y="111.699" width="132.877" height="179.477" rx="15.3" stroke="#92A6B0" stroke-width="0.9" stroke-linecap="round" stroke-dasharray="3.6 5.4"/>
<path d="M397.127 135.188V142.11" stroke="#92A6B0" stroke-width="0.9"/>
<path d="M393.666 138.648L400.588 138.648" stroke="#92A6B0" stroke-width="0.9"/>
<path d="M408.671 142.148H407.681V139.871L409.364 135.218H410.354L412.037 139.871V142.148H411.047V140.545H408.671V142.148ZM408.849 139.555H410.868L409.869 136.783H409.849L408.849 139.555ZM415.291 135.218C416.271 135.218 417.073 136.01 417.073 137V140.357C417.073 141.337 416.271 142.148 415.291 142.148H412.717V135.218H415.291ZM413.707 141.149H415.291C415.726 141.149 416.083 140.792 416.083 140.357V137C416.083 136.565 415.736 136.208 415.291 136.208H413.707V141.149ZM420.327 135.218C421.307 135.218 422.109 136.01 422.109 137V140.357C422.109 141.337 421.307 142.148 420.327 142.148H417.753V135.218H420.327ZM418.743 141.149H420.327C420.763 141.149 421.119 140.792 421.119 140.357V137C421.119 136.565 420.772 136.208 420.327 136.208H418.743V141.149Z" fill="#92A6B0"/>
<g clip-path="url(#clip1_6568_34175)">
<rect x="392.598" y="158.203" width="141.3" height="177.3" rx="14.4" fill="#92A6B0"/>
<rect x="392.598" y="90.0195" width="137.263" height="299.12" rx="10.8602" fill="#92A6B0"/>
<rect x="409.697" y="208.602" width="105.3" height="25.2" rx="7.2" fill="#B1C5CE"/>
<rect x="411.498" y="210.402" width="21.6" height="21.6" rx="5.4" fill="#9BF7FF"/>
<path d="M418.878 224.801H417.978L418.212 223.091H417.618L417.708 222.191H418.338L418.491 221.111H417.798L417.888 220.211H418.617L418.851 218.501H419.769L419.526 220.211H420.084L420.318 218.501H421.236L420.993 220.211H421.578L421.488 221.111H420.867L420.714 222.191H421.398L421.308 223.091H420.588L420.345 224.801H419.445L419.679 223.091H419.121L418.878 224.801ZM419.247 222.191H419.805L419.958 221.111H419.4L419.247 222.191ZM426.255 223.901V224.801H422.295V223.901H423.825V219.545L422.295 220.445V219.401L423.825 218.501H424.725V223.901H426.255Z" fill="#3B4144"/>
<path d="M443.178 223.074C443.178 223.965 442.449 224.703 441.558 224.703H440.838C439.938 224.703 439.218 223.965 439.218 223.074V218.403H440.118V223.074C440.118 223.47 440.442 223.794 440.838 223.794H441.558C441.954 223.794 442.278 223.47 442.278 223.074V218.403H443.178V223.074ZM446.955 218.403H447.855V224.703H446.55L444.795 219.915V224.703H443.895V218.403H445.2L446.955 223.191V218.403ZM449.471 218.403V223.803H452.531V224.703H448.571V218.403H449.471ZM453.248 218.403H457.208V219.303H455.678V223.803H457.208V224.703H453.248V223.803H454.778V219.303H453.248V218.403ZM459.661 222.165L458.824 220.383V224.703H457.924V218.403H458.824L459.904 220.752L460.984 218.403H461.884V224.703H460.984V220.383L460.147 222.165H459.661ZM462.6 218.403H466.56V219.303H465.03V223.803H466.56V224.703H462.6V223.803H464.13V219.303H462.6V218.403ZM467.277 218.403H471.237V219.303H469.707V224.703H468.807V219.303H467.277V218.403ZM475.913 218.403V219.303H472.853V220.95H475.553V221.85H472.853V223.803H475.913V224.703H471.953V218.403H475.913ZM478.97 218.403C479.861 218.403 480.59 219.123 480.59 220.023V223.074C480.59 223.965 479.861 224.703 478.97 224.703H476.63V218.403H478.97ZM477.53 223.794H478.97C479.366 223.794 479.69 223.47 479.69 223.074V220.023C479.69 219.627 479.375 219.303 478.97 219.303H477.53V223.794Z" fill="#3B4144"/>
<circle opacity="0.12" cx="0.853308" cy="0.853308" r="0.853308" transform="matrix(1 0 0 -1 506.09 219.449)" fill="black"/>
<circle opacity="0.12" cx="0.853308" cy="0.853308" r="0.853308" transform="matrix(1 0 0 -1 506.09 222.055)" fill="black"/>
<circle opacity="0.12" cx="0.853308" cy="0.853308" r="0.853308" transform="matrix(1 0 0 -1 506.09 224.66)" fill="black"/>
<g opacity="0.8">
<rect x="409.697" y="235.602" width="105.3" height="25.2" rx="7.2" fill="#B1C5CE"/>
<rect x="411.498" y="237.402" width="21.6" height="21.6" rx="5.4" fill="#E2C9FB"/>
<path d="M418.878 251.801H417.978L418.212 250.091H417.618L417.708 249.191H418.338L418.491 248.111H417.798L417.888 247.211H418.617L418.851 245.501H419.769L419.526 247.211H420.084L420.318 245.501H421.236L420.993 247.211H421.578L421.488 248.111H420.867L420.714 249.191H421.398L421.308 250.091H420.588L420.345 251.801H419.445L419.679 250.091H419.121L418.878 251.801ZM419.247 249.191H419.805L419.958 248.111H419.4L419.247 249.191ZM426.255 250.901V251.801H422.295V249.722L425.355 248.003V247.121C425.355 246.716 425.04 246.401 424.635 246.401H423.915C423.519 246.401 423.195 246.725 423.195 247.121V247.436H422.295V247.121C422.295 246.221 423.024 245.501 423.915 245.501H424.635C425.535 245.501 426.255 246.221 426.255 247.121V248.534L423.195 250.253V250.901H426.255Z" fill="#3B4144"/>
<path d="M441.558 245.403C442.449 245.403 443.178 246.123 443.178 247.023V250.074C443.178 250.965 442.449 251.703 441.558 251.703H439.218V245.403H441.558ZM440.118 250.794H441.558C441.954 250.794 442.278 250.47 442.278 250.074V247.023C442.278 246.627 441.963 246.303 441.558 246.303H440.118V250.794ZM444.795 251.703H443.895V249.633L445.425 245.403H446.325L447.855 249.633V251.703H446.955V250.245H444.795V251.703ZM444.957 249.345H446.793L445.884 246.825H445.866L444.957 249.345ZM448.571 245.403H452.531V246.303H451.001V251.703H450.101V246.303H448.571V245.403ZM454.148 251.703H453.248V249.633L454.778 245.403H455.678L457.208 249.633V251.703H456.308V250.245H454.148V251.703ZM454.31 249.345H456.146L455.237 246.825H455.219L454.31 249.345ZM459.661 249.165L458.824 247.383V251.703H457.924V245.403H458.824L459.904 247.752L460.984 245.403H461.884V251.703H460.984V247.383L460.147 249.165H459.661ZM463.5 251.703H462.6V249.633L464.13 245.403H465.03L466.56 249.633V251.703H465.66V250.245H463.5V251.703ZM463.662 249.345H465.498L464.589 246.825H464.571L463.662 249.345ZM467.277 251.703L468.762 248.553L467.277 245.403H468.267L469.257 247.5L470.247 245.403H471.237L469.752 248.553L471.237 251.703H470.247L469.257 249.606L468.267 251.703H467.277ZM480.59 247.563C480.59 248.463 479.87 249.183 478.97 249.183H477.53V251.703H476.63V245.403H478.97C479.87 245.403 480.59 246.123 480.59 247.023V247.563ZM477.53 248.283H478.97C479.375 248.283 479.69 247.968 479.69 247.563V247.023C479.69 246.618 479.375 246.303 478.97 246.303H477.53V248.283ZM485.266 251.703H484.276L483.133 249.183H482.206V251.703H481.306V245.403H483.646C484.546 245.403 485.266 246.123 485.266 247.023V247.563C485.266 248.31 484.771 248.931 484.087 249.12L485.266 251.703ZM482.206 248.283H483.646C484.051 248.283 484.366 247.968 484.366 247.563V247.023C484.366 246.618 484.051 246.303 483.646 246.303H482.206V248.283ZM488.323 250.794C488.719 250.794 489.043 250.47 489.043 250.074V247.023C489.043 246.618 488.728 246.303 488.323 246.303H487.603C487.198 246.303 486.883 246.627 486.883 247.023V250.074C486.883 250.47 487.207 250.794 487.603 250.794H488.323ZM485.983 250.074V247.023C485.983 246.123 486.712 245.403 487.603 245.403H488.323C489.223 245.403 489.943 246.123 489.943 247.023V250.074C489.943 250.965 489.223 251.703 488.323 251.703H487.603C486.712 251.703 485.983 250.965 485.983 250.074Z" fill="#3B4144"/>
<circle opacity="0.12" cx="0.853308" cy="0.853308" r="0.853308" transform="matrix(1 0 0 -1 506.09 246.449)" fill="black"/>
<circle opacity="0.12" cx="0.853308" cy="0.853308" r="0.853308" transform="matrix(1 0 0 -1 506.09 249.055)" fill="black"/>
<circle opacity="0.12" cx="0.853308" cy="0.853308" r="0.853308" transform="matrix(1 0 0 -1 506.09 251.66)" fill="black"/>
</g>
<g opacity="0.6">
<rect x="409.697" y="262.602" width="105.3" height="25.2" rx="7.2" fill="#B1C5CE"/>
<rect x="411.498" y="264.402" width="21.6" height="21.6" rx="5.4" fill="#FEE09F"/>
<path d="M418.878 278.801H417.978L418.212 277.091H417.618L417.708 276.191H418.338L418.491 275.111H417.798L417.888 274.211H418.617L418.851 272.501H419.769L419.526 274.211H420.084L420.318 272.501H421.236L420.993 274.211H421.578L421.488 275.111H420.867L420.714 276.191H421.398L421.308 277.091H420.588L420.345 278.801H419.445L419.679 277.091H419.121L418.878 278.801ZM419.247 276.191H419.805L419.958 275.111H419.4L419.247 276.191ZM426.255 274.481C426.255 274.94 426.066 275.354 425.76 275.651C426.066 275.948 426.255 276.362 426.255 276.821V277.181C426.255 278.081 425.535 278.801 424.635 278.801H423.915C423.024 278.801 422.295 278.081 422.295 277.181V276.866H423.195V277.181C423.195 277.577 423.519 277.901 423.915 277.901H424.635C425.04 277.901 425.355 277.586 425.355 277.181V276.821C425.355 276.416 425.04 276.101 424.635 276.101H424.005V275.201H424.635C425.04 275.201 425.355 274.886 425.355 274.481V274.121C425.355 273.716 425.04 273.401 424.635 273.401H423.915C423.519 273.401 423.195 273.725 423.195 274.121V274.436H422.295V274.121C422.295 273.221 423.024 272.501 423.915 272.501H424.635C425.535 272.501 426.255 273.221 426.255 274.121V274.481Z" fill="#3B4144"/>
<path d="M443.178 272.403V273.303H440.118V275.22H442.818V276.12H440.118V278.703H439.218V272.403H443.178ZM444.795 272.403V277.803H447.855V278.703H443.895V272.403H444.795ZM452.531 272.403V273.303H449.471V274.95H452.171V275.85H449.471V277.803H452.531V278.703H448.571V272.403H452.531ZM453.248 278.703L454.733 275.553L453.248 272.403H454.238L455.228 274.5L456.218 272.403H457.208L455.723 275.553L457.208 278.703H456.218L455.228 276.606L454.238 278.703H453.248ZM457.924 272.403H461.884V273.303H460.354V277.803H461.884V278.703H457.924V277.803H459.454V273.303H457.924V272.403ZM465.66 274.023C465.66 273.618 465.345 273.303 464.94 273.303H464.22C463.815 273.303 463.5 273.627 463.5 274.023V277.074C463.5 277.47 463.824 277.794 464.22 277.794H464.94C465.336 277.794 465.66 277.47 465.66 277.074V276.579H466.56V277.074C466.56 277.965 465.84 278.703 464.94 278.703H464.22C463.329 278.703 462.6 277.965 462.6 277.074V274.023C462.6 273.123 463.329 272.403 464.22 272.403H464.94C465.84 272.403 466.56 273.123 466.56 274.023V274.518H465.66V274.023ZM469.617 277.794C470.013 277.794 470.337 277.47 470.337 277.074V274.023C470.337 273.618 470.022 273.303 469.617 273.303H468.897C468.492 273.303 468.177 273.627 468.177 274.023V277.074C468.177 277.47 468.501 277.794 468.897 277.794H469.617ZM467.277 277.074V274.023C467.277 273.123 468.006 272.403 468.897 272.403H469.617C470.517 272.403 471.237 273.123 471.237 274.023V277.074C471.237 277.965 470.517 278.703 469.617 278.703H468.897C468.006 278.703 467.277 277.965 467.277 277.074ZM475.013 272.403H475.913V278.703H474.608L472.853 273.915V278.703H471.953V272.403H473.258L475.013 277.191V272.403ZM479.69 272.403H480.59V278.703H479.285L477.53 273.915V278.703H476.63V272.403H477.935L479.69 277.191V272.403ZM485.266 272.403V273.303H482.206V274.95H484.906V275.85H482.206V277.803H485.266V278.703H481.306V272.403H485.266ZM489.043 274.023C489.043 273.618 488.728 273.303 488.323 273.303H487.603C487.198 273.303 486.883 273.627 486.883 274.023V277.074C486.883 277.47 487.207 277.794 487.603 277.794H488.323C488.719 277.794 489.043 277.47 489.043 277.074V276.579H489.943V277.074C489.943 277.965 489.223 278.703 488.323 278.703H487.603C486.712 278.703 485.983 277.965 485.983 277.074V274.023C485.983 273.123 486.712 272.403 487.603 272.403H488.323C489.223 272.403 489.943 273.123 489.943 274.023V274.518H489.043V274.023ZM490.659 272.403H494.619V273.303H493.089V278.703H492.189V273.303H490.659V272.403Z" fill="#3B4144"/>
<circle opacity="0.12" cx="0.853308" cy="0.853308" r="0.853308" transform="matrix(1 0 0 -1 506.09 273.449)" fill="black"/>
<circle opacity="0.12" cx="0.853308" cy="0.853308" r="0.853308" transform="matrix(1 0 0 -1 506.09 276.055)" fill="black"/>
<circle opacity="0.12" cx="0.853308" cy="0.853308" r="0.853308" transform="matrix(1 0 0 -1 506.09 278.66)" fill="black"/>
</g>
<g opacity="0.6">
<rect x="409.697" y="289.602" width="105.3" height="25.2" rx="7.2" fill="#B1C5CE"/>
<rect x="411.498" y="291.402" width="21.6" height="21.6" rx="5.4" fill="#E3FFD1"/>
<path d="M418.878 305.801H417.978L418.212 304.091H417.618L417.708 303.191H418.338L418.491 302.111H417.798L417.888 301.211H418.617L418.851 299.501H419.769L419.526 301.211H420.084L420.318 299.501H421.236L420.993 301.211H421.578L421.488 302.111H420.867L420.714 303.191H421.398L421.308 304.091H420.588L420.345 305.801H419.445L419.679 304.091H419.121L418.878 305.801ZM419.247 303.191H419.805L419.958 302.111H419.4L419.247 303.191ZM424.455 300.041H425.355V302.291H426.255V303.191H425.355V305.801H424.455V303.191H422.295V299.501H423.195V302.291H424.455V300.041Z" fill="#3B4144"/>
<path d="M440.028 299.403H443.178V304.074C443.178 304.965 442.449 305.703 441.558 305.703H440.838C439.938 305.703 439.218 304.965 439.218 304.074V303.309H440.118V304.074C440.118 304.47 440.442 304.794 440.838 304.794H441.558C441.954 304.794 442.278 304.47 442.278 304.074V300.303H440.028V299.403ZM447.855 304.074C447.855 304.965 447.126 305.703 446.235 305.703H445.515C444.615 305.703 443.895 304.965 443.895 304.074V299.403H444.795V304.074C444.795 304.47 445.119 304.794 445.515 304.794H446.235C446.631 304.794 446.955 304.47 446.955 304.074V299.403H447.855V304.074ZM451.631 299.403H452.531V305.703H451.226L449.471 300.915V305.703H448.571V299.403H449.876L451.631 304.191V299.403ZM453.248 299.403H457.208V300.303H455.678V304.803H457.208V305.703H453.248V304.803H454.778V300.303H453.248V299.403ZM460.264 304.794C460.66 304.794 460.984 304.47 460.984 304.074V301.023C460.984 300.618 460.669 300.303 460.264 300.303H459.544C459.139 300.303 458.824 300.627 458.824 301.023V304.074C458.824 304.47 459.148 304.794 459.544 304.794H460.264ZM457.924 304.074V301.023C457.924 300.123 458.653 299.403 459.544 299.403H460.264C461.164 299.403 461.884 300.123 461.884 301.023V304.074C461.884 304.965 461.164 305.703 460.264 305.703H459.544C458.653 305.703 457.924 304.965 457.924 304.074ZM466.56 305.703H465.57L464.427 303.183H463.5V305.703H462.6V299.403H464.94C465.84 299.403 466.56 300.123 466.56 301.023V301.563C466.56 302.31 466.065 302.931 465.381 303.12L466.56 305.703ZM463.5 302.283H464.94C465.345 302.283 465.66 301.968 465.66 301.563V301.023C465.66 300.618 465.345 300.303 464.94 300.303H463.5V302.283ZM471.953 303.03V299.403H475.373V300.303H472.853V301.941L473.6 301.437H474.293C475.184 301.437 475.913 302.157 475.913 303.057V304.083C475.913 304.983 475.193 305.703 474.293 305.703H473.573C472.682 305.703 471.953 304.983 471.953 304.083V303.993H472.853V304.083C472.853 304.479 473.177 304.803 473.573 304.803H474.293C474.698 304.803 475.013 304.488 475.013 304.083V303.057C475.013 302.661 474.689 302.337 474.293 302.337H473.879L472.853 303.03H471.953ZM478.97 304.794C479.123 304.794 479.258 304.749 479.375 304.668L477.53 301.662V304.074C477.53 304.47 477.854 304.794 478.25 304.794H478.97ZM476.63 304.074V301.023C476.63 300.123 477.359 299.403 478.25 299.403H478.97C479.87 299.403 480.59 300.123 480.59 301.023V304.074C480.59 304.965 479.87 305.703 478.97 305.703H478.25C477.359 305.703 476.63 304.965 476.63 304.074ZM477.836 300.429L479.69 303.444V301.023C479.69 300.618 479.375 300.303 478.97 300.303H478.25C478.097 300.303 477.953 300.348 477.836 300.429ZM483.646 304.794C483.799 304.794 483.934 304.749 484.051 304.668L482.206 301.662V304.074C482.206 304.47 482.53 304.794 482.926 304.794H483.646ZM481.306 304.074V301.023C481.306 300.123 482.035 299.403 482.926 299.403H483.646C484.546 299.403 485.266 300.123 485.266 301.023V304.074C485.266 304.965 484.546 305.703 483.646 305.703H482.926C482.035 305.703 481.306 304.965 481.306 304.074ZM482.512 300.429L484.366 303.444V301.023C484.366 300.618 484.051 300.303 483.646 300.303H482.926C482.773 300.303 482.629 300.348 482.512 300.429Z" fill="#3B4144"/>
<circle opacity="0.12" cx="0.853308" cy="0.853308" r="0.853308" transform="matrix(1 0 0 -1 506.09 300.449)" fill="black"/>
<circle opacity="0.12" cx="0.853308" cy="0.853308" r="0.853308" transform="matrix(1 0 0 -1 506.09 303.055)" fill="black"/>
<circle opacity="0.12" cx="0.853308" cy="0.853308" r="0.853308" transform="matrix(1 0 0 -1 506.09 305.66)" fill="black"/>
</g>
<rect opacity="0.05" x="409.697" y="316.602" width="105.3" height="26.8646" rx="7.2" fill="#B1C5CE"/>
<path d="M414.628 179.615C414.628 180.071 414.459 180.496 414.172 180.803C414.568 181.13 414.826 181.625 414.826 182.189V182.585C414.826 183.575 414.034 184.367 413.044 184.367H410.47V177.437H412.846C413.836 177.437 414.628 178.229 414.628 179.219V179.615ZM411.46 183.377H413.044C413.489 183.377 413.836 183.031 413.836 182.585V182.189C413.836 181.744 413.489 181.397 413.044 181.397H411.46V183.377ZM411.46 180.407H412.846C413.291 180.407 413.638 180.061 413.638 179.615V179.219C413.638 178.774 413.291 178.427 412.846 178.427H411.46V180.407ZM419.97 177.437V178.427H416.604V180.239H419.574V181.229H416.604V183.377H419.97V184.367H415.614V177.437H419.97ZM420.758 182.13H421.748V182.526C421.748 182.991 422.134 183.377 422.599 183.377H423.263C423.768 183.377 424.124 183.06 424.124 182.625C424.124 181.259 420.857 180.962 420.857 179.081C420.857 178.11 421.619 177.437 422.698 177.437H423.164C424.183 177.437 425.015 178.259 425.015 179.279V179.576H424.025V179.279C424.025 178.803 423.639 178.427 423.164 178.427H422.698C422.164 178.427 421.847 178.675 421.847 179.081C421.847 180.13 425.114 180.536 425.114 182.625C425.114 183.615 424.312 184.367 423.263 184.367H422.599C421.58 184.367 420.758 183.545 420.758 182.526V182.13ZM425.902 177.437H430.258V178.427H428.575V184.367H427.585V178.427H425.902V177.437ZM440.546 179.813C440.546 180.803 439.754 181.595 438.764 181.595H437.18V184.367H436.19V177.437H438.764C439.754 177.437 440.546 178.229 440.546 179.219V179.813ZM437.18 180.605H438.764C439.21 180.605 439.556 180.259 439.556 179.813V179.219C439.556 178.774 439.21 178.427 438.764 178.427H437.18V180.605ZM445.691 177.437V178.427H442.325V180.239H445.295V181.229H442.325V183.377H445.691V184.367H441.335V177.437H445.691ZM450.835 184.367H449.746L448.488 181.595H447.469V184.367H446.479V177.437H449.053C450.043 177.437 450.835 178.229 450.835 179.219V179.813C450.835 180.635 450.29 181.318 449.538 181.526L450.835 184.367ZM447.469 180.605H449.053C449.498 180.605 449.845 180.259 449.845 179.813V179.219C449.845 178.774 449.498 178.427 449.053 178.427H447.469V180.605ZM455.979 177.437V178.427H452.613V180.536H455.583V181.526H452.613V184.367H451.623V177.437H455.979ZM459.341 183.367C459.777 183.367 460.133 183.011 460.133 182.575V179.219C460.133 178.774 459.786 178.427 459.341 178.427H458.549C458.103 178.427 457.757 178.784 457.757 179.219V182.575C457.757 183.011 458.113 183.367 458.549 183.367H459.341ZM456.767 182.575V179.219C456.767 178.229 457.569 177.437 458.549 177.437H459.341C460.331 177.437 461.123 178.229 461.123 179.219V182.575C461.123 183.555 460.331 184.367 459.341 184.367H458.549C457.569 184.367 456.767 183.555 456.767 182.575ZM466.267 184.367H465.178L463.921 181.595H462.901V184.367H461.911V177.437H464.485C465.475 177.437 466.267 178.229 466.267 179.219V179.813C466.267 180.635 465.723 181.318 464.97 181.526L466.267 184.367ZM462.901 180.605H464.485C464.931 180.605 465.277 180.259 465.277 179.813V179.219C465.277 178.774 464.931 178.427 464.485 178.427H462.901V180.605ZM468.966 181.575L468.045 179.615V184.367H467.055V177.437H468.045L469.233 180.021L470.421 177.437H471.411V184.367H470.421V179.615L469.5 181.575H468.966ZM472.199 177.437H476.555V178.427H474.872V183.377H476.555V184.367H472.199V183.377H473.882V178.427H472.199V177.437ZM480.709 177.437H481.699V184.367H480.264L478.333 179.1V184.367H477.343V177.437H478.779L480.709 182.704V177.437ZM484.369 180.635H486.844V182.575C486.844 183.555 486.052 184.367 485.062 184.367H484.27C483.289 184.367 482.488 183.555 482.488 182.575V179.219C482.488 178.229 483.289 177.437 484.27 177.437H485.062C486.052 177.437 486.844 178.229 486.844 179.219V179.764H485.854V179.219C485.854 178.774 485.507 178.427 485.062 178.427H484.27C483.824 178.427 483.478 178.784 483.478 179.219V182.575C483.478 183.011 483.834 183.367 484.27 183.367H485.062C485.497 183.367 485.854 183.011 485.854 182.575V181.625H484.369V180.635ZM414.826 191.813C414.826 192.803 414.034 193.595 413.044 193.595H411.46V196.367H410.47V189.437H413.044C414.034 189.437 414.826 190.229 414.826 191.219V191.813ZM411.46 192.605H413.044C413.489 192.605 413.836 192.259 413.836 191.813V191.219C413.836 190.774 413.489 190.427 413.044 190.427H411.46V192.605ZM419.97 196.367H418.881L417.624 193.595H416.604V196.367H415.614V189.437H418.188C419.178 189.437 419.97 190.229 419.97 191.219V191.813C419.97 192.635 419.425 193.318 418.673 193.526L419.97 196.367ZM416.604 192.605H418.188C418.633 192.605 418.98 192.259 418.98 191.813V191.219C418.98 190.774 418.633 190.427 418.188 190.427H416.604V192.605ZM423.332 195.367C423.768 195.367 424.124 195.011 424.124 194.575V191.219C424.124 190.774 423.777 190.427 423.332 190.427H422.54C422.094 190.427 421.748 190.784 421.748 191.219V194.575C421.748 195.011 422.104 195.367 422.54 195.367H423.332ZM420.758 194.575V191.219C420.758 190.229 421.56 189.437 422.54 189.437H423.332C424.322 189.437 425.114 190.229 425.114 191.219V194.575C425.114 195.555 424.322 196.367 423.332 196.367H422.54C421.56 196.367 420.758 195.555 420.758 194.575ZM428.476 189.437C429.456 189.437 430.258 190.229 430.258 191.219V194.575C430.258 195.555 429.456 196.367 428.476 196.367H425.902V189.437H428.476ZM426.892 195.367H428.476C428.912 195.367 429.268 195.011 429.268 194.575V191.219C429.268 190.784 428.922 190.427 428.476 190.427H426.892V195.367ZM435.402 194.575C435.402 195.555 434.6 196.367 433.62 196.367H432.828C431.838 196.367 431.046 195.555 431.046 194.575V189.437H432.036V194.575C432.036 195.011 432.393 195.367 432.828 195.367H433.62C434.056 195.367 434.412 195.011 434.412 194.575V189.437H435.402V194.575ZM439.556 191.219C439.556 190.774 439.21 190.427 438.764 190.427H437.972C437.527 190.427 437.18 190.784 437.18 191.219V194.575C437.18 195.011 437.537 195.367 437.972 195.367H438.764C439.2 195.367 439.556 195.011 439.556 194.575V194.031H440.546V194.575C440.546 195.555 439.754 196.367 438.764 196.367H437.972C436.992 196.367 436.19 195.555 436.19 194.575V191.219C436.19 190.229 436.992 189.437 437.972 189.437H438.764C439.754 189.437 440.546 190.229 440.546 191.219V191.764H439.556V191.219ZM441.335 189.437H445.691V190.427H444.008V196.367H443.018V190.427H441.335V189.437ZM446.479 194.13H447.469V194.526C447.469 194.991 447.855 195.377 448.32 195.377H448.983C449.488 195.377 449.845 195.06 449.845 194.625C449.845 193.259 446.578 192.962 446.578 191.081C446.578 190.11 447.34 189.437 448.419 189.437H448.884C449.904 189.437 450.736 190.259 450.736 191.279V191.576H449.746V191.279C449.746 190.803 449.36 190.427 448.884 190.427H448.419C447.884 190.427 447.568 190.675 447.568 191.081C447.568 192.13 450.835 192.536 450.835 194.625C450.835 195.615 450.033 196.367 448.983 196.367H448.32C447.3 196.367 446.479 195.545 446.479 194.526V194.13Z" fill="#5F6F77"/>
</g>
<circle cx="519.546" cy="324.784" r="5.45801" transform="rotate(-90 519.546 324.784)" fill="#252829"/>
<path d="M528.053 339.651L520.459 326.62C519.777 325.451 520.851 324.046 522.163 324.392L537.087 328.326C538.098 328.592 538.282 329.944 537.378 330.466L532.308 333.393L530.172 339.455C529.841 340.395 528.555 340.514 528.053 339.651Z" fill="#66E8FA" stroke="white" stroke-width="1.35"/>
<defs>
<linearGradient id="paint0_linear_6568_34175" x1="143.879" y1="171.41" x2="143.879" y2="205.879" gradientUnits="userSpaceOnUse">
<stop stop-color="#ABFDBE"/>
<stop offset="1" stop-color="#ABFDBE" stop-opacity="0"/>
</linearGradient>
<clipPath id="clip0_6568_34175">
<rect width="16.128" height="16.128" fill="white" transform="translate(218.391 145.883)"/>
</clipPath>
<clipPath id="clip1_6568_34175">
<rect x="392.598" y="158.203" width="141.3" height="177.3" rx="14.4" fill="white"/>
</clipPath>
</defs>
</svg>
