<svg width="600" height="450" viewBox="0 0 600 450" fill="none" xmlns="http://www.w3.org/2000/svg">
<g clip-path="url(#clip0_6569_37048)">
<rect x="213.26" y="148.853" width="152.484" height="152.484" rx="76.242" fill="url(#paint0_radial_6569_37048)" fill-opacity="0.2" stroke="#66E8FA" stroke-width="0.855"/>
<path d="M262.055 208.287C262.055 202.413 266.816 197.652 272.689 197.652H306.307C312.18 197.652 316.941 202.413 316.941 208.287V241.904C316.941 247.777 312.18 252.539 306.307 252.539H272.689C266.816 252.539 262.055 247.777 262.055 241.904V208.287Z" fill="#6CECFD"/>
<path d="M289.815 208.63C287.541 208.63 285.698 210.473 285.698 212.746V224.288C285.698 226.832 283.609 228.895 281.034 228.895L275.776 228.895C274.261 228.895 273.032 230.124 273.032 231.64V238.817C273.032 240.333 274.261 241.561 275.776 241.561H282.954C284.469 241.561 285.698 240.333 285.698 238.817V233.271C285.828 230.837 287.866 228.895 290.362 228.895H301.847C304.121 228.895 305.964 227.052 305.964 224.779V212.746C305.964 210.473 304.121 208.63 301.847 208.63H289.815Z" fill="#1F2223"/>
<path d="M58.823 315.25C47.8245 287.226 41.7852 256.711 41.7852 224.786C41.7852 186.636 50.409 150.5 65.8136 118.222M93.6481 376.48C138.964 434.903 209.843 472.505 289.505 472.505C408.428 472.505 507.778 388.705 531.726 276.933M536.733 209.056C528.619 79.5731 421.033 -22.9336 289.505 -22.9336C217.543 -22.9336 152.748 7.75082 107.49 56.7496" stroke="#92A6B0" stroke-opacity="0.1" stroke-width="0.855"/>
<rect x="58.168" y="62.4297" width="46.0832" height="46.0832" rx="7.695" fill="#00A8E0"/>
<rect x="393.027" y="108.516" width="46.0832" height="46.0832" rx="7.695" fill="#E20074"/>
<path d="M410.738 135.436H405.891V130.589H410.729V135.436H410.738ZM405.891 119.441V127.682H407.344V127.443C407.344 123.562 409.524 121.143 413.644 121.143H413.884V138.591C413.884 141.01 412.918 141.985 410.49 141.985H409.763V143.677H422.364V141.985H421.637C419.218 141.985 418.244 141.019 418.244 138.591V121.134H418.483C422.604 121.134 424.783 123.553 424.783 127.435V127.674H426.237V119.441H405.891ZM421.398 135.436H426.245V130.589H421.407V135.436H421.398Z" fill="white"/>
<rect x="374.527" y="318.375" width="46.0832" height="46.0832" rx="7.695" fill="#FA5548"/>
<path d="M399.928 330.502C399.844 330.525 399.647 330.549 399.491 330.554C398.87 330.566 396.863 331.062 396.134 331.377C396.068 331.407 395.883 331.483 395.716 331.547C395.28 331.71 394.126 332.247 393.947 332.376C393.864 332.428 393.726 332.498 393.637 332.516C393.547 332.539 393.475 332.58 393.475 332.603C393.475 332.627 393.427 332.662 393.374 332.685C393.314 332.703 393.188 332.773 393.087 332.837C392.991 332.901 392.848 332.977 392.77 333.012C392.693 333.041 392.543 333.135 392.436 333.216C392.328 333.298 392.221 333.362 392.203 333.362C392.065 333.362 390.141 334.728 389.598 335.207C389.156 335.598 388.337 336.451 388.337 336.521C388.337 336.538 388.283 336.62 388.212 336.696C388.033 336.894 387.495 337.723 387.339 338.033C387.274 338.179 387.142 338.436 387.059 338.611C386.766 339.195 386.646 339.831 386.676 340.572C386.712 341.302 386.879 341.681 387.387 342.184C387.919 342.703 388.487 342.931 389.383 342.978C389.998 343.007 390.44 342.96 391.056 342.791C391.253 342.738 391.516 342.674 391.641 342.639C391.767 342.61 391.91 342.563 391.97 342.528C392.107 342.458 392.878 342.119 392.914 342.119C393.021 342.119 394.282 341.366 395.447 340.607C396.217 340.105 396.893 339.667 396.952 339.638C397.006 339.603 397.371 339.393 397.759 339.165C398.147 338.943 398.625 338.675 398.822 338.576C399.019 338.476 399.3 338.33 399.45 338.255C399.599 338.185 399.88 338.056 400.077 337.986C400.274 337.91 400.519 337.811 400.615 337.77C400.716 337.729 400.86 337.665 400.943 337.63C401.176 337.537 401.702 337.443 402.216 337.408C403.327 337.338 404.104 337.817 404.504 338.821C404.6 339.06 404.618 339.259 404.618 339.959C404.618 340.812 404.54 341.279 404.307 341.827C404.259 341.938 404.193 342.096 404.157 342.178C403.859 342.878 403.243 343.882 402.538 344.793C401.869 345.669 400.429 347.122 399.48 347.887C399.151 348.156 398.786 348.448 398.673 348.541C398.422 348.745 398.129 348.95 397.807 349.16C397.675 349.242 397.46 349.382 397.329 349.475C396.958 349.72 395.973 350.234 395.417 350.468C395.256 350.538 395.035 350.631 394.927 350.678C394.825 350.724 394.688 350.759 394.622 350.759C394.563 350.759 394.425 350.789 394.318 350.824C393.929 350.958 393.535 350.701 393.535 350.31C393.535 349.831 393.768 349.528 395.238 348.103C396.827 346.562 397 346.334 397 345.751C397 345.149 396.707 344.741 396.05 344.414C395.763 344.268 395.656 344.25 395.154 344.25C394.569 344.25 394.228 344.332 393.804 344.583C393.708 344.641 393.559 344.717 393.475 344.758C393.392 344.799 393.314 344.846 393.296 344.863C393.278 344.881 393.159 344.968 393.027 345.067C392.71 345.301 392.155 345.856 391.838 346.258C391.617 346.539 391.456 346.801 391.079 347.49C390.769 348.062 390.488 349.125 390.488 349.744C390.488 350.999 391.157 352.003 392.191 352.289C392.501 352.377 393.768 352.377 394.204 352.295C394.634 352.207 395.757 351.869 395.829 351.804C395.865 351.775 395.925 351.752 395.973 351.752C396.128 351.752 397.902 350.87 398.512 350.485C398.649 350.398 398.804 350.298 398.864 350.263C398.918 350.234 399.199 350.065 399.491 349.89C399.778 349.715 400.029 349.551 400.047 349.534C400.065 349.51 400.268 349.364 400.495 349.212C400.728 349.055 400.997 348.874 401.093 348.81C401.194 348.74 401.475 348.529 401.72 348.337C403.273 347.128 404.647 345.838 405.448 344.834C405.579 344.676 405.699 344.53 405.717 344.513C405.765 344.478 406.171 343.906 406.452 343.474C406.577 343.293 406.768 342.972 406.876 342.762C406.989 342.551 407.145 342.265 407.222 342.119C407.3 341.973 407.467 341.594 407.599 341.273C407.724 340.952 407.85 340.636 407.874 340.572C408.041 340.158 408.298 339.089 408.411 338.325C408.537 337.461 408.441 336.042 408.196 335.26C408.095 334.939 408.071 334.88 407.85 334.413C407.372 333.409 406.607 332.498 405.729 331.903C405.609 331.821 405.46 331.71 405.394 331.646C405.179 331.459 404.086 330.981 403.447 330.8C403.106 330.7 402.598 330.595 402.317 330.554C401.672 330.473 400.125 330.432 399.928 330.502Z" fill="white"/>
<rect x="111.344" y="187.77" width="46.0832" height="46.0832" rx="7.695" fill="#FFC421"/>
<rect x="47.4102" y="322.992" width="46.0832" height="46.0832" rx="7.695" fill="#DD0F0B"/>
<path d="M74.6526 335.791C73.3042 335.267 71.8796 335.047 70.4474 335.047C67.3696 335.047 64.6728 336.095 62.4178 338.26C60.1705 340.356 59.043 342.977 59.043 345.962C59.043 348.947 60.1705 351.652 62.4178 353.816C64.6652 355.913 67.3696 357.03 70.4474 357.03C73.6775 357.03 76.2981 355.905 78.5531 353.816C80.7243 351.644 81.8518 349.031 81.8518 345.962C81.8518 343.721 81.2499 341.701 79.9015 339.825C78.6293 338.032 76.9761 336.68 74.8735 335.86C73.8222 336.088 72.9995 336.612 72.3976 337.432C71.7196 338.252 71.3463 339.156 71.3463 340.197V340.349C72.9233 340.721 74.1193 341.397 74.9497 342.369C75.7039 343.342 76.1534 344.542 76.1534 345.962C76.1534 347.611 75.5515 348.955 74.4241 350.079C73.2966 351.203 71.9482 351.728 70.3712 351.728C68.7942 351.728 67.2935 351.127 66.0974 349.935C64.8252 348.666 64.2233 347.094 64.2233 345.149C64.2233 342.681 65.1223 340.584 66.9963 338.716C68.9466 336.847 71.3463 335.799 74.2031 335.799H74.6526V335.791Z" fill="white"/>
<path opacity="0.3" d="M139.601 180.031C158.85 115.461 218.681 68.3828 289.508 68.3828C327.448 68.3828 362.234 81.8923 389.316 104.363M434.028 164.881C441.685 183.332 445.912 203.566 445.912 224.787C445.912 255.425 437.102 284.006 421.878 308.134M363.586 362.57C341.537 374.449 316.309 381.191 289.508 381.191C209.948 381.191 144.263 321.788 134.387 244.916" stroke="#92A6B0" stroke-width="0.855" stroke-linecap="round"/>
<path d="M146.843 202.35C146.578 200.127 144.921 198.383 142.768 198.11C142.768 198.11 139.322 197.562 134.286 197.562C129.25 197.562 125.804 198.11 125.804 198.11C123.651 198.383 121.994 200.127 121.729 202.35C121.729 202.35 121.199 206.352 121.199 211.071C121.199 215.791 121.729 219.792 121.729 219.792C121.994 222.015 123.651 223.76 125.804 224.033C125.804 224.033 129.25 224.58 134.286 224.58C139.322 224.58 142.768 224.033 142.768 224.033C144.921 223.76 146.611 222.015 146.843 219.792C146.843 219.792 147.373 215.791 147.373 211.071C147.373 206.352 146.843 202.35 146.843 202.35ZM143.397 217.398C143.198 219.006 142.006 220.271 140.448 220.476C140.448 220.476 137.964 220.887 134.286 220.887C130.608 220.887 128.124 220.476 128.124 220.476C126.566 220.271 125.341 219.04 125.175 217.398C125.175 217.398 124.777 214.526 124.777 211.071C124.777 207.651 125.175 204.745 125.175 204.745C125.374 203.137 126.566 201.872 128.124 201.666C128.124 201.666 130.608 201.256 134.286 201.256C137.964 201.256 140.448 201.666 140.448 201.666C142.006 201.872 143.232 203.103 143.397 204.745C143.397 204.745 143.795 207.617 143.795 211.071C143.762 214.491 143.397 217.398 143.397 217.398Z" fill="#252829"/>
<path d="M139.589 208.475V207.073C139.589 206.936 139.423 206.902 139.423 206.902C138.76 206.731 138.098 206.628 137.468 206.594C136.839 206.594 136.242 206.662 135.646 206.799C135.646 206.799 135.48 206.833 135.48 207.004V208.372C135.48 208.646 135.646 208.577 135.646 208.577C136.209 208.509 136.806 208.441 137.435 208.475C138.098 208.475 138.76 208.543 139.357 208.68C139.39 208.646 139.589 208.68 139.589 208.475Z" fill="#252829"/>
<path d="M132.96 207.619C132.96 205.875 130.939 205.875 130.939 205.875C130.939 205.875 128.918 205.875 128.918 207.619C128.918 209.363 130.939 209.363 130.939 209.363C130.939 209.363 132.96 209.398 132.96 207.619Z" fill="#252829"/>
<path d="M134.286 216.443C131.669 216.443 129.482 214.869 128.787 214.288C128.787 214.288 128.555 214.049 128.555 213.843V213.125C128.555 212.749 128.82 212.954 128.82 212.954C129.549 213.433 131.603 214.562 134.286 214.562C136.97 214.562 139.024 213.365 139.753 212.954C139.753 212.954 140.018 212.749 140.018 213.125V213.843C140.018 214.049 139.786 214.288 139.786 214.288C139.09 214.869 136.904 216.443 134.286 216.443Z" fill="#252829"/>
<path d="M550.522 219.008H519.742C515.492 219.008 512.047 222.453 512.047 226.703V257.483C512.047 261.733 515.492 265.178 519.742 265.178H550.522C554.772 265.178 558.217 261.733 558.217 257.483V226.703C558.217 222.453 554.772 219.008 550.522 219.008Z" fill="#FF7900"/>
<path d="M530.155 260.701C529.504 261.124 528.787 261.336 528.038 261.336C526.833 261.336 526.133 260.538 526.133 259.463C526.133 258.03 527.452 257.265 530.172 256.955V256.597C530.172 256.125 529.813 255.864 529.162 255.864C528.511 255.864 527.973 256.125 527.599 256.597L526.459 255.945C527.061 255.115 527.973 254.691 529.195 254.691C530.872 254.691 531.817 255.424 531.817 256.597C531.817 256.597 531.817 261.238 531.817 261.255H530.318L530.155 260.701ZM527.778 259.349C527.778 259.773 528.055 260.18 528.543 260.18C529.081 260.18 529.585 259.952 530.107 259.496V257.981C528.527 258.193 527.778 258.584 527.778 259.349Z" fill="white"/>
<path d="M533.141 255.016L534.541 254.821L534.688 255.586C535.486 255.016 536.105 254.707 536.903 254.707C538.222 254.707 538.906 255.407 538.906 256.792V261.27H537.212V257.085C537.212 256.303 537 255.945 536.398 255.945C535.893 255.945 535.388 256.173 534.818 256.661V261.27H533.141V255.016Z" fill="white"/>
<path d="M550.107 261.385C548.218 261.385 547.078 260.163 547.078 258.046C547.078 255.913 548.218 254.691 550.075 254.691C551.931 254.691 553.039 255.864 553.039 257.965C553.039 258.079 553.022 258.193 553.022 258.291H548.739C548.756 259.512 549.26 260.115 550.254 260.115C550.889 260.115 551.312 259.854 551.703 259.284L552.941 259.968C552.404 260.896 551.426 261.385 550.107 261.385ZM551.378 257.199C551.378 256.336 550.889 255.831 550.091 255.831C549.326 255.831 548.853 256.32 548.788 257.199H551.378Z" fill="white"/>
<path d="M517.73 261.447C516.053 261.447 514.555 260.388 514.555 258.059C514.555 255.73 516.069 254.672 517.73 254.672C519.408 254.672 520.906 255.73 520.906 258.059C520.906 260.388 519.408 261.447 517.73 261.447ZM517.73 256.089C516.476 256.089 516.232 257.229 516.232 258.043C516.232 258.874 516.46 259.997 517.73 259.997C519.001 259.997 519.229 258.857 519.229 258.043C519.229 257.229 518.984 256.089 517.73 256.089Z" fill="white"/>
<path d="M522.062 254.838H523.675V255.587C523.984 255.18 524.733 254.691 525.45 254.691C525.515 254.691 525.596 254.691 525.662 254.708V256.287C525.629 256.287 525.613 256.287 525.58 256.287C524.847 256.287 524.033 256.401 523.789 256.971V261.238H522.062V254.838Z" fill="white"/>
<path d="M543.038 259.885C544.325 259.868 544.423 258.565 544.423 257.719C544.423 256.709 543.934 255.895 543.022 255.895C542.419 255.895 541.735 256.334 541.735 257.784C541.752 258.582 541.801 259.885 543.038 259.885ZM546.067 254.82V260.911C546.067 261.985 545.986 263.744 542.924 263.777C541.654 263.777 540.498 263.272 540.253 262.181L541.915 261.92C541.98 262.23 542.175 262.555 543.12 262.555C543.999 262.555 544.423 262.132 544.423 261.139V260.389L544.406 260.373C544.146 260.845 543.722 261.301 542.745 261.301C541.247 261.301 540.074 260.259 540.074 258.093C540.074 255.943 541.296 254.738 542.664 254.738C543.95 254.738 544.423 255.325 544.537 255.634H544.52L544.667 254.869H546.067V254.82Z" fill="white"/>
<path d="M553.69 252.687H553.022V254.527H552.664V252.687H551.996V252.41H553.674V252.687H553.69ZM556.458 254.527H556.1V252.752H556.084L555.384 254.527H555.156L554.455 252.752H554.439V254.527H554.081V252.41H554.618L555.253 254.022L555.872 252.41H556.41V254.527H556.458Z" fill="white"/>
<path d="M88.7003 97.5434C88.5977 97.5434 88.527 97.4723 88.527 97.37V92.2874H86.8004C86.6978 92.2874 86.627 92.2166 86.627 92.1141V91.4131C86.627 91.3104 86.6978 91.2394 86.8004 91.2394H91.3963C91.4989 91.2394 91.5695 91.3105 91.5695 91.4131V92.1141C91.5695 92.2165 91.4989 92.2874 91.3963 92.2874H89.6698V97.3699C89.6698 97.4723 89.5988 97.5434 89.4965 97.5434H88.7003ZM75.4744 95.0059L74.5681 92.4058L73.6536 95.0059H75.4744ZM77.4846 97.3381C77.5242 97.4408 77.461 97.5434 77.3507 97.5434H76.531C76.4127 97.5434 76.3417 97.4884 76.3021 97.3776L75.8372 96.0385H73.2913L72.8256 97.3776C72.7865 97.4885 72.7153 97.5434 72.5972 97.5434H71.825C71.7224 97.5434 71.6513 97.4407 71.6908 97.3381L73.827 91.3973C73.8665 91.2866 73.9374 91.2396 74.0554 91.2396H75.1117C75.2301 91.2396 75.3089 91.2866 75.3483 91.3973L77.4846 97.3381ZM83.6078 96.6922C84.1121 96.6922 84.4512 96.4484 84.7272 96.0305L83.4504 94.6593C82.9614 94.9353 82.646 95.2107 82.646 95.7625C82.646 96.3063 83.0873 96.6922 83.6078 96.6922ZM83.9625 92.0746C83.5527 92.0746 83.3163 92.3349 83.3163 92.6815C83.3163 92.9494 83.4578 93.1858 83.7812 93.5327C84.3408 93.2094 84.5774 93.0125 84.5774 92.6659C84.5774 92.3425 84.3725 92.0746 83.9625 92.0746ZM87.4549 97.3228C87.5573 97.4332 87.4943 97.5434 87.3678 97.5434H86.3667C86.2328 97.5434 86.1618 97.5118 86.0752 97.4092L85.4761 96.7476C85.0741 97.2835 84.514 97.6852 83.584 97.6852C82.4332 97.6852 81.5264 96.9918 81.5264 95.8022C81.5264 94.8879 82.0154 94.3992 82.7565 93.9895C82.3936 93.5719 82.2284 93.1306 82.2284 92.7447C82.2284 91.7673 82.9141 91.0977 83.9466 91.0977C85.0029 91.0977 85.6494 91.7204 85.6494 92.6422C85.6494 93.4301 85.082 93.871 84.4827 94.2022L85.3657 95.156L85.8622 94.2889C85.9252 94.1866 85.9962 94.1471 86.1222 94.1471H86.8867C87.013 94.1471 87.0839 94.234 87.0054 94.3679L86.1223 95.8806L87.4549 97.3228ZM79.588 97.5434C79.6905 97.5434 79.7618 97.4723 79.7618 97.37V92.2874H81.4879C81.5903 92.2874 81.6612 92.2166 81.6612 92.1141V91.4131C81.6612 91.3104 81.5903 91.2394 81.4879 91.2394H76.892C76.7894 91.2394 76.7186 91.3105 76.7186 91.4131V92.1141C76.7186 92.2165 76.7894 92.2874 76.892 92.2874H78.6181V97.3699C78.6181 97.4723 78.6893 97.5434 78.7916 97.5434H79.588Z" fill="white"/>
<path d="M76.653 86.5239C77.9871 87.5566 79.6616 88.1771 81.4784 88.1771C83.4666 88.1771 85.2791 87.4389 86.6624 86.2273C86.6791 86.2124 86.6709 86.2027 86.6543 86.2125C86.0336 86.627 84.2645 87.5319 81.4785 87.5319C79.0574 87.5319 77.5273 86.9917 76.6632 86.5094C76.6467 86.5013 76.6406 86.5137 76.653 86.5239ZM82.0126 86.9259C83.949 86.9259 86.077 86.3981 87.3496 85.3531C87.6979 85.0684 88.0297 84.6895 88.3268 84.1803C88.4978 83.8873 88.6651 83.5391 88.8013 83.197C88.8074 83.1803 88.7971 83.1722 88.7845 83.1909C87.601 84.9326 84.1738 86.0189 80.6351 86.0189C78.1338 86.0189 75.4424 85.219 74.3887 83.6917C74.3784 83.6776 74.368 83.6837 74.3743 83.6999C75.3559 85.7862 78.3338 86.9259 82.0126 86.9259ZM79.8968 83.4648C75.8693 83.4648 73.9703 81.5891 73.6258 80.309C73.6216 80.2905 73.6094 80.2945 73.6094 80.3112C73.6094 80.7421 73.6525 81.2982 73.7267 81.6674C73.7621 81.847 73.9084 82.129 74.1227 82.3538C75.098 83.3703 77.5294 84.7947 81.7402 84.7947C87.4772 84.7947 88.7889 82.8837 89.0568 82.2552C89.2483 81.8058 89.3476 80.9935 89.3476 80.3112C89.3476 80.1461 89.3434 80.0142 89.3372 79.8848C89.3372 79.8637 89.325 79.862 89.3208 79.8825C89.0341 81.4203 84.1325 83.4648 79.8968 83.4648ZM74.368 76.9367C74.1372 77.3947 73.8814 78.1674 73.8054 78.5673C73.772 78.7386 73.7862 78.8209 73.8463 78.9487C74.329 79.9729 76.7707 81.6116 82.4662 81.6116C85.9409 81.6116 88.6401 80.758 89.0774 79.2002C89.1579 78.9135 89.1622 78.6107 89.0588 78.2027C88.9432 77.7468 88.7267 77.2152 88.5435 76.8419C88.5375 76.8297 88.5268 76.8315 88.529 76.8459C88.597 78.8891 82.8993 80.2059 80.0244 80.2059C76.9105 80.2059 74.3126 78.9652 74.3126 77.3986C74.3126 77.2481 74.3437 77.0975 74.3826 76.9408C74.3865 76.9265 74.3743 76.9241 74.368 76.9367ZM86.6751 74.4281C86.7082 74.4799 86.7247 74.5352 86.7247 74.6097C86.7247 75.4836 84.0498 77.0297 79.7919 77.0297C76.6632 77.0297 76.0775 75.8691 76.0775 75.131C76.0775 74.8672 76.1787 74.5972 76.4015 74.323C76.4137 74.3067 76.4034 74.3004 76.3893 74.3126C75.9829 74.657 75.6094 75.0446 75.2818 75.463C75.1253 75.6608 75.0281 75.8361 75.0281 75.9411C75.0281 77.4707 78.8636 78.5798 82.4498 78.5798C86.271 78.5798 87.9763 77.3324 87.9763 76.2361C87.9763 75.8443 87.8238 75.6156 87.4337 75.1722C87.1804 74.8837 86.9409 74.6489 86.6874 74.4177C86.6751 74.4076 86.6666 74.4158 86.6751 74.4281ZM85.5037 73.5543C84.3244 72.8475 82.9549 72.4453 81.4785 72.4453C79.9918 72.4453 78.5811 72.8615 77.3975 73.5871C77.0425 73.8056 76.8427 73.9807 76.8427 74.2058C76.8427 74.8692 78.3933 75.5826 81.1442 75.5826C83.8666 75.5826 85.9781 74.8012 85.9781 74.0491C85.9781 73.8695 85.8212 73.7439 85.5037 73.5543Z" fill="white"/>
</g>
<defs>
<radialGradient id="paint0_radial_6569_37048" cx="0" cy="0" r="1" gradientUnits="userSpaceOnUse" gradientTransform="translate(289.501 225.095) rotate(90) scale(76.6695)">
<stop offset="0.636666" stop-color="#6CECFD" stop-opacity="0"/>
<stop offset="1" stop-color="#6CECFD"/>
</radialGradient>
<clipPath id="clip0_6569_37048">
<rect width="600" height="450" fill="white"/>
</clipPath>
</defs>
</svg>
