<svg width="600" height="450" viewBox="0 0 600 450" fill="none" xmlns="http://www.w3.org/2000/svg">
<rect x="63.5234" y="109.09" width="171.892" height="195.658" rx="13.6" fill="#92A6B0"/>
<rect x="237.016" y="236.195" width="171.892" height="107.677" rx="13.6" fill="#92A6B0"/>
<path d="M265.096 322.112V324.312H255.416V322.112H259.156V311.464L255.416 313.664V311.112L259.156 308.912H261.356V322.112H265.096ZM276.528 322.112V324.312H266.848V319.23L274.328 315.028V312.872C274.328 311.883 273.558 311.112 272.568 311.112H270.808C269.84 311.112 269.048 311.904 269.048 312.872V313.642H266.848V312.872C266.848 310.672 268.63 308.912 270.808 308.912H272.568C274.768 308.912 276.528 310.672 276.528 312.872V316.326L269.048 320.528V322.112H276.528ZM283.999 322.09C284.373 322.09 284.703 321.98 284.989 321.782L280.479 314.434V320.33C280.479 321.298 281.271 322.09 282.239 322.09H283.999ZM278.279 320.33V312.872C278.279 310.672 280.061 308.912 282.239 308.912H283.999C286.199 308.912 287.959 310.672 287.959 312.872V320.33C287.959 322.508 286.199 324.312 283.999 324.312H282.239C280.061 324.312 278.279 322.508 278.279 320.33ZM281.227 311.42L285.759 318.79V312.872C285.759 311.883 284.989 311.112 283.999 311.112H282.239C281.865 311.112 281.513 311.222 281.227 311.42ZM301.142 317.778V308.912H309.502V311.112H303.342V315.116L305.168 313.884H306.862C309.04 313.884 310.822 315.644 310.822 317.845V320.352C310.822 322.552 309.062 324.312 306.862 324.312H305.102C302.924 324.312 301.142 322.552 301.142 320.352V320.132H303.342V320.352C303.342 321.32 304.134 322.112 305.102 322.112H306.862C307.852 322.112 308.622 321.342 308.622 320.352V317.845C308.622 316.876 307.83 316.084 306.862 316.084H305.85L303.342 317.778H301.142ZM317.853 310.232H320.053V315.732H322.253V317.932H320.053V324.312H317.853V317.932H312.573V308.912H314.773V315.732H317.853V310.232ZM327.085 324.312H324.885V320.022L331.485 313.203V311.112H326.205V313.532H324.005V308.912H333.685V314.082L327.085 320.902V324.312Z" fill="#313334"/>
<rect x="410.508" y="106.129" width="125.97" height="165.888" rx="13.6" fill="#92A6B0"/>
<path opacity="0.2" d="M425.555 189.656H521.844" stroke="#718188"/>
<path opacity="0.2" d="M425.555 208.914H521.844" stroke="#718188"/>
<path opacity="0.2" d="M425.555 228.168H521.844" stroke="#718188"/>
<path opacity="0.34" d="M425.555 248.426H521.844" stroke="#718188"/>
<path d="M429.151 123.413H430.251V131.113H428.656L426.511 125.261V131.113H425.411V123.413H427.006L429.151 129.265V123.413ZM435.967 123.413V124.513H432.227V126.526H435.527V127.626H432.227V130.013H435.967V131.113H431.127V123.413H435.967ZM439.714 125.393L440.319 128.858L440.583 125.613V123.413H441.683V125.943L441.023 131.113H440.143L439.263 127.824L438.383 131.113H437.503L436.843 125.943V123.413H437.943V125.613L438.207 128.858L438.812 125.393H439.714ZM453.114 129.122C453.114 130.211 452.223 131.113 451.134 131.113H450.254C449.154 131.113 448.274 130.211 448.274 129.122V123.413H449.374V129.122C449.374 129.606 449.77 130.002 450.254 130.002H451.134C451.618 130.002 452.014 129.606 452.014 129.122V123.413H453.114V129.122ZM453.99 128.627H455.09V129.067C455.09 129.584 455.519 130.013 456.036 130.013H456.773C457.334 130.013 457.73 129.661 457.73 129.177C457.73 127.659 454.1 127.329 454.1 125.239C454.1 124.161 454.947 123.413 456.146 123.413H456.663C457.796 123.413 458.72 124.326 458.72 125.459V125.789H457.62V125.459C457.62 124.931 457.191 124.513 456.663 124.513H456.146C455.552 124.513 455.2 124.788 455.2 125.239C455.2 126.405 458.83 126.856 458.83 129.177C458.83 130.277 457.939 131.113 456.773 131.113H456.036C454.903 131.113 453.99 130.2 453.99 129.067V128.627ZM464.545 123.413V124.513H460.805V126.526H464.105V127.626H460.805V130.013H464.545V131.113H459.705V123.413H464.545ZM470.261 131.113H469.051L467.654 128.033H466.521V131.113H465.421V123.413H468.281C469.381 123.413 470.261 124.293 470.261 125.393V126.053C470.261 126.966 469.656 127.725 468.82 127.956L470.261 131.113ZM466.521 126.933H468.281C468.776 126.933 469.161 126.548 469.161 126.053V125.393C469.161 124.898 468.776 124.513 468.281 124.513H466.521V126.933ZM471.137 128.627H472.237V129.067C472.237 129.584 472.666 130.013 473.183 130.013H473.92C474.481 130.013 474.877 129.661 474.877 129.177C474.877 127.659 471.247 127.329 471.247 125.239C471.247 124.161 472.094 123.413 473.293 123.413H473.81C474.943 123.413 475.867 124.326 475.867 125.459V125.789H474.767V125.459C474.767 124.931 474.338 124.513 473.81 124.513H473.293C472.699 124.513 472.347 124.788 472.347 125.239C472.347 126.405 475.977 126.856 475.977 129.177C475.977 130.277 475.086 131.113 473.92 131.113H473.183C472.05 131.113 471.137 130.2 471.137 129.067V128.627ZM430.251 138.053C430.251 139.153 429.371 140.033 428.271 140.033H426.511V143.113H425.411V135.413H428.271C429.371 135.413 430.251 136.293 430.251 137.393V138.053ZM426.511 138.933H428.271C428.766 138.933 429.151 138.548 429.151 138.053V137.393C429.151 136.898 428.766 136.513 428.271 136.513H426.511V138.933ZM435.967 135.413V136.513H432.227V138.526H435.527V139.626H432.227V142.013H435.967V143.113H431.127V135.413H435.967ZM441.683 143.113H440.473L439.076 140.033H437.943V143.113H436.843V135.413H439.703C440.803 135.413 441.683 136.293 441.683 137.393V138.053C441.683 138.966 441.078 139.725 440.242 139.956L441.683 143.113ZM437.943 138.933H439.703C440.198 138.933 440.583 138.548 440.583 138.053V137.393C440.583 136.898 440.198 136.513 439.703 136.513H437.943V138.933ZM453.114 144.015L452.146 144.554L451.255 143.113H451.134H450.254C449.165 143.113 448.274 142.211 448.274 141.122V137.393C448.274 136.293 449.165 135.413 450.254 135.413H451.134C452.234 135.413 453.114 136.293 453.114 137.393V141.122C453.114 141.771 452.806 142.354 452.322 142.717L453.114 144.015ZM449.374 141.122C449.374 141.606 449.77 142.002 450.254 142.002H451.134C451.618 142.002 452.014 141.606 452.014 141.122V137.393C452.014 136.898 451.629 136.513 451.134 136.513H450.254C449.759 136.513 449.374 136.909 449.374 137.393V141.122ZM458.83 141.122C458.83 142.211 457.939 143.113 456.85 143.113H455.97C454.87 143.113 453.99 142.211 453.99 141.122V135.413H455.09V141.122C455.09 141.606 455.486 142.002 455.97 142.002H456.85C457.334 142.002 457.73 141.606 457.73 141.122V135.413H458.83V141.122ZM460.805 143.113H459.705V140.583L461.575 135.413H462.675L464.545 140.583V143.113H463.445V141.331H460.805V143.113ZM461.003 140.231H463.247L462.136 137.151H462.114L461.003 140.231ZM470.261 143.113H469.051L467.654 140.033H466.521V143.113H465.421V135.413H468.281C469.381 135.413 470.261 136.293 470.261 137.393V138.053C470.261 138.966 469.656 139.725 468.82 139.956L470.261 143.113ZM466.521 138.933H468.281C468.776 138.933 469.161 138.548 469.161 138.053V137.393C469.161 136.898 468.776 136.513 468.281 136.513H466.521V138.933ZM471.137 135.413H475.977V136.513H474.107V143.113H473.007V136.513H471.137V135.413ZM481.693 135.413V136.513H477.953V138.526H481.253V139.626H477.953V142.013H481.693V143.113H476.853V135.413H481.693ZM487.408 143.113H486.198L484.801 140.033H483.668V143.113H482.568V135.413H485.428C486.528 135.413 487.408 136.293 487.408 137.393V138.053C487.408 138.966 486.803 139.725 485.967 139.956L487.408 143.113ZM483.668 138.933H485.428C485.923 138.933 486.308 138.548 486.308 138.053V137.393C486.308 136.898 485.923 136.513 485.428 136.513H483.668V138.933Z" fill="#3B4144"/>
<path d="M86.3778 131.303C86.3778 130.808 85.9928 130.423 85.4978 130.423H84.6178C84.1228 130.423 83.7378 130.819 83.7378 131.303V135.032C83.7378 135.516 84.1338 135.912 84.6178 135.912H85.4978C85.9818 135.912 86.3778 135.516 86.3778 135.032V134.427H87.4778V135.032C87.4778 136.121 86.5978 137.023 85.4978 137.023H84.6178C83.5288 137.023 82.6378 136.121 82.6378 135.032V131.303C82.6378 130.203 83.5288 129.323 84.6178 129.323H85.4978C86.5978 129.323 87.4778 130.203 87.4778 131.303V131.908H86.3778V131.303ZM91.2135 135.912C91.6975 135.912 92.0935 135.516 92.0935 135.032V131.303C92.0935 130.808 91.7085 130.423 91.2135 130.423H90.3335C89.8385 130.423 89.4535 130.819 89.4535 131.303V135.032C89.4535 135.516 89.8495 135.912 90.3335 135.912H91.2135ZM88.3535 135.032V131.303C88.3535 130.203 89.2445 129.323 90.3335 129.323H91.2135C92.3135 129.323 93.1935 130.203 93.1935 131.303V135.032C93.1935 136.121 92.3135 137.023 91.2135 137.023H90.3335C89.2445 137.023 88.3535 136.121 88.3535 135.032ZM95.1692 129.323V135.923H98.9092V137.023H94.0692V129.323H95.1692ZM100.885 129.323V135.923H104.625V137.023H99.7849V129.323H100.885ZM110.341 129.323V130.423H106.601V132.436H109.901V133.536H106.601V135.923H110.341V137.023H105.501V129.323H110.341ZM114.956 131.303C114.956 130.808 114.571 130.423 114.076 130.423H113.196C112.701 130.423 112.316 130.819 112.316 131.303V135.032C112.316 135.516 112.712 135.912 113.196 135.912H114.076C114.56 135.912 114.956 135.516 114.956 135.032V134.427H116.056V135.032C116.056 136.121 115.176 137.023 114.076 137.023H113.196C112.107 137.023 111.216 136.121 111.216 135.032V131.303C111.216 130.203 112.107 129.323 113.196 129.323H114.076C115.176 129.323 116.056 130.203 116.056 131.303V131.908H114.956V131.303ZM116.932 129.323H121.772V130.423H119.902V137.023H118.802V130.423H116.932V129.323ZM127.488 129.323V130.423H123.748V132.436H127.048V133.536H123.748V135.923H127.488V137.023H122.648V129.323H127.488ZM131.223 129.323C132.312 129.323 133.203 130.203 133.203 131.303V135.032C133.203 136.121 132.312 137.023 131.223 137.023H128.363V129.323H131.223ZM129.463 135.912H131.223C131.707 135.912 132.103 135.516 132.103 135.032V131.303C132.103 130.819 131.718 130.423 131.223 130.423H129.463V135.912ZM87.4778 143.963C87.4778 145.063 86.5978 145.943 85.4978 145.943H83.7378V149.023H82.6378V141.323H85.4978C86.5978 141.323 87.4778 142.203 87.4778 143.303V143.963ZM83.7378 144.843H85.4978C85.9928 144.843 86.3778 144.458 86.3778 143.963V143.303C86.3778 142.808 85.9928 142.423 85.4978 142.423H83.7378V144.843ZM89.4535 149.023H88.3535V146.493L90.2235 141.323H91.3235L93.1935 146.493V149.023H92.0935V147.241H89.4535V149.023ZM89.6515 146.141H91.8955L90.7845 143.061H90.7625L89.6515 146.141ZM95.9392 149.023V146.284L94.0692 143.963V141.323H95.1692V143.567L96.4672 145.184H96.4892L97.8092 143.457V141.323H98.9092V143.831L97.0392 146.284V149.023H95.9392ZM101.908 145.921L100.885 143.743V149.023H99.7849V141.323H100.885L102.205 144.194L103.525 141.323H104.625V149.023H103.525V143.743L102.502 145.921H101.908ZM110.341 141.323V142.423H106.601V144.436H109.901V145.536H106.601V147.923H110.341V149.023H105.501V141.323H110.341ZM114.956 141.323H116.056V149.023H114.461L112.316 143.171V149.023H111.216V141.323H112.811L114.956 147.175V141.323ZM116.932 141.323H121.772V142.423H119.902V149.023H118.802V142.423H116.932V141.323ZM122.648 146.537H123.748V146.977C123.748 147.494 124.177 147.923 124.694 147.923H125.431C125.992 147.923 126.388 147.571 126.388 147.087C126.388 145.569 122.758 145.239 122.758 143.149C122.758 142.071 123.605 141.323 124.804 141.323H125.321C126.454 141.323 127.378 142.236 127.378 143.369V143.699H126.278V143.369C126.278 142.841 125.849 142.423 125.321 142.423H124.804C124.21 142.423 123.858 142.698 123.858 143.149C123.858 144.315 127.488 144.766 127.488 147.087C127.488 148.187 126.597 149.023 125.431 149.023H124.694C123.561 149.023 122.648 148.11 122.648 146.977V146.537Z" fill="#3B4144"/>
<path d="M254.536 255.511H259.376V256.611H257.506V263.211H256.406V256.611H254.536V255.511ZM263.112 262.1C263.596 262.1 263.992 261.704 263.992 261.22V257.491C263.992 256.996 263.607 256.611 263.112 256.611H262.232C261.737 256.611 261.352 257.007 261.352 257.491V261.22C261.352 261.704 261.748 262.1 262.232 262.1H263.112ZM260.252 261.22V257.491C260.252 256.391 261.143 255.511 262.232 255.511H263.112C264.212 255.511 265.092 256.391 265.092 257.491V261.22C265.092 262.309 264.212 263.211 263.112 263.211H262.232C261.143 263.211 260.252 262.309 260.252 261.22ZM265.968 255.511H270.808V256.611H268.938V263.211H267.838V256.611H265.968V255.511ZM272.783 263.211H271.683V260.681L273.553 255.511H274.653L276.523 260.681V263.211H275.423V261.429H272.783V263.211ZM272.981 260.329H275.225L274.114 257.249H274.092L272.981 260.329ZM278.499 255.511V262.111H282.239V263.211H277.399V255.511H278.499ZM259.376 273.22C259.376 274.309 258.485 275.211 257.396 275.211H256.516C255.416 275.211 254.536 274.309 254.536 273.22V267.511H255.636V273.22C255.636 273.704 256.032 274.1 256.516 274.1H257.396C257.88 274.1 258.276 273.704 258.276 273.22V267.511H259.376V273.22ZM260.252 272.725H261.352V273.165C261.352 273.682 261.781 274.111 262.298 274.111H263.035C263.596 274.111 263.992 273.759 263.992 273.275C263.992 271.757 260.362 271.427 260.362 269.337C260.362 268.259 261.209 267.511 262.408 267.511H262.925C264.058 267.511 264.982 268.424 264.982 269.557V269.887H263.882V269.557C263.882 269.029 263.453 268.611 262.925 268.611H262.408C261.814 268.611 261.462 268.886 261.462 269.337C261.462 270.503 265.092 270.954 265.092 273.275C265.092 274.375 264.201 275.211 263.035 275.211H262.298C261.165 275.211 260.252 274.298 260.252 273.165V272.725ZM270.808 267.511V268.611H267.068V270.624H270.368V271.724H267.068V274.111H270.808V275.211H265.968V267.511H270.808ZM276.523 275.211H275.313L273.916 272.131H272.783V275.211H271.683V267.511H274.543C275.643 267.511 276.523 268.391 276.523 269.491V270.151C276.523 271.064 275.918 271.823 275.082 272.054L276.523 275.211ZM272.783 271.031H274.543C275.038 271.031 275.423 270.646 275.423 270.151V269.491C275.423 268.996 275.038 268.611 274.543 268.611H272.783V271.031ZM277.399 272.725H278.499V273.165C278.499 273.682 278.928 274.111 279.445 274.111H280.182C280.743 274.111 281.139 273.759 281.139 273.275C281.139 271.757 277.509 271.427 277.509 269.337C277.509 268.259 278.356 267.511 279.555 267.511H280.072C281.205 267.511 282.129 268.424 282.129 269.557V269.887H281.029V269.557C281.029 269.029 280.6 268.611 280.072 268.611H279.555C278.961 268.611 278.609 268.886 278.609 269.337C278.609 270.503 282.239 270.954 282.239 273.275C282.239 274.375 281.348 275.211 280.182 275.211H279.445C278.312 275.211 277.399 274.298 277.399 273.165V272.725Z" fill="#3B4144"/>
<rect x="237.016" y="137.023" width="171.892" height="97.4392" rx="13.6" fill="#92A6B0"/>
<path opacity="0.4" d="M255.883 216.762L390.248 216.762" stroke="#252829" stroke-width="1.6" stroke-linecap="round"/>
<path d="M255.883 216.762L336.411 216.762" stroke="#9BF7FF" stroke-width="1.6" stroke-linecap="round"/>
<path d="M265.096 201.503V203.703H255.416V201.503H259.156V190.855L255.416 193.055V190.503L259.156 188.303H261.356V201.503H265.096ZM276.528 201.503V203.703H266.848V201.503H270.588V190.855L266.848 193.055V190.503L270.588 188.303H272.788V201.503H276.528ZM299.39 193.143C299.39 194.265 298.928 195.277 298.18 196.003C298.928 196.729 299.39 197.741 299.39 198.863V199.743C299.39 201.943 297.63 203.703 295.43 203.703H293.67C291.492 203.703 289.71 201.943 289.71 199.743V198.973H291.91V199.743C291.91 200.711 292.702 201.503 293.67 201.503H295.43C296.42 201.503 297.19 200.733 297.19 199.743V198.863C297.19 197.873 296.42 197.103 295.43 197.103H293.89V194.903H295.43C296.42 194.903 297.19 194.133 297.19 193.143V192.263C297.19 191.273 296.42 190.503 295.43 190.503H293.67C292.702 190.503 291.91 191.295 291.91 192.263V193.033H289.71V192.263C289.71 190.063 291.492 188.303 293.67 188.303H295.43C297.63 188.303 299.39 190.063 299.39 192.263V193.143ZM301.142 197.169V188.303H309.502V190.503H303.342V194.507L305.168 193.275H306.862C309.04 193.275 310.822 195.035 310.822 197.235V199.743C310.822 201.943 309.062 203.703 306.862 203.703H305.102C302.924 203.703 301.142 201.943 301.142 199.743V199.523H303.342V199.743C303.342 200.711 304.134 201.503 305.102 201.503H306.862C307.852 201.503 308.622 200.733 308.622 199.743V197.235C308.622 196.267 307.83 195.475 306.862 195.475H305.85L303.342 197.169H301.142ZM315.653 203.703H313.453V199.413L320.053 192.593V190.503H314.773V192.923H312.573V188.303H322.253V193.473L315.653 200.293V203.703Z" fill="#3B4144"/>
<path opacity="0.3" d="M330.714 204.289H329.614V202.529L333.354 197.953V196.589H334.454V198.349L330.714 202.925V204.289ZM345.886 203.189V204.289H341.046V203.189H342.916V197.865L341.046 198.965V197.689L342.916 196.589H344.016V203.189H345.886ZM346.761 201.022V196.589H350.941V197.689H347.861V199.691L348.774 199.075H349.621C350.71 199.075 351.601 199.955 351.601 201.055V202.309C351.601 203.409 350.721 204.289 349.621 204.289H348.741C347.652 204.289 346.761 203.409 346.761 202.309V202.199H347.861V202.309C347.861 202.793 348.257 203.189 348.741 203.189H349.621C350.116 203.189 350.501 202.804 350.501 202.309V201.055C350.501 200.571 350.105 200.175 349.621 200.175H349.115L347.861 201.022H346.761ZM361.053 203.178C361.24 203.178 361.405 203.123 361.548 203.024L359.293 199.35V202.298C359.293 202.782 359.689 203.178 360.173 203.178H361.053ZM358.193 202.298V198.569C358.193 197.469 359.084 196.589 360.173 196.589H361.053C362.153 196.589 363.033 197.469 363.033 198.569V202.298C363.033 203.387 362.153 204.289 361.053 204.289H360.173C359.084 204.289 358.193 203.387 358.193 202.298ZM359.667 197.843L361.933 201.528V198.569C361.933 198.074 361.548 197.689 361.053 197.689H360.173C359.986 197.689 359.81 197.744 359.667 197.843ZM366.769 203.178C366.956 203.178 367.121 203.123 367.264 203.024L365.009 199.35V202.298C365.009 202.782 365.405 203.178 365.889 203.178H366.769ZM363.909 202.298V198.569C363.909 197.469 364.8 196.589 365.889 196.589H366.769C367.869 196.589 368.749 197.469 368.749 198.569V202.298C368.749 203.387 367.869 204.289 366.769 204.289H365.889C364.8 204.289 363.909 203.387 363.909 202.298ZM365.383 197.843L367.649 201.528V198.569C367.649 198.074 367.264 197.689 366.769 197.689H365.889C365.702 197.689 365.526 197.744 365.383 197.843ZM372.484 203.178C372.671 203.178 372.836 203.123 372.979 203.024L370.724 199.35V202.298C370.724 202.782 371.12 203.178 371.604 203.178H372.484ZM369.624 202.298V198.569C369.624 197.469 370.515 196.589 371.604 196.589H372.484C373.584 196.589 374.464 197.469 374.464 198.569V202.298C374.464 203.387 373.584 204.289 372.484 204.289H371.604C370.515 204.289 369.624 203.387 369.624 202.298ZM371.098 197.843L373.364 201.528V198.569C373.364 198.074 372.979 197.689 372.484 197.689H371.604C371.417 197.689 371.241 197.744 371.098 197.843Z" fill="#3B4144"/>
<path d="M137.629 224.764C138.685 224.764 139.549 223.9 139.549 222.82V221.644C139.549 220.564 138.709 219.724 137.629 219.724H135.709C134.629 219.724 133.789 220.588 133.789 221.644V222.82C133.789 223.9 134.653 224.788 135.709 224.764H137.629ZM131.389 222.82V221.644C131.389 220.348 131.965 219.196 132.853 218.404C132.109 217.612 131.629 216.556 131.629 215.38V214.684C131.629 212.284 133.573 210.364 135.949 210.364H137.389C139.789 210.364 141.709 212.284 141.709 214.684V215.38C141.709 216.556 141.253 217.612 140.485 218.404C141.397 219.196 141.949 220.348 141.949 221.644V222.82C141.949 225.196 140.029 227.164 137.629 227.164H135.709C133.333 227.164 131.389 225.196 131.389 222.82ZM134.029 215.38C134.029 216.436 134.845 217.3 135.877 217.324H137.389C138.445 217.324 139.309 216.46 139.309 215.38V214.684C139.309 213.604 138.469 212.764 137.389 212.764H135.949C134.869 212.764 134.029 213.628 134.029 214.684V215.38ZM149.619 211.804H152.019V217.804H154.419V220.204H152.019V227.164H149.619V220.204H143.859V210.364H146.259V217.804H149.619V211.804ZM158.73 227.164H156.33V223.324L164.49 213.34V210.364H166.89V214.204L158.73 224.188V227.164ZM154.89 213.556C154.89 211.78 156.306 210.364 158.082 210.364C159.834 210.364 161.25 211.78 161.25 213.556C161.25 215.332 159.834 216.748 158.082 216.748C156.306 216.748 154.89 215.332 154.89 213.556ZM157.29 213.556C157.29 213.988 157.65 214.348 158.082 214.348C158.514 214.348 158.85 213.988 158.85 213.556C158.85 213.124 158.514 212.764 158.082 212.764C157.65 212.764 157.29 213.124 157.29 213.556ZM161.97 223.972C161.97 222.196 163.386 220.78 165.162 220.78C166.914 220.78 168.33 222.196 168.33 223.972C168.33 225.748 166.914 227.164 165.162 227.164C163.386 227.164 161.97 225.748 161.97 223.972ZM164.37 223.972C164.37 224.404 164.73 224.764 165.162 224.764C165.594 224.764 165.93 224.404 165.93 223.972C165.93 223.54 165.594 223.18 165.162 223.18C164.73 223.18 164.37 223.54 164.37 223.972Z" fill="#313334"/>
<path opacity="0.3" d="M200.921 220.564C200.921 248.982 177.884 272.019 149.466 272.019C121.049 272.019 98.0117 248.982 98.0117 220.564C98.0117 192.146 121.049 169.109 149.466 169.109C177.884 169.109 200.921 192.146 200.921 220.564ZM99.3392 220.564C99.3392 248.249 121.782 270.691 149.466 270.691C177.151 270.691 199.594 248.249 199.594 220.564C199.594 192.88 177.151 170.437 149.466 170.437C121.782 170.437 99.3392 192.88 99.3392 220.564Z" fill="#252829"/>
<path d="M149.202 169.109C160.621 169.05 171.736 172.791 180.795 179.743C189.854 186.695 196.343 196.464 199.24 207.509C202.136 218.555 201.277 230.25 196.796 240.754C192.315 251.257 184.467 259.971 174.489 265.524C164.511 271.077 152.969 273.153 141.682 271.425C130.394 269.697 120.002 264.263 112.142 255.979C104.282 247.696 99.4009 237.033 98.2675 225.67C97.1342 214.307 99.8128 202.89 105.882 193.217L107.006 193.922C101.094 203.346 98.4844 214.468 99.5885 225.538C100.693 236.608 105.448 246.996 113.105 255.066C120.762 263.136 130.886 268.429 141.882 270.113C152.879 271.796 164.123 269.774 173.844 264.364C183.564 258.955 191.21 250.465 195.575 240.233C199.94 230 200.778 218.607 197.955 207.846C195.133 197.085 188.812 187.569 179.986 180.796C171.161 174.024 160.334 170.379 149.209 170.436L149.202 169.109Z" fill="#9BF7FF"/>
<rect x="130.18" y="235.168" width="38.576" height="11.92" rx="5.96" fill="#9BF7FF"/>
<path d="M137.667 243.074V239.188M137.667 239.188L135.703 241.152M137.667 239.188L139.632 241.152" stroke="#252829" stroke-width="0.64"/>
<path d="M151.001 243.257V244.129H147.166V243.257H148.648V239.039L147.166 239.91V238.899L148.648 238.028H149.519V243.257H151.001ZM151.913 243.257H152.872V244.129H151.913V243.257ZM157.618 239.945C157.618 240.39 157.435 240.791 157.139 241.078C157.435 241.366 157.618 241.767 157.618 242.211V242.56C157.618 243.432 156.921 244.129 156.05 244.129H155.352C154.489 244.129 153.783 243.432 153.783 242.56V242.255H154.655V242.56C154.655 242.944 154.969 243.257 155.352 243.257H156.05C156.442 243.257 156.747 242.952 156.747 242.56V242.211C156.747 241.819 156.442 241.514 156.05 241.514H155.439V240.642H156.05C156.442 240.642 156.747 240.337 156.747 239.945V239.597C156.747 239.204 156.442 238.899 156.05 238.899H155.352C154.969 238.899 154.655 239.213 154.655 239.597V239.902H153.783V239.597C153.783 238.725 154.489 238.028 155.352 238.028H156.05C156.921 238.028 157.618 238.725 157.618 239.597V239.945Z" fill="#252829"/>
<path d="M160.038 244.129H159.166V242.734L162.129 239.108V238.028H163.001V239.422L160.038 243.048V244.129ZM158.643 239.187C158.643 238.542 159.157 238.028 159.802 238.028C160.439 238.028 160.953 238.542 160.953 239.187C160.953 239.832 160.439 240.346 159.802 240.346C159.157 240.346 158.643 239.832 158.643 239.187ZM159.515 239.187C159.515 239.344 159.645 239.475 159.802 239.475C159.959 239.475 160.081 239.344 160.081 239.187C160.081 239.03 159.959 238.899 159.802 238.899C159.645 238.899 159.515 239.03 159.515 239.187ZM161.214 242.97C161.214 242.325 161.729 241.81 162.374 241.81C163.01 241.81 163.524 242.325 163.524 242.97C163.524 243.615 163.01 244.129 162.374 244.129C161.729 244.129 161.214 243.615 161.214 242.97ZM162.086 242.97C162.086 243.127 162.217 243.257 162.374 243.257C162.53 243.257 162.652 243.127 162.652 242.97C162.652 242.813 162.53 242.682 162.374 242.682C162.217 242.682 162.086 242.813 162.086 242.97Z" fill="#252829"/>
<rect x="353.445" y="315.113" width="38.576" height="11.92" rx="5.96" fill="#ABFDBE"/>
<path d="M360.933 323.015V319.129M360.933 319.129L358.969 321.093M360.933 319.129L362.897 321.093" stroke="#252829" stroke-width="0.64"/>
<path d="M370.432 321.486V317.973H373.744V318.845H371.303V320.431L372.027 319.943H372.698C373.561 319.943 374.267 320.64 374.267 321.512V322.505C374.267 323.377 373.569 324.074 372.698 324.074H372.001C371.138 324.074 370.432 323.377 370.432 322.505V322.418H371.303V322.505C371.303 322.889 371.617 323.203 372.001 323.203H372.698C373.09 323.203 373.395 322.898 373.395 322.505V321.512C373.395 321.128 373.081 320.814 372.698 320.814H372.297L371.303 321.486H370.432ZM375.178 323.203H376.137V324.074H375.178V323.203ZM378.269 324.074H377.398V322.375L380.012 319.673V318.845H377.921V319.803H377.049V317.973H380.884V320.021L378.269 322.723V324.074Z" fill="#252829"/>
<path d="M383.303 324.074H382.432V322.68L385.395 319.054V317.973H386.267V319.368L383.303 322.993V324.074ZM381.909 319.132C381.909 318.487 382.423 317.973 383.068 317.973C383.704 317.973 384.218 318.487 384.218 319.132C384.218 319.777 383.704 320.291 383.068 320.291C382.423 320.291 381.909 319.777 381.909 319.132ZM382.78 319.132C382.78 319.289 382.911 319.42 383.068 319.42C383.225 319.42 383.347 319.289 383.347 319.132C383.347 318.975 383.225 318.845 383.068 318.845C382.911 318.845 382.78 318.975 382.78 319.132ZM384.48 322.915C384.48 322.27 384.994 321.756 385.639 321.756C386.275 321.756 386.79 322.27 386.79 322.915C386.79 323.56 386.275 324.074 385.639 324.074C384.994 324.074 384.48 323.56 384.48 322.915ZM385.352 322.915C385.352 323.072 385.482 323.203 385.639 323.203C385.796 323.203 385.918 323.072 385.918 322.915C385.918 322.758 385.796 322.627 385.639 322.627C385.482 322.627 385.352 322.758 385.352 322.915Z" fill="#252829"/>
<path opacity="0.3" d="M328.663 267.891L317.901 276.122C317.506 276.425 317.273 276.895 317.273 277.393V283.763C317.273 284.647 317.991 285.364 318.875 285.363L391.516 285.271C392.399 285.27 393.114 284.554 393.114 283.671V266.805C393.114 266.483 393.017 266.169 392.836 265.904L389.151 260.498C388.814 260.003 388.229 259.739 387.634 259.802C385.129 260.066 381.425 260.303 381.249 259.692C381.077 259.094 377.236 255.969 374.532 253.848C373.853 253.315 372.876 253.427 372.327 254.093L368.992 258.138C368.811 258.357 368.575 258.524 368.308 258.622L360.869 261.351C360.178 261.604 359.403 261.353 358.991 260.743L356.634 257.247C356.011 256.322 354.656 256.303 354.006 257.209L346.872 267.173C346.785 267.295 346.681 267.404 346.563 267.497L341.929 271.157C341.492 271.501 340.908 271.595 340.386 271.403L330.187 267.66C329.673 267.471 329.098 267.558 328.663 267.891Z" fill="url(#paint0_linear_6569_36055)"/>
<path d="M317.359 276.836L328.661 268.304C329.095 267.977 329.666 267.892 330.176 268.079L340.382 271.825C340.904 272.016 341.488 271.923 341.924 271.578L346.559 267.919C346.677 267.826 346.781 267.717 346.868 267.595L354.002 257.631C354.652 256.724 356.006 256.744 356.63 257.668L358.987 261.165C359.398 261.775 360.173 262.026 360.865 261.772L368.304 259.044C368.571 258.946 368.807 258.779 368.988 258.56L372.322 254.515C372.871 253.849 373.849 253.737 374.528 254.27C377.232 256.391 381.073 259.516 381.245 260.114C381.421 260.725 385.125 260.487 387.629 260.224C388.225 260.161 388.81 260.425 389.147 260.92L393.11 266.733" stroke="#ABFDBE" stroke-width="1.0895" stroke-linecap="round"/>
<rect x="430.059" y="182.746" width="19.95" height="61.5434" rx="9.975" fill="#B1C5CE"/>
<rect x="452.109" y="190.965" width="19.95" height="53.3245" rx="9.975" fill="#FBCDCD"/>
<rect x="474.16" y="173.469" width="19.95" height="70.8218" rx="9.975" fill="#B1C5CE"/>
<rect x="496.207" y="163.426" width="19.95" height="80.8633" rx="9.975" fill="#ABFDBE"/>
<g opacity="0.34">
<path d="M440.305 259.513L439.658 259.873L439.063 258.91H438.982H438.394C437.666 258.91 437.071 258.307 437.071 257.58V255.088C437.071 254.353 437.666 253.765 438.394 253.765H438.982C439.717 253.765 440.305 254.353 440.305 255.088V257.58C440.305 258.013 440.099 258.403 439.776 258.646L440.305 259.513ZM437.806 257.58C437.806 257.903 438.07 258.168 438.394 258.168H438.982C439.305 258.168 439.57 257.903 439.57 257.58V255.088C439.57 254.757 439.313 254.5 438.982 254.5H438.394C438.063 254.5 437.806 254.765 437.806 255.088V257.58ZM444.565 258.175V258.91H441.331V258.175H442.58V254.618L441.331 255.353V254.5L442.58 253.765H443.315V258.175H444.565Z" fill="#3B4144"/>
<path d="M462.156 259.513L461.51 259.873L460.914 258.91H460.833H460.245C459.518 258.91 458.922 258.307 458.922 257.58V255.088C458.922 254.353 459.518 253.765 460.245 253.765H460.833C461.568 253.765 462.156 254.353 462.156 255.088V257.58C462.156 258.013 461.951 258.403 461.627 258.646L462.156 259.513ZM459.657 257.58C459.657 257.903 459.922 258.168 460.245 258.168H460.833C461.157 258.168 461.421 257.903 461.421 257.58V255.088C461.421 254.757 461.164 254.5 460.833 254.5H460.245C459.915 254.5 459.657 254.765 459.657 255.088V257.58ZM466.416 258.175V258.91H463.182V257.212L465.681 255.808V255.088C465.681 254.757 465.424 254.5 465.093 254.5H464.505C464.182 254.5 463.917 254.765 463.917 255.088V255.345H463.182V255.088C463.182 254.353 463.778 253.765 464.505 253.765H465.093C465.828 253.765 466.416 254.353 466.416 255.088V256.242L463.917 257.646V258.175H466.416Z" fill="#3B4144"/>
<path d="M484.004 259.513L483.357 259.873L482.762 258.91H482.681H482.093C481.365 258.91 480.77 258.307 480.77 257.58V255.088C480.77 254.353 481.365 253.765 482.093 253.765H482.681C483.416 253.765 484.004 254.353 484.004 255.088V257.58C484.004 258.013 483.798 258.403 483.475 258.646L484.004 259.513ZM481.505 257.58C481.505 257.903 481.77 258.168 482.093 258.168H482.681C483.004 258.168 483.269 257.903 483.269 257.58V255.088C483.269 254.757 483.012 254.5 482.681 254.5H482.093C481.762 254.5 481.505 254.765 481.505 255.088V257.58ZM488.264 255.382C488.264 255.757 488.11 256.095 487.86 256.338C488.11 256.58 488.264 256.918 488.264 257.293V257.587C488.264 258.322 487.676 258.91 486.941 258.91H486.353C485.625 258.91 485.03 258.322 485.03 257.587V257.33H485.765V257.587C485.765 257.911 486.03 258.175 486.353 258.175H486.941C487.272 258.175 487.529 257.918 487.529 257.587V257.293C487.529 256.962 487.272 256.705 486.941 256.705H486.427V255.97H486.941C487.272 255.97 487.529 255.713 487.529 255.382V255.088C487.529 254.757 487.272 254.5 486.941 254.5H486.353C486.03 254.5 485.765 254.765 485.765 255.088V255.345H485.03V255.088C485.03 254.353 485.625 253.765 486.353 253.765H486.941C487.676 253.765 488.264 254.353 488.264 255.088V255.382Z" fill="#3B4144"/>
<path d="M505.856 259.513L505.209 259.873L504.613 258.91H504.533H503.945C503.217 258.91 502.622 258.307 502.622 257.58V255.088C502.622 254.353 503.217 253.765 503.945 253.765H504.533C505.268 253.765 505.856 254.353 505.856 255.088V257.58C505.856 258.013 505.65 258.403 505.326 258.646L505.856 259.513ZM503.357 257.58C503.357 257.903 503.621 258.168 503.945 258.168H504.533C504.856 258.168 505.121 257.903 505.121 257.58V255.088C505.121 254.757 504.863 254.5 504.533 254.5H503.945C503.614 254.5 503.357 254.765 503.357 255.088V257.58ZM508.646 254.206H509.381V256.044H510.116V256.779H509.381V258.91H508.646V256.779H506.882V253.765H507.617V256.044H508.646V254.206Z" fill="#3B4144"/>
</g>
<path d="M258.891 158.306C258.891 158.812 258.704 159.285 258.385 159.626C258.825 159.989 259.111 160.539 259.111 161.166V161.606C259.111 162.706 258.231 163.586 257.131 163.586H254.271V155.886H256.911C258.011 155.886 258.891 156.766 258.891 157.866V158.306ZM255.371 162.486H257.131C257.626 162.486 258.011 162.101 258.011 161.606V161.166C258.011 160.671 257.626 160.286 257.131 160.286H255.371V162.486ZM255.371 159.186H256.911C257.406 159.186 257.791 158.801 257.791 158.306V157.866C257.791 157.371 257.406 156.986 256.911 156.986H255.371V159.186ZM264.826 161.595C264.826 162.684 263.935 163.586 262.846 163.586H261.966C260.866 163.586 259.986 162.684 259.986 161.595V155.886H261.086V161.595C261.086 162.079 261.482 162.475 261.966 162.475H262.846C263.33 162.475 263.726 162.079 263.726 161.595V155.886H264.826V161.595ZM266.802 155.886V162.486H270.542V163.586H265.702V155.886H266.802ZM272.518 163.586H271.418V155.886H272.518V159.186H272.936L274.96 155.886H276.258L273.893 159.736L276.258 163.586H274.96L272.936 160.286H272.518V163.586ZM283.949 163.586H282.849V161.056L284.719 155.886H285.819L287.689 161.056V163.586H286.589V161.804H283.949V163.586ZM284.147 160.704H286.391L285.28 157.624H285.258L284.147 160.704ZM291.425 155.886C292.514 155.886 293.405 156.766 293.405 157.866V161.595C293.405 162.684 292.514 163.586 291.425 163.586H288.565V155.886H291.425ZM289.665 162.475H291.425C291.909 162.475 292.305 162.079 292.305 161.595V157.866C292.305 157.382 291.92 156.986 291.425 156.986H289.665V162.475ZM297.141 155.886C298.23 155.886 299.121 156.766 299.121 157.866V161.595C299.121 162.684 298.23 163.586 297.141 163.586H294.281V155.886H297.141ZM295.381 162.475H297.141C297.625 162.475 298.021 162.079 298.021 161.595V157.866C298.021 157.382 297.636 156.986 297.141 156.986H295.381V162.475ZM310.552 158.526C310.552 159.626 309.672 160.506 308.572 160.506H306.812V163.586H305.712V155.886H308.572C309.672 155.886 310.552 156.766 310.552 157.866V158.526ZM306.812 159.406H308.572C309.067 159.406 309.452 159.021 309.452 158.526V157.866C309.452 157.371 309.067 156.986 308.572 156.986H306.812V159.406ZM316.268 163.586H315.058L313.661 160.506H312.528V163.586H311.428V155.886H314.288C315.388 155.886 316.268 156.766 316.268 157.866V158.526C316.268 159.439 315.663 160.198 314.827 160.429L316.268 163.586ZM312.528 159.406H314.288C314.783 159.406 315.168 159.021 315.168 158.526V157.866C315.168 157.371 314.783 156.986 314.288 156.986H312.528V159.406ZM320.003 162.475C320.487 162.475 320.883 162.079 320.883 161.595V157.866C320.883 157.371 320.498 156.986 320.003 156.986H319.123C318.628 156.986 318.243 157.382 318.243 157.866V161.595C318.243 162.079 318.639 162.475 319.123 162.475H320.003ZM317.143 161.595V157.866C317.143 156.766 318.034 155.886 319.123 155.886H320.003C321.103 155.886 321.983 156.766 321.983 157.866V161.595C321.983 162.684 321.103 163.586 320.003 163.586H319.123C318.034 163.586 317.143 162.684 317.143 161.595ZM325.719 155.886C326.808 155.886 327.699 156.766 327.699 157.866V161.595C327.699 162.684 326.808 163.586 325.719 163.586H322.859V155.886H325.719ZM323.959 162.475H325.719C326.203 162.475 326.599 162.079 326.599 161.595V157.866C326.599 157.382 326.214 156.986 325.719 156.986H323.959V162.475ZM333.415 161.595C333.415 162.684 332.524 163.586 331.435 163.586H330.555C329.455 163.586 328.575 162.684 328.575 161.595V155.886H329.675V161.595C329.675 162.079 330.071 162.475 330.555 162.475H331.435C331.919 162.475 332.315 162.079 332.315 161.595V155.886H333.415V161.595ZM338.03 157.866C338.03 157.371 337.645 156.986 337.15 156.986H336.27C335.775 156.986 335.39 157.382 335.39 157.866V161.595C335.39 162.079 335.786 162.475 336.27 162.475H337.15C337.634 162.475 338.03 162.079 338.03 161.595V160.99H339.13V161.595C339.13 162.684 338.25 163.586 337.15 163.586H336.27C335.181 163.586 334.29 162.684 334.29 161.595V157.866C334.29 156.766 335.181 155.886 336.27 155.886H337.15C338.25 155.886 339.13 156.766 339.13 157.866V158.471H338.03V157.866ZM340.006 155.886H344.846V156.986H342.976V163.586H341.876V156.986H340.006V155.886Z" fill="#3B4144"/>
<defs>
<linearGradient id="paint0_linear_6569_36055" x1="357.64" y1="258.101" x2="357.64" y2="283.201" gradientUnits="userSpaceOnUse">
<stop stop-color="#ABFDBE"/>
<stop offset="1" stop-color="#ABFDBE" stop-opacity="0"/>
</linearGradient>
</defs>
</svg>
