<svg width="601" height="450" viewBox="0 0 601 450" fill="none" xmlns="http://www.w3.org/2000/svg">
<g opacity="0.34">
<g opacity="0.5">
<path d="M82.2527 75.9227C82.467 75.9227 82.6559 75.8597 82.8198 75.7463L80.2367 71.5379V74.9147C80.2367 75.4691 80.6903 75.9227 81.2448 75.9227H82.2527ZM78.9768 74.9147V70.6433C78.9768 69.3833 79.9974 68.3753 81.2448 68.3753H82.2527C83.5128 68.3753 84.5208 69.3833 84.5208 70.6433V74.9147C84.5208 76.1621 83.5128 77.1953 82.2527 77.1953H81.2448C79.9974 77.1953 78.9768 76.1621 78.9768 74.9147ZM80.6652 69.8117L83.2607 74.0327V70.6433C83.2607 70.0763 82.8198 69.6353 82.2527 69.6353H81.2448C81.0306 69.6353 80.829 69.6983 80.6652 69.8117ZM91.8238 75.9353V77.1953H86.2798V75.9353H88.4218V69.8369L86.2798 71.0969V69.6353L88.4218 68.3753H89.6818V75.9353H91.8238Z" fill="#F5FCFF"/>
<path d="M225.753 75.9227C225.967 75.9227 226.156 75.8597 226.32 75.7463L223.737 71.5379V74.9147C223.737 75.4691 224.19 75.9227 224.745 75.9227H225.753ZM222.477 74.9147V70.6433C222.477 69.3833 223.497 68.3753 224.745 68.3753H225.753C227.013 68.3753 228.021 69.3833 228.021 70.6433V74.9147C228.021 76.1621 227.013 77.1953 225.753 77.1953H224.745C223.497 77.1953 222.477 76.1621 222.477 74.9147ZM224.165 69.8117L226.761 74.0327V70.6433C226.761 70.0763 226.32 69.6353 225.753 69.6353H224.745C224.531 69.6353 224.329 69.6983 224.165 69.8117ZM235.324 75.9353V77.1953H229.78V74.2847L234.064 71.8781V70.6433C234.064 70.0763 233.623 69.6353 233.056 69.6353H232.048C231.493 69.6353 231.04 70.0889 231.04 70.6433V71.0843H229.78V70.6433C229.78 69.3833 230.8 68.3753 232.048 68.3753H233.056C234.316 68.3753 235.324 69.3833 235.324 70.6433V72.6215L231.04 75.0281V75.9353H235.324Z" fill="#F5FCFF"/>
<path d="M369.253 75.9227C369.467 75.9227 369.656 75.8597 369.82 75.7463L367.237 71.5379V74.9147C367.237 75.4691 367.69 75.9227 368.245 75.9227H369.253ZM365.977 74.9147V70.6433C365.977 69.3833 366.997 68.3753 368.245 68.3753H369.253C370.513 68.3753 371.521 69.3833 371.521 70.6433V74.9147C371.521 76.1621 370.513 77.1953 369.253 77.1953H368.245C366.997 77.1953 365.977 76.1621 365.977 74.9147ZM367.665 69.8117L370.261 74.0327V70.6433C370.261 70.0763 369.82 69.6353 369.253 69.6353H368.245C368.031 69.6353 367.829 69.6983 367.665 69.8117ZM378.824 71.1473C378.824 71.7899 378.559 72.3695 378.131 72.7853C378.559 73.2011 378.824 73.7807 378.824 74.4233V74.9273C378.824 76.1873 377.816 77.1953 376.556 77.1953H375.548C374.3 77.1953 373.28 76.1873 373.28 74.9273V74.4863H374.54V74.9273C374.54 75.4817 374.993 75.9353 375.548 75.9353H376.556C377.123 75.9353 377.564 75.4943 377.564 74.9273V74.4233C377.564 73.8563 377.123 73.4153 376.556 73.4153H375.674V72.1553H376.556C377.123 72.1553 377.564 71.7143 377.564 71.1473V70.6433C377.564 70.0763 377.123 69.6353 376.556 69.6353H375.548C374.993 69.6353 374.54 70.0889 374.54 70.6433V71.0843H373.28V70.6433C373.28 69.3833 374.3 68.3753 375.548 68.3753H376.556C377.816 68.3753 378.824 69.3833 378.824 70.6433V71.1473Z" fill="#F5FCFF"/>
<path d="M512.753 75.9227C512.967 75.9227 513.156 75.8597 513.32 75.7463L510.737 71.5379V74.9147C510.737 75.4691 511.19 75.9227 511.745 75.9227H512.753ZM509.477 74.9147V70.6433C509.477 69.3833 510.497 68.3753 511.745 68.3753H512.753C514.013 68.3753 515.021 69.3833 515.021 70.6433V74.9147C515.021 76.1621 514.013 77.1953 512.753 77.1953H511.745C510.497 77.1953 509.477 76.1621 509.477 74.9147ZM511.165 69.8117L513.761 74.0327V70.6433C513.761 70.0763 513.32 69.6353 512.753 69.6353H511.745C511.531 69.6353 511.329 69.6983 511.165 69.8117ZM519.804 69.1313H521.064V72.2813H522.324V73.5413H521.064V77.1953H519.804V73.5413H516.78V68.3753H518.04V72.2813H519.804V69.1313Z" fill="#F5FCFF"/>
</g>
</g>
<path opacity="0.3" d="M78.9768 378.957H80.2367V379.461C80.2367 380.053 80.7282 380.545 81.3203 380.545H82.1645C82.8071 380.545 83.2607 380.141 83.2607 379.587C83.2607 377.848 79.1027 377.47 79.1027 375.076C79.1027 373.841 80.073 372.985 81.4464 372.985H82.0385C83.3364 372.985 84.3948 374.03 84.3948 375.328V375.706H83.1348V375.328C83.1348 374.723 82.6434 374.245 82.0385 374.245H81.4464C80.766 374.245 80.3628 374.56 80.3628 375.076C80.3628 376.412 84.5208 376.928 84.5208 379.587C84.5208 380.847 83.5001 381.805 82.1645 381.805H81.3203C80.0225 381.805 78.9768 380.759 78.9768 379.461V378.957ZM85.6498 372.985H91.1938V374.245H89.0518V381.805H87.7918V374.245H85.6498V372.985ZM93.5829 381.805H92.3229V378.907L94.4649 372.985H95.7249L97.8669 378.907V381.805H96.6069V379.763H93.5829V381.805ZM93.8097 378.503H96.3801L95.1075 374.975H95.0823L93.8097 378.503ZM104.54 381.805H103.154L101.554 378.277H100.256V381.805H98.996V372.985H102.272C103.532 372.985 104.54 373.993 104.54 375.253V376.009C104.54 377.054 103.847 377.924 102.889 378.188L104.54 381.805ZM100.256 377.017H102.272C102.839 377.017 103.28 376.576 103.28 376.009V375.253C103.28 374.686 102.839 374.245 102.272 374.245H100.256V377.017ZM105.669 372.985H111.213V374.245H109.071V381.805H107.811V374.245H105.669V372.985Z" fill="#F5FCFF"/>
<path opacity="0.3" d="M485.047 372.985V380.545H489.331V381.805H483.787V372.985H485.047ZM491.72 381.805H490.46V378.907L492.602 372.985H493.862L496.004 378.907V381.805H494.744V379.763H491.72V381.805ZM491.947 378.503H494.518L493.245 374.975H493.22L491.947 378.503ZM502.677 379.524C502.677 380.771 501.657 381.805 500.409 381.805H499.401C498.141 381.805 497.133 380.771 497.133 379.524V372.985H498.393V379.524C498.393 380.078 498.847 380.532 499.401 380.532H500.409C500.964 380.532 501.417 380.078 501.417 379.524V372.985H502.677V379.524ZM508.091 372.985H509.351V381.805H507.524L505.067 375.101V381.805H503.807V372.985H505.634L508.091 379.688V372.985ZM514.764 375.253C514.764 374.686 514.323 374.245 513.756 374.245H512.748C512.181 374.245 511.74 374.698 511.74 375.253V379.524C511.74 380.078 512.193 380.532 512.748 380.532H513.756C514.31 380.532 514.764 380.078 514.764 379.524V378.831H516.024V379.524C516.024 380.771 515.016 381.805 513.756 381.805H512.748C511.5 381.805 510.48 380.771 510.48 379.524V375.253C510.48 373.993 511.5 372.985 512.748 372.985H513.756C515.016 372.985 516.024 373.993 516.024 375.253V375.946H514.764V375.253ZM518.413 372.985V376.513H521.437V372.985H522.697V381.805H521.437V377.773H518.413V381.805H517.153V372.985H518.413Z" fill="#F5FCFF"/>
<path fill-rule="evenodd" clip-rule="evenodd" d="M306.762 230.134C306.762 230.332 306.922 230.492 307.12 230.492C307.317 230.492 307.477 230.332 307.477 230.134L307.477 94.5729C307.477 92.6558 309.053 91.1465 310.756 90.2677C313.372 88.9189 315.161 86.185 315.161 83.0427C315.161 79.9005 313.372 77.1666 310.756 75.8177C309.053 74.939 307.477 73.4297 307.477 71.5126V63.5532C307.477 63.3555 307.317 63.1953 307.12 63.1953C306.922 63.1953 306.762 63.3555 306.762 63.5532L306.762 71.4579C306.762 73.395 305.155 74.9135 303.426 75.7869C300.778 77.1247 298.961 79.8764 298.961 83.0427C298.961 86.2091 300.778 88.9608 303.426 90.2986C305.155 91.172 306.762 92.6905 306.762 94.6276L306.762 230.134Z" fill="#ABFDBE"/>
<path fill-rule="evenodd" clip-rule="evenodd" d="M307.122 382.793C306.923 382.793 306.762 382.632 306.762 382.433L306.762 263.251C306.762 263.052 306.923 262.891 307.122 262.891V262.891C307.321 262.891 307.482 263.052 307.482 263.251L307.482 382.433C307.482 382.632 307.321 382.793 307.122 382.793V382.793Z" fill="#ABFDBE"/>
<path opacity="0.2" fill-rule="evenodd" clip-rule="evenodd" d="M307.122 262.59C306.923 262.59 306.762 262.429 306.762 262.23L306.762 230.852C306.762 230.653 306.923 230.492 307.122 230.492V230.492C307.321 230.492 307.482 230.653 307.482 230.852L307.482 262.23C307.482 262.429 307.321 262.59 307.122 262.59V262.59Z" fill="#ABFDBE"/>
<path opacity="0.1" d="M77.9688 357.906H520.765" stroke="#D5E1E7" stroke-width="0.9"/>
<path opacity="0.1" d="M77.9688 96.6875H520.765" stroke="#D5E1E7" stroke-width="0.9"/>
<rect x="251.218" y="230.942" width="162.9" height="31.5" rx="15.75" stroke="#66E8FA" stroke-opacity="0.8" stroke-width="0.9"/>
<path d="M269.073 251.691H267.903V249L269.892 243.501H271.062L273.051 249V251.691H271.881V249.796H269.073V251.691ZM269.283 248.626H271.67L270.488 245.35H270.465L269.283 248.626ZM278.428 245.607C278.428 245.081 278.019 244.671 277.492 244.671H276.556C276.03 244.671 275.62 245.093 275.62 245.607V249.574C275.62 250.089 276.041 250.51 276.556 250.51H277.492C278.007 250.51 278.428 250.089 278.428 249.574V248.93H279.598V249.574C279.598 250.732 278.662 251.691 277.492 251.691H276.556C275.398 251.691 274.45 250.732 274.45 249.574V245.607C274.45 244.437 275.398 243.501 276.556 243.501H277.492C278.662 243.501 279.598 244.437 279.598 245.607V246.251H278.428V245.607ZM280.998 243.501H286.146V244.671H284.157V251.691H282.987V244.671H280.998V243.501ZM287.545 243.501H292.693V244.671H290.704V250.521H292.693V251.691H287.545V250.521H289.534V244.671H287.545V243.501ZM298.071 243.501H299.241V246.192L297.252 251.691H296.082L294.093 246.192V243.501H295.263V245.982L296.655 249.843H296.678L298.071 245.982V243.501ZM301.81 251.691H300.64V249L302.629 243.501H303.799L305.788 249V251.691H304.618V249.796H301.81V251.691ZM302.021 248.626H304.407L303.226 245.35H303.202L302.021 248.626ZM307.187 243.501H312.335V244.671H310.346V251.691H309.176V244.671H307.187V243.501ZM313.735 243.501H318.883V244.671H316.894V250.521H318.883V251.691H313.735V250.521H315.724V244.671H313.735V243.501ZM323.324 250.51C323.839 250.51 324.26 250.089 324.26 249.574V245.607C324.26 245.081 323.851 244.671 323.324 244.671H322.388C321.862 244.671 321.452 245.093 321.452 245.607V249.574C321.452 250.089 321.873 250.51 322.388 250.51H323.324ZM320.282 249.574V245.607C320.282 244.437 321.23 243.501 322.388 243.501H323.324C324.494 243.501 325.43 244.437 325.43 245.607V249.574C325.43 250.732 324.494 251.691 323.324 251.691H322.388C321.23 251.691 320.282 250.732 320.282 249.574ZM330.808 243.501H331.978V251.691H330.281L328 245.467V251.691H326.83V243.501H328.526L330.808 249.726V243.501Z" fill="#D5E1E7"/>
<rect x="309.718" y="266.044" width="162" height="31.5" rx="15.75" stroke="#92A6B0" stroke-opacity="0.2" stroke-width="0.9"/>
<path opacity="0.6" d="M326.403 278.603H331.551V279.773H329.562V286.793H328.392V279.773H326.403V278.603ZM338.098 278.603V279.773H334.12V281.914H337.63V283.084H334.12V285.623H338.098V286.793H332.95V278.603H338.098ZM339.498 284.149H340.668V284.617C340.668 285.167 341.124 285.623 341.674 285.623H342.458C343.054 285.623 343.476 285.249 343.476 284.734C343.476 283.119 339.615 282.768 339.615 280.545C339.615 279.399 340.516 278.603 341.791 278.603H342.341C343.546 278.603 344.529 279.574 344.529 280.779V281.13H343.359V280.779C343.359 280.218 342.902 279.773 342.341 279.773H341.791C341.159 279.773 340.785 280.065 340.785 280.545C340.785 281.785 344.646 282.265 344.646 284.734C344.646 285.904 343.698 286.793 342.458 286.793H341.674C340.469 286.793 339.498 285.822 339.498 284.617V284.149ZM346.045 278.603H351.193V279.773H349.204V286.793H348.034V279.773H346.045V278.603ZM352.593 278.603H357.741V279.773H355.752V285.623H357.741V286.793H352.593V285.623H354.582V279.773H352.593V278.603ZM363.118 278.603H364.288V286.793H362.591L360.31 280.569V286.793H359.14V278.603H360.836L363.118 284.827V278.603ZM367.91 282.382H370.835V284.675C370.835 285.834 369.899 286.793 368.729 286.793H367.793C366.635 286.793 365.687 285.834 365.687 284.675V280.709C365.687 279.539 366.635 278.603 367.793 278.603H368.729C369.899 278.603 370.835 279.539 370.835 280.709V281.352H369.665V280.709C369.665 280.182 369.256 279.773 368.729 279.773H367.793C367.267 279.773 366.857 280.194 366.857 280.709V284.675C366.857 285.19 367.279 285.611 367.793 285.611H368.729C369.244 285.611 369.665 285.19 369.665 284.675V283.552H367.91V282.382Z" fill="#D5E1E7"/>
<rect x="361.018" y="301.141" width="162" height="30.6" rx="15.3" stroke="#92A6B0" stroke-opacity="0.2" stroke-width="0.9"/>
<path opacity="0.6" d="M380.746 320.26C381.26 320.26 381.682 319.839 381.682 319.324V315.357C381.682 314.831 381.272 314.421 380.746 314.421H379.81C379.283 314.421 378.874 314.843 378.874 315.357V319.324C378.874 319.839 379.295 320.26 379.81 320.26H380.746ZM377.704 319.324V315.357C377.704 314.187 378.651 313.251 379.81 313.251H380.746C381.916 313.251 382.852 314.187 382.852 315.357V319.324C382.852 320.482 381.916 321.441 380.746 321.441H379.81C378.651 321.441 377.704 320.482 377.704 319.324ZM389.399 316.059C389.399 317.229 388.463 318.165 387.293 318.165H385.421V321.441H384.251V313.251H387.293C388.463 313.251 389.399 314.187 389.399 315.357V316.059ZM385.421 316.995H387.293C387.82 316.995 388.229 316.586 388.229 316.059V315.357C388.229 314.831 387.82 314.421 387.293 314.421H385.421V316.995ZM390.798 313.251H395.946V314.421H393.957V321.441H392.787V314.421H390.798V313.251ZM397.346 313.251H402.494V314.421H400.505V320.271H402.494V321.441H397.346V320.271H399.335V314.421H397.346V313.251ZM406.151 318.142L405.063 315.825V321.441H403.893V313.251H405.063L406.467 316.305L407.871 313.251H409.041V321.441H407.871V315.825L406.783 318.142H406.151ZM410.441 313.251H415.589V314.421H413.6V320.271H415.589V321.441H410.441V320.271H412.43V314.421H410.441V313.251ZM416.988 318.797H418.158V319.265C418.158 319.815 418.614 320.271 419.164 320.271H419.948C420.545 320.271 420.966 319.897 420.966 319.382C420.966 317.768 417.105 317.417 417.105 315.194C417.105 314.047 418.006 313.251 419.281 313.251H419.831C421.036 313.251 422.019 314.223 422.019 315.428V315.779H420.849V315.428C420.849 314.866 420.393 314.421 419.831 314.421H419.281C418.65 314.421 418.275 314.714 418.275 315.194C418.275 316.434 422.136 316.914 422.136 319.382C422.136 320.552 421.188 321.441 419.948 321.441H419.164C417.959 321.441 416.988 320.47 416.988 319.265V318.797ZM424.706 321.441H423.536V318.75L425.525 313.251H426.695L428.684 318.75V321.441H427.514V319.546H424.706V321.441ZM424.916 318.376H427.303L426.121 315.1H426.098L424.916 318.376ZM430.083 313.251H435.231V314.421H433.242V321.441H432.072V314.421H430.083V313.251ZM436.63 313.251H441.778V314.421H439.789V320.271H441.778V321.441H436.63V320.271H438.619V314.421H436.63V313.251ZM446.22 320.26C446.735 320.26 447.156 319.839 447.156 319.324V315.357C447.156 314.831 446.746 314.421 446.22 314.421H445.284C444.757 314.421 444.348 314.843 444.348 315.357V319.324C444.348 319.839 444.769 320.26 445.284 320.26H446.22ZM443.178 319.324V315.357C443.178 314.187 444.126 313.251 445.284 313.251H446.22C447.39 313.251 448.326 314.187 448.326 315.357V319.324C448.326 320.482 447.39 321.441 446.22 321.441H445.284C444.126 321.441 443.178 320.482 443.178 319.324ZM453.703 313.251H454.873V321.441H453.177L450.895 315.217V321.441H449.725V313.251H451.422L453.703 319.476V313.251Z" fill="#D5E1E7"/>
<rect x="193.168" y="195.391" width="163.8" height="32.4" rx="16.2" fill="#66E8FA"/>
<path d="M210.303 213.946H211.473V214.414C211.473 214.964 211.929 215.42 212.479 215.42H213.263C213.86 215.42 214.281 215.045 214.281 214.531C214.281 212.916 210.42 212.565 210.42 210.342C210.42 209.195 211.321 208.4 212.596 208.4H213.146C214.351 208.4 215.334 209.371 215.334 210.576V210.927H214.164V210.576C214.164 210.014 213.708 209.57 213.146 209.57H212.596C211.965 209.57 211.59 209.862 211.59 210.342C211.59 211.582 215.451 212.062 215.451 214.531C215.451 215.701 214.503 216.59 213.263 216.59H212.479C211.274 216.59 210.303 215.619 210.303 214.414V213.946ZM216.851 208.4H221.999V209.57H220.01V216.59H218.84V209.57H216.851V208.4ZM228.546 216.59H227.259L225.773 213.314H224.568V216.59H223.398V208.4H226.44C227.61 208.4 228.546 209.336 228.546 210.506V211.208C228.546 212.179 227.903 212.986 227.013 213.232L228.546 216.59ZM224.568 212.144H226.44C226.967 212.144 227.376 211.734 227.376 211.208V210.506C227.376 209.979 226.967 209.57 226.44 209.57H224.568V212.144ZM231.115 216.59H229.945V213.899L231.934 208.4H233.104L235.093 213.899V216.59H233.923V214.694H231.115V216.59ZM231.326 213.524H233.713L232.531 210.248H232.508L231.326 213.524ZM236.493 208.4H241.641V209.57H239.652V216.59H238.482V209.57H236.493V208.4ZM248.188 208.4V209.57H244.21V211.711H247.72V212.881H244.21V215.42H248.188V216.59H243.04V208.4H248.188ZM251.811 212.179H254.736V214.472C254.736 215.63 253.8 216.59 252.63 216.59H251.694C250.535 216.59 249.588 215.63 249.588 214.472V210.506C249.588 209.336 250.535 208.4 251.694 208.4H252.63C253.8 208.4 254.736 209.336 254.736 210.506V211.149H253.566V210.506C253.566 209.979 253.156 209.57 252.63 209.57H251.694C251.167 209.57 250.758 209.991 250.758 210.506V214.472C250.758 214.987 251.179 215.408 251.694 215.408H252.63C253.145 215.408 253.566 214.987 253.566 214.472V213.349H251.811V212.179ZM258.124 216.59V213.677L256.135 211.208V208.4H257.305V210.787L258.686 212.507H258.709L260.113 210.67V208.4H261.283V211.067L259.294 213.677V216.59H258.124Z" fill="#3B4144"/>
<mask id="path-23-inside-1_6569_34711" fill="white">
<path d="M347.259 206.454C348.406 207.903 349.035 209.694 349.046 211.541C349.058 213.388 348.451 215.187 347.322 216.649C346.193 218.112 344.608 219.155 342.818 219.613C341.028 220.07 339.136 219.916 337.444 219.174C335.752 218.432 334.357 217.146 333.48 215.519C332.604 213.893 332.296 212.02 332.607 210.199C332.918 208.378 333.829 206.713 335.196 205.469C336.562 204.226 338.305 203.475 340.147 203.337L340.278 205.082C338.826 205.191 337.451 205.783 336.374 206.764C335.296 207.745 334.578 209.057 334.333 210.494C334.087 211.93 334.33 213.407 335.021 214.689C335.712 215.972 336.812 216.986 338.147 217.571C339.481 218.156 340.973 218.278 342.384 217.917C343.796 217.556 345.046 216.734 345.936 215.58C346.826 214.427 347.305 213.009 347.296 211.552C347.287 210.095 346.791 208.683 345.887 207.54L347.259 206.454Z"/>
</mask>
<path d="M347.259 206.454C348.406 207.903 349.035 209.694 349.046 211.541C349.058 213.388 348.451 215.187 347.322 216.649C346.193 218.112 344.608 219.155 342.818 219.613C341.028 220.07 339.136 219.916 337.444 219.174C335.752 218.432 334.357 217.146 333.48 215.519C332.604 213.893 332.296 212.02 332.607 210.199C332.918 208.378 333.829 206.713 335.196 205.469C336.562 204.226 338.305 203.475 340.147 203.337L340.278 205.082C338.826 205.191 337.451 205.783 336.374 206.764C335.296 207.745 334.578 209.057 334.333 210.494C334.087 211.93 334.33 213.407 335.021 214.689C335.712 215.972 336.812 216.986 338.147 217.571C339.481 218.156 340.973 218.278 342.384 217.917C343.796 217.556 345.046 216.734 345.936 215.58C346.826 214.427 347.305 213.009 347.296 211.552C347.287 210.095 346.791 208.683 345.887 207.54L347.259 206.454Z" stroke="#252829" stroke-width="1.8" mask="url(#path-23-inside-1_6569_34711)"/>
<rect opacity="0.3" x="336.814" y="207.637" width="7.90364" height="7.90364" rx="3.95182" fill="#252829"/>
<rect x="135.568" y="160.293" width="162.9" height="32.4" rx="16.2" fill="#92A6B0"/>
<path d="M154.962 178.193L153.874 175.876V181.492H152.704V173.302H153.874L155.278 176.356L156.682 173.302H157.852V181.492H156.682V175.876L155.593 178.193H154.962ZM160.421 181.492H159.251V178.801L161.24 173.302H162.41L164.399 178.801V181.492H163.229V179.597H160.421V181.492ZM160.632 178.427H163.018L161.837 175.151H161.813L160.632 178.427ZM170.946 176.11C170.946 177.28 170.01 178.216 168.84 178.216H166.968V181.492H165.798V173.302H168.84C170.01 173.302 170.946 174.238 170.946 175.408V176.11ZM166.968 177.046H168.84C169.367 177.046 169.776 176.637 169.776 176.11V175.408C169.776 174.882 169.367 174.472 168.84 174.472H166.968V177.046ZM177.494 176.11C177.494 177.28 176.558 178.216 175.388 178.216H173.516V181.492H172.346V173.302H175.388C176.558 173.302 177.494 174.238 177.494 175.408V176.11ZM173.516 177.046H175.388C175.914 177.046 176.324 176.637 176.324 176.11V175.408C176.324 174.882 175.914 174.472 175.388 174.472H173.516V177.046ZM178.893 173.302H184.041V174.472H182.052V180.322H184.041V181.492H178.893V180.322H180.882V174.472H178.893V173.302ZM189.419 173.302H190.589V181.492H188.892L186.611 175.268V181.492H185.441V173.302H187.137L189.419 179.527V173.302ZM194.211 177.081H197.136V179.374C197.136 180.533 196.2 181.492 195.03 181.492H194.094C192.936 181.492 191.988 180.533 191.988 179.374V175.408C191.988 174.238 192.936 173.302 194.094 173.302H195.03C196.2 173.302 197.136 174.238 197.136 175.408V176.052H195.966V175.408C195.966 174.882 195.557 174.472 195.03 174.472H194.094C193.568 174.472 193.158 174.893 193.158 175.408V179.374C193.158 179.889 193.579 180.31 194.094 180.31H195.03C195.545 180.31 195.966 179.889 195.966 179.374V178.251H194.211V177.081Z" fill="#252829"/>
<path d="M275.969 176.231L278.671 178.935L283.552 174.055" stroke="#ABFDBE" stroke-width="1.8"/>
<rect x="77.9688" y="125.191" width="162" height="32.4" rx="16.2" fill="#92A6B0"/>
<path d="M98.146 138.201C99.3043 138.201 100.252 139.137 100.252 140.307V144.273C100.252 145.431 99.3043 146.391 98.146 146.391H95.104V138.201H98.146ZM96.274 145.209H98.146C98.6608 145.209 99.082 144.788 99.082 144.273V140.307C99.082 139.792 98.6725 139.371 98.146 139.371H96.274V145.209ZM101.651 138.201H106.799V139.371H104.81V145.221H106.799V146.391H101.651V145.221H103.64V139.371H101.651V138.201ZM108.199 143.746H109.369V144.214C109.369 144.764 109.825 145.221 110.375 145.221H111.159C111.756 145.221 112.177 144.846 112.177 144.331C112.177 142.717 108.316 142.366 108.316 140.143C108.316 138.996 109.217 138.201 110.492 138.201H111.042C112.247 138.201 113.23 139.172 113.23 140.377V140.728H112.06V140.377C112.06 139.815 111.604 139.371 111.042 139.371H110.492C109.86 139.371 109.486 139.663 109.486 140.143C109.486 141.383 113.347 141.863 113.347 144.331C113.347 145.501 112.399 146.391 111.159 146.391H110.375C109.17 146.391 108.199 145.42 108.199 144.214V143.746ZM118.724 140.307C118.724 139.78 118.315 139.371 117.788 139.371H116.852C116.326 139.371 115.916 139.792 115.916 140.307V144.273C115.916 144.788 116.337 145.209 116.852 145.209H117.788C118.303 145.209 118.724 144.788 118.724 144.273V143.629H119.894V144.273C119.894 145.431 118.958 146.391 117.788 146.391H116.852C115.694 146.391 114.746 145.431 114.746 144.273V140.307C114.746 139.137 115.694 138.201 116.852 138.201H117.788C118.958 138.201 119.894 139.137 119.894 140.307V140.95H118.724V140.307ZM124.336 145.209C124.85 145.209 125.272 144.788 125.272 144.273V140.307C125.272 139.78 124.862 139.371 124.336 139.371H123.4C122.873 139.371 122.464 139.792 122.464 140.307V144.273C122.464 144.788 122.885 145.209 123.4 145.209H124.336ZM121.294 144.273V140.307C121.294 139.137 122.241 138.201 123.4 138.201H124.336C125.506 138.201 126.442 139.137 126.442 140.307V144.273C126.442 145.431 125.506 146.391 124.336 146.391H123.4C122.241 146.391 121.294 145.431 121.294 144.273ZM131.819 138.201H132.989V140.892L131 146.391H129.83L127.841 140.892V138.201H129.011V140.681L130.403 144.542H130.427L131.819 140.681V138.201ZM139.537 138.201V139.371H135.559V141.512H139.069V142.682H135.559V145.221H139.537V146.391H134.389V138.201H139.537ZM146.084 146.391H144.797L143.311 143.115H142.106V146.391H140.936V138.201H143.978C145.148 138.201 146.084 139.137 146.084 140.307V141.009C146.084 141.98 145.44 142.787 144.551 143.033L146.084 146.391ZM142.106 141.945H143.978C144.504 141.945 144.914 141.535 144.914 141.009V140.307C144.914 139.78 144.504 139.371 143.978 139.371H142.106V141.945ZM149.472 146.391V143.477L147.483 141.009V138.201H148.653V140.587L150.034 142.307H150.057L151.461 140.47V138.201H152.631V140.868L150.642 143.477V146.391H149.472Z" fill="#252829"/>
<path d="M217.469 141.13L220.171 143.834L225.052 138.953" stroke="#ABFDBE" stroke-width="1.8"/>
</svg>
