<svg width="601" height="450" viewBox="0 0 601 450" fill="none" xmlns="http://www.w3.org/2000/svg">
<g clip-path="url(#clip0_6569_35637)">
<rect x="113.938" y="200.551" width="426.518" height="324.025" rx="12" fill="#92A6B0"/>
<path d="M154.643 240.424C154.643 239.852 154.79 239.349 155.085 238.916C155.38 238.482 155.787 238.144 156.307 237.902C156.827 237.65 157.421 237.525 158.088 237.525C158.755 237.525 159.332 237.642 159.817 237.876C160.311 238.11 160.692 238.443 160.961 238.877C161.23 239.301 161.368 239.808 161.377 240.398H159.505C159.496 240.025 159.362 239.735 159.102 239.527C158.851 239.31 158.508 239.202 158.075 239.202C157.607 239.202 157.23 239.306 156.944 239.514C156.658 239.713 156.515 239.995 156.515 240.359C156.515 240.679 156.602 240.926 156.775 241.1C156.948 241.273 157.217 241.399 157.581 241.477L159.063 241.802C159.895 241.975 160.515 242.274 160.922 242.699C161.329 243.123 161.533 243.704 161.533 244.441C161.533 245.039 161.386 245.563 161.091 246.014C160.796 246.464 160.38 246.815 159.843 247.067C159.306 247.309 158.677 247.431 157.958 247.431C157.273 247.431 156.671 247.314 156.151 247.08C155.631 246.846 155.228 246.512 154.942 246.079C154.656 245.645 154.509 245.138 154.5 244.558H156.372C156.381 244.93 156.524 245.225 156.801 245.442C157.078 245.65 157.468 245.754 157.971 245.754C158.491 245.754 158.898 245.654 159.193 245.455C159.496 245.247 159.648 244.969 159.648 244.623C159.648 244.319 159.57 244.085 159.414 243.921C159.267 243.747 159.015 243.626 158.66 243.557L157.165 243.245C156.333 243.071 155.705 242.751 155.28 242.283C154.855 241.806 154.643 241.186 154.643 240.424ZM165.285 247.431C164.644 247.431 164.072 247.288 163.569 247.002C163.075 246.707 162.685 246.304 162.399 245.793C162.113 245.281 161.97 244.692 161.97 244.025C161.97 243.349 162.109 242.755 162.386 242.244C162.663 241.732 163.049 241.334 163.543 241.048C164.037 240.753 164.605 240.606 165.246 240.606C165.905 240.606 166.472 240.744 166.949 241.022C167.434 241.29 167.807 241.676 168.067 242.179C168.336 242.681 168.47 243.279 168.47 243.973V244.467L162.919 244.48L162.945 243.362H166.689C166.689 242.963 166.559 242.647 166.299 242.413C166.048 242.179 165.701 242.062 165.259 242.062C164.895 242.062 164.596 242.135 164.362 242.283C164.137 242.421 163.963 242.638 163.842 242.933C163.721 243.219 163.66 243.583 163.66 244.025C163.66 244.675 163.799 245.16 164.076 245.481C164.353 245.801 164.769 245.962 165.324 245.962C165.731 245.962 166.065 245.892 166.325 245.754C166.594 245.606 166.767 245.398 166.845 245.13H168.496C168.375 245.832 168.024 246.391 167.443 246.807C166.871 247.223 166.152 247.431 165.285 247.431ZM171.114 247.262H169.32V237.525H171.114V247.262ZM175.245 247.431C174.604 247.431 174.032 247.288 173.529 247.002C173.035 246.707 172.645 246.304 172.359 245.793C172.073 245.281 171.93 244.692 171.93 244.025C171.93 243.349 172.069 242.755 172.346 242.244C172.624 241.732 173.009 241.334 173.503 241.048C173.997 240.753 174.565 240.606 175.206 240.606C175.865 240.606 176.433 240.744 176.909 241.022C177.395 241.29 177.767 241.676 178.027 242.179C178.296 242.681 178.43 243.279 178.43 243.973V244.467L172.879 244.48L172.905 243.362H176.649C176.649 242.963 176.519 242.647 176.259 242.413C176.008 242.179 175.661 242.062 175.219 242.062C174.855 242.062 174.556 242.135 174.322 242.283C174.097 242.421 173.924 242.638 173.802 242.933C173.681 243.219 173.62 243.583 173.62 244.025C173.62 244.675 173.759 245.16 174.036 245.481C174.314 245.801 174.73 245.962 175.284 245.962C175.692 245.962 176.025 245.892 176.285 245.754C176.554 245.606 176.727 245.398 176.805 245.13H178.456C178.335 245.832 177.984 246.391 177.403 246.807C176.831 247.223 176.112 247.431 175.245 247.431ZM178.904 244.012C178.904 243.344 179.042 242.755 179.32 242.244C179.606 241.732 179.991 241.334 180.477 241.048C180.971 240.753 181.538 240.606 182.18 240.606C183.098 240.606 183.848 240.844 184.429 241.321C185.009 241.789 185.334 242.43 185.404 243.245H183.597C183.519 242.889 183.363 242.629 183.129 242.465C182.903 242.291 182.609 242.205 182.245 242.205C181.941 242.205 181.673 242.278 181.439 242.426C181.205 242.573 181.023 242.781 180.893 243.05C180.771 243.318 180.711 243.639 180.711 244.012C180.711 244.384 180.771 244.709 180.893 244.987C181.014 245.255 181.187 245.463 181.413 245.611C181.638 245.749 181.907 245.819 182.219 245.819C182.591 245.819 182.895 245.732 183.129 245.559C183.371 245.385 183.532 245.13 183.61 244.792H185.404C185.352 245.312 185.183 245.771 184.897 246.17C184.611 246.56 184.238 246.867 183.779 247.093C183.319 247.318 182.799 247.431 182.219 247.431C181.551 247.431 180.966 247.288 180.464 247.002C179.97 246.716 179.584 246.317 179.307 245.806C179.038 245.294 178.904 244.696 178.904 244.012ZM185.528 240.801H189.805V242.296H185.528V240.801ZM188.557 247.262H186.776V238.786H188.557V247.262ZM193.434 250.304V240.801H195.098L195.202 241.685C195.393 241.347 195.683 241.082 196.073 240.892C196.463 240.701 196.892 240.606 197.36 240.606C197.967 240.606 198.495 240.74 198.946 241.009C199.405 241.277 199.761 241.663 200.012 242.166C200.272 242.66 200.402 243.253 200.402 243.947C200.402 244.623 200.281 245.225 200.038 245.754C199.804 246.274 199.462 246.685 199.011 246.989C198.56 247.292 198.014 247.444 197.373 247.444C196.905 247.444 196.476 247.357 196.086 247.184C195.705 247.01 195.414 246.785 195.215 246.508V250.304H193.434ZM195.228 244.038C195.228 244.384 195.297 244.696 195.436 244.974C195.583 245.242 195.783 245.45 196.034 245.598C196.294 245.745 196.593 245.819 196.931 245.819C197.278 245.819 197.572 245.745 197.815 245.598C198.066 245.442 198.257 245.229 198.387 244.961C198.526 244.692 198.595 244.384 198.595 244.038C198.595 243.682 198.526 243.37 198.387 243.102C198.257 242.833 198.066 242.625 197.815 242.478C197.572 242.322 197.278 242.244 196.931 242.244C196.593 242.244 196.294 242.317 196.034 242.465C195.783 242.612 195.583 242.82 195.436 243.089C195.297 243.357 195.228 243.674 195.228 244.038ZM205.458 240.788V242.465H204.847C204.275 242.465 203.824 242.612 203.495 242.907C203.165 243.201 203.001 243.665 203.001 244.298V247.262H201.22V240.814H202.897L203.04 242.179H202.884C202.97 241.745 203.17 241.39 203.482 241.113C203.794 240.835 204.21 240.697 204.73 240.697C204.851 240.697 204.968 240.705 205.081 240.723C205.202 240.731 205.328 240.753 205.458 240.788ZM205.543 244.025C205.543 243.349 205.695 242.755 205.998 242.244C206.302 241.724 206.718 241.321 207.246 241.035C207.775 240.749 208.382 240.606 209.066 240.606C209.742 240.606 210.34 240.749 210.86 241.035C211.389 241.321 211.805 241.724 212.108 242.244C212.412 242.755 212.563 243.349 212.563 244.025C212.563 244.701 212.412 245.294 212.108 245.806C211.805 246.308 211.389 246.703 210.86 246.989C210.34 247.275 209.742 247.418 209.066 247.418C208.382 247.418 207.775 247.275 207.246 246.989C206.718 246.703 206.302 246.308 205.998 245.806C205.695 245.294 205.543 244.701 205.543 244.025ZM207.35 244.012C207.35 244.367 207.424 244.683 207.571 244.961C207.719 245.229 207.918 245.437 208.169 245.585C208.429 245.732 208.728 245.806 209.066 245.806C209.404 245.806 209.699 245.732 209.95 245.585C210.202 245.437 210.397 245.229 210.535 244.961C210.683 244.683 210.756 244.367 210.756 244.012C210.756 243.648 210.683 243.331 210.535 243.063C210.397 242.794 210.202 242.586 209.95 242.439C209.699 242.291 209.404 242.218 209.066 242.218C208.728 242.218 208.429 242.291 208.169 242.439C207.918 242.586 207.719 242.794 207.571 243.063C207.424 243.331 207.35 243.648 207.35 244.012ZM216.054 247.431C215.43 247.431 214.888 247.292 214.429 247.015C213.978 246.729 213.627 246.334 213.376 245.832C213.125 245.329 212.999 244.74 212.999 244.064C212.999 243.379 213.125 242.777 213.376 242.257C213.636 241.737 214 241.334 214.468 241.048C214.945 240.753 215.508 240.606 216.158 240.606C216.591 240.606 216.986 240.688 217.341 240.853C217.705 241.009 217.987 241.23 218.186 241.516V237.525H219.98V247.262H218.303L218.199 246.339C218.017 246.668 217.731 246.932 217.341 247.132C216.96 247.331 216.531 247.431 216.054 247.431ZM216.47 245.793C216.808 245.793 217.103 245.719 217.354 245.572C217.614 245.416 217.813 245.203 217.952 244.935C218.099 244.666 218.173 244.354 218.173 243.999C218.173 243.635 218.099 243.323 217.952 243.063C217.813 242.794 217.614 242.586 217.354 242.439C217.103 242.283 216.808 242.205 216.47 242.205C216.132 242.205 215.837 242.283 215.586 242.439C215.335 242.595 215.14 242.807 215.001 243.076C214.871 243.336 214.806 243.643 214.806 243.999C214.806 244.354 214.871 244.666 215.001 244.935C215.14 245.195 215.335 245.403 215.586 245.559C215.837 245.715 216.132 245.793 216.47 245.793ZM225.491 240.801H227.285V247.262H225.608L225.478 246.469C225.287 246.755 225.001 246.989 224.62 247.171C224.247 247.344 223.857 247.431 223.45 247.431C222.713 247.431 222.133 247.201 221.708 246.742C221.292 246.274 221.084 245.641 221.084 244.844V240.801H222.878V244.207C222.878 244.779 222.982 245.195 223.19 245.455C223.407 245.706 223.727 245.832 224.152 245.832C224.62 245.832 224.958 245.697 225.166 245.429C225.383 245.16 225.491 244.74 225.491 244.168V240.801ZM227.974 244.012C227.974 243.344 228.113 242.755 228.39 242.244C228.676 241.732 229.062 241.334 229.547 241.048C230.041 240.753 230.609 240.606 231.25 240.606C232.169 240.606 232.918 240.844 233.499 241.321C234.08 241.789 234.405 242.43 234.474 243.245H232.667C232.589 242.889 232.433 242.629 232.199 242.465C231.974 242.291 231.679 242.205 231.315 242.205C231.012 242.205 230.743 242.278 230.509 242.426C230.275 242.573 230.093 242.781 229.963 243.05C229.842 243.318 229.781 243.639 229.781 244.012C229.781 244.384 229.842 244.709 229.963 244.987C230.084 245.255 230.258 245.463 230.483 245.611C230.708 245.749 230.977 245.819 231.289 245.819C231.662 245.819 231.965 245.732 232.199 245.559C232.442 245.385 232.602 245.13 232.68 244.792H234.474C234.422 245.312 234.253 245.771 233.967 246.17C233.681 246.56 233.308 246.867 232.849 247.093C232.39 247.318 231.87 247.431 231.289 247.431C230.622 247.431 230.037 247.288 229.534 247.002C229.04 246.716 228.654 246.317 228.377 245.806C228.108 245.294 227.974 244.696 227.974 244.012ZM234.598 240.801H238.875V242.296H234.598V240.801ZM237.627 247.262H235.846V238.786H237.627V247.262ZM241.867 240.801H246.144V242.296H241.867V240.801ZM244.896 247.262H243.115V238.786H244.896V247.262ZM247.893 240.801L249.895 246.573L248.972 248.549L245.982 240.801H247.893ZM246.151 250.304V248.809H247.178C247.395 248.809 247.577 248.783 247.724 248.731C247.88 248.679 248.015 248.588 248.127 248.458C248.24 248.336 248.344 248.154 248.439 247.912L251.078 240.801H252.937L249.726 248.679C249.466 249.311 249.15 249.766 248.777 250.044C248.413 250.33 247.954 250.473 247.399 250.473C247.174 250.473 246.957 250.46 246.749 250.434C246.541 250.408 246.342 250.364 246.151 250.304ZM253.417 250.304V240.801H255.081L255.185 241.685C255.375 241.347 255.666 241.082 256.056 240.892C256.446 240.701 256.875 240.606 257.343 240.606C257.949 240.606 258.478 240.74 258.929 241.009C259.388 241.277 259.743 241.663 259.995 242.166C260.255 242.66 260.385 243.253 260.385 243.947C260.385 244.623 260.263 245.225 260.021 245.754C259.787 246.274 259.444 246.685 258.994 246.989C258.543 247.292 257.997 247.444 257.356 247.444C256.888 247.444 256.459 247.357 256.069 247.184C255.687 247.01 255.397 246.785 255.198 246.508V250.304H253.417ZM255.211 244.038C255.211 244.384 255.28 244.696 255.419 244.974C255.566 245.242 255.765 245.45 256.017 245.598C256.277 245.745 256.576 245.819 256.914 245.819C257.26 245.819 257.555 245.745 257.798 245.598C258.049 245.442 258.24 245.229 258.37 244.961C258.508 244.692 258.578 244.384 258.578 244.038C258.578 243.682 258.508 243.37 258.37 243.102C258.24 242.833 258.049 242.625 257.798 242.478C257.555 242.322 257.26 242.244 256.914 242.244C256.576 242.244 256.277 242.317 256.017 242.465C255.765 242.612 255.566 242.82 255.419 243.089C255.28 243.357 255.211 243.674 255.211 244.038ZM264.14 247.431C263.499 247.431 262.927 247.288 262.424 247.002C261.93 246.707 261.54 246.304 261.254 245.793C260.968 245.281 260.825 244.692 260.825 244.025C260.825 243.349 260.964 242.755 261.241 242.244C261.519 241.732 261.904 241.334 262.398 241.048C262.892 240.753 263.46 240.606 264.101 240.606C264.76 240.606 265.328 240.744 265.804 241.022C266.29 241.29 266.662 241.676 266.922 242.179C267.191 242.681 267.325 243.279 267.325 243.973V244.467L261.774 244.48L261.8 243.362H265.544C265.544 242.963 265.414 242.647 265.154 242.413C264.903 242.179 264.556 242.062 264.114 242.062C263.75 242.062 263.451 242.135 263.217 242.283C262.992 242.421 262.819 242.638 262.697 242.933C262.576 243.219 262.515 243.583 262.515 244.025C262.515 244.675 262.654 245.16 262.931 245.481C263.209 245.801 263.625 245.962 264.179 245.962C264.587 245.962 264.92 245.892 265.18 245.754C265.449 245.606 265.622 245.398 265.7 245.13H267.351C267.23 245.832 266.879 246.391 266.298 246.807C265.726 247.223 265.007 247.431 264.14 247.431Z" fill="#252829"/>
<rect x="60.1953" y="200.551" width="51.7418" height="449.028" rx="12" fill="#92A6B0"/>
<path d="M67.2852 264.293C67.2852 260.576 70.3909 257.562 74.222 257.562H97.8908C101.722 257.562 104.828 260.576 104.828 264.293V288.236C104.828 291.953 101.722 294.967 97.8908 294.967H74.222C70.3909 294.967 67.2852 291.953 67.2852 288.236V264.293Z" fill="#B3C3CB"/>
<g opacity="0.8" clip-path="url(#clip1_6569_35637)">
<path d="M91.1797 232.609C91.8391 232.609 92.4896 232.762 93.0794 233.057C93.6692 233.352 94.1821 233.78 94.5774 234.308" stroke="#252829" stroke-width="1.13256" stroke-linecap="round" stroke-linejoin="round"/>
<path d="M78.7207 234.308C79.116 233.78 79.6289 233.352 80.2187 233.057C80.8085 232.762 81.459 232.609 82.1184 232.609" stroke="#252829" stroke-width="1.13256" stroke-linecap="round" stroke-linejoin="round"/>
<path d="M86.6459 237.139C88.2096 237.139 89.4773 235.872 89.4773 234.308C89.4773 232.744 88.2096 231.477 86.6459 231.477C85.0821 231.477 83.8145 232.744 83.8145 234.308C83.8145 235.872 85.0821 237.139 86.6459 237.139Z" stroke="#252829" stroke-width="1.13256" stroke-linecap="round" stroke-linejoin="round"/>
<path d="M82.6875 239.406C83.094 238.716 83.6735 238.144 84.3687 237.747C85.0639 237.35 85.8508 237.141 86.6515 237.141C87.4522 237.141 88.239 237.35 88.9342 237.747C89.6294 238.144 90.2089 238.716 90.6154 239.406" stroke="#252829" stroke-width="1.13256" stroke-linecap="round" stroke-linejoin="round"/>
<path d="M88.9863 229.781C89.0922 229.371 89.311 228.998 89.6179 228.706C89.9247 228.414 90.3073 228.214 90.7222 228.129C91.137 228.043 91.5676 228.076 91.9649 228.223C92.3622 228.369 92.7104 228.625 92.9699 228.96C93.2294 229.294 93.3898 229.695 93.4329 230.117C93.476 230.538 93.4 230.963 93.2137 231.344C93.0274 231.724 92.7381 232.045 92.3787 232.269C92.0193 232.493 91.6043 232.612 91.1807 232.612" stroke="#252829" stroke-width="1.13256" stroke-linecap="round" stroke-linejoin="round"/>
<path d="M82.1214 232.612C81.6978 232.612 81.2827 232.493 80.9234 232.269C80.564 232.045 80.2747 231.724 80.0884 231.344C79.902 230.963 79.8261 230.538 79.8692 230.117C79.9123 229.695 80.0727 229.294 80.3322 228.96C80.5916 228.625 80.9398 228.369 81.3372 228.223C81.7345 228.076 82.165 228.043 82.5799 228.129C82.9948 228.214 83.3774 228.414 83.6842 228.706C83.991 228.998 84.2098 229.371 84.3157 229.781" stroke="#252829" stroke-width="1.13256" stroke-linecap="round" stroke-linejoin="round"/>
</g>
<g clip-path="url(#clip2_6569_35637)">
<path d="M86.6504 276.402V283.85" stroke="#252829" stroke-width="1.1583" stroke-linecap="round" stroke-linejoin="round"/>
<path d="M79.752 272.625L86.6511 276.401L93.5502 272.625" stroke="#252829" stroke-width="1.1583" stroke-linecap="round" stroke-linejoin="round"/>
<path d="M93.3016 280.291L86.9309 283.779C86.8457 283.825 86.7501 283.85 86.6529 283.85C86.5558 283.85 86.4602 283.825 86.3749 283.779L80.0043 280.291C79.9133 280.241 79.8374 280.168 79.7844 280.078C79.7314 279.989 79.7034 279.888 79.7031 279.784V272.859C79.7034 272.755 79.7314 272.653 79.7844 272.564C79.8374 272.475 79.9133 272.402 80.0043 272.352L86.3749 268.864C86.4602 268.817 86.5558 268.793 86.6529 268.793C86.7501 268.793 86.8457 268.817 86.9309 268.864L93.3016 272.352C93.3925 272.402 93.4685 272.475 93.5214 272.564C93.5744 272.653 93.6025 272.755 93.6027 272.859V279.782C93.6027 279.886 93.5748 279.988 93.5218 280.078C93.4688 280.167 93.3927 280.241 93.3016 280.291Z" stroke="#252829" stroke-width="1.1583" stroke-linecap="round" stroke-linejoin="round"/>
<path d="M83.2891 270.551L90.1259 274.293V278.057" stroke="#252829" stroke-width="1.1583" stroke-linecap="round" stroke-linejoin="round"/>
</g>
<g opacity="0.78">
<path opacity="0.2" d="M79.293 321.523L85.7833 325.137C86.3228 325.438 86.9793 325.438 87.5189 325.137L94.0092 321.523" stroke="#252829" stroke-width="1.33784" stroke-linecap="round" stroke-linejoin="round"/>
<path opacity="0.5" d="M79.293 318.016L85.7833 321.63C86.3228 321.93 86.9793 321.93 87.5189 321.63L94.0092 318.016" stroke="#252829" stroke-width="1.33784" stroke-linecap="round" stroke-linejoin="round"/>
<path d="M79.9927 314.11C79.6874 314.28 79.6874 314.719 79.9927 314.889L85.3494 317.872C86.1587 318.322 87.1435 318.322 87.9527 317.872L93.3094 314.889C93.6148 314.719 93.6148 314.28 93.3094 314.11L87.9527 311.127C87.1435 310.677 86.1587 310.677 85.3494 311.127L79.9927 314.11Z" stroke="#252829" stroke-width="1.33784" stroke-linecap="round" stroke-linejoin="round"/>
</g>
<g opacity="0.4" clip-path="url(#clip3_6569_35637)">
<path d="M94.1809 362.02H79.123" stroke="#252829" stroke-width="1.1583" stroke-linecap="round" stroke-linejoin="round"/>
<path d="M79.123 362.02L80.7512 355.509C80.7825 355.384 80.8548 355.272 80.9566 355.193C81.0584 355.114 81.1838 355.07 81.313 355.07H91.991C92.1202 355.07 92.2456 355.114 92.3474 355.193C92.4492 355.272 92.5215 355.384 92.5528 355.509L94.1809 362.02V364.337C94.1809 364.49 94.1199 364.638 94.0113 364.746C93.9027 364.855 93.7554 364.916 93.6018 364.916H79.7022C79.5486 364.916 79.4013 364.855 79.2927 364.746C79.1841 364.638 79.123 364.49 79.123 364.337V362.02Z" stroke="#252829" stroke-width="1.1583" stroke-linecap="round" stroke-linejoin="round"/>
<path d="M82.5996 357.387H83.7579" stroke="#252829" stroke-width="1.1583" stroke-linecap="round" stroke-linejoin="round"/>
<path d="M86.0742 357.387H87.2325" stroke="#252829" stroke-width="1.1583" stroke-linecap="round" stroke-linejoin="round"/>
<path d="M89.5469 357.387H90.7052" stroke="#252829" stroke-width="1.1583" stroke-linecap="round" stroke-linejoin="round"/>
<path d="M82.5996 359.703H83.7579" stroke="#252829" stroke-width="1.1583" stroke-linecap="round" stroke-linejoin="round"/>
<path d="M86.0742 359.703H87.2325" stroke="#252829" stroke-width="1.1583" stroke-linecap="round" stroke-linejoin="round"/>
<path d="M89.5469 359.703H90.7052" stroke="#252829" stroke-width="1.1583" stroke-linecap="round" stroke-linejoin="round"/>
<path d="M82.5996 355.071V353.333C82.5996 353.179 82.6606 353.032 82.7692 352.924C82.8779 352.815 83.0252 352.754 83.1788 352.754H86.0745C86.2281 352.754 86.3754 352.815 86.484 352.924C86.5926 353.032 86.6537 353.179 86.6537 353.333V355.071" stroke="#252829" stroke-width="1.1583" stroke-linecap="round" stroke-linejoin="round"/>
</g>
<g opacity="0.3" clip-path="url(#clip4_6569_35637)">
<path d="M90.9956 407.106H83.9857C83.7145 407.106 83.4518 407.011 83.2436 406.837C83.0354 406.663 82.8947 406.422 82.8463 406.155L80.9133 395.523H79.123" stroke="#252829" stroke-width="1.1583" stroke-linecap="round" stroke-linejoin="round"/>
<path d="M84.0475 410.001C84.8471 410.001 85.4954 409.353 85.4954 408.553C85.4954 407.754 84.8471 407.105 84.0475 407.105C83.2478 407.105 82.5996 407.754 82.5996 408.553C82.5996 409.353 83.2478 410.001 84.0475 410.001Z" stroke="#252829" stroke-width="1.1583" stroke-linecap="round" stroke-linejoin="round"/>
<path d="M90.9948 410.001C91.7944 410.001 92.4426 409.353 92.4426 408.553C92.4426 407.754 91.7944 407.105 90.9948 407.105C90.1951 407.105 89.5469 407.754 89.5469 408.553C89.5469 409.353 90.1951 410.001 90.9948 410.001Z" stroke="#252829" stroke-width="1.1583" stroke-linecap="round" stroke-linejoin="round"/>
<path d="M82.4908 404.209H91.5799C91.8511 404.209 92.1138 404.114 92.322 403.94C92.5302 403.767 92.6709 403.525 92.7193 403.258L93.5997 398.418H81.4375" stroke="#252829" stroke-width="1.1583" stroke-linecap="round" stroke-linejoin="round"/>
</g>
<g opacity="0.1" clip-path="url(#clip5_6569_35637)">
<path d="M87.2291 452.774V439.454C87.229 439.349 87.2005 439.246 87.1466 439.156C87.0927 439.066 87.0154 438.993 86.923 438.943C86.8305 438.894 86.7264 438.871 86.6217 438.876C86.5171 438.881 86.4157 438.914 86.3285 438.972L80.537 442.833C80.4576 442.886 80.3925 442.958 80.3475 443.042C80.3026 443.126 80.2791 443.221 80.2793 443.316V452.774" stroke="black" stroke-width="1.1583" stroke-linecap="round" stroke-linejoin="round"/>
<path d="M87.2305 443.508H92.4428C92.5964 443.508 92.7437 443.569 92.8523 443.677C92.961 443.786 93.022 443.933 93.022 444.087V452.774" stroke="black" stroke-width="1.1583" stroke-linecap="round" stroke-linejoin="round"/>
<path d="M84.918 445.242V446.4" stroke="black" stroke-width="1.1583" stroke-linecap="round" stroke-linejoin="round"/>
<path d="M82.5996 445.242V446.4" stroke="black" stroke-width="1.1583" stroke-linecap="round" stroke-linejoin="round"/>
<path d="M82.5996 449.301V450.459" stroke="black" stroke-width="1.1583" stroke-linecap="round" stroke-linejoin="round"/>
<path d="M84.918 449.301V450.459" stroke="black" stroke-width="1.1583" stroke-linecap="round" stroke-linejoin="round"/>
</g>
<rect x="448.191" y="407.297" width="51.9575" height="24" rx="7" fill="#9BF7FF"/>
<path d="M460.811 415.597H461.911V423.297H460.316L458.171 417.445V423.297H457.071V415.597H458.666L460.811 421.449V415.597ZM467.507 415.597V416.697H463.767V418.71H467.067V419.81H463.767V422.197H467.507V423.297H462.667V415.597H467.507ZM468.263 423.297L470.078 419.447L468.263 415.597H469.473L470.683 418.16L471.893 415.597H473.103L471.288 419.447L473.103 423.297H471.893L470.683 420.734L469.473 423.297H468.263ZM473.859 415.597H478.699V416.697H476.829V423.297H475.729V416.697H473.859V415.597Z" fill="#252829"/>
<path fill-rule="evenodd" clip-rule="evenodd" d="M490.349 419.855L487.191 419.855L487.191 418.718L490.349 418.718L488.791 417.16L489.595 416.356L491.882 418.643C492.238 418.999 492.238 419.575 491.882 419.93L489.574 422.238L488.77 421.434L490.349 419.855Z" fill="#252829"/>
<g opacity="0.7">
<path d="M404.768 417.577C404.768 417.082 404.383 416.697 403.888 416.697H403.008C402.513 416.697 402.128 417.093 402.128 417.577V421.306C402.128 421.79 402.524 422.186 403.008 422.186H403.888C404.372 422.186 404.768 421.79 404.768 421.306V420.701H405.868V421.306C405.868 422.395 404.988 423.297 403.888 423.297H403.008C401.919 423.297 401.028 422.395 401.028 421.306V417.577C401.028 416.477 401.919 415.597 403.008 415.597H403.888C404.988 415.597 405.868 416.477 405.868 417.577V418.182H404.768V417.577ZM407.724 423.297H406.624V420.767L408.494 415.597H409.594L411.464 420.767V423.297H410.364V421.515H407.724V423.297ZM407.922 420.415H410.166L409.055 417.335H409.033L407.922 420.415ZM415.96 415.597H417.06V423.297H415.465L413.32 417.445V423.297H412.22V415.597H413.815L415.96 421.449V415.597ZM421.556 417.577C421.556 417.082 421.171 416.697 420.676 416.697H419.796C419.301 416.697 418.916 417.093 418.916 417.577V421.306C418.916 421.79 419.312 422.186 419.796 422.186H420.676C421.16 422.186 421.556 421.79 421.556 421.306V420.701H422.656V421.306C422.656 422.395 421.776 423.297 420.676 423.297H419.796C418.707 423.297 417.816 422.395 417.816 421.306V417.577C417.816 416.477 418.707 415.597 419.796 415.597H420.676C421.776 415.597 422.656 416.477 422.656 417.577V418.182H421.556V417.577ZM428.251 415.597V416.697H424.511V418.71H427.811V419.81H424.511V422.197H428.251V423.297H423.411V415.597H428.251ZM430.107 415.597V422.197H433.847V423.297H429.007V415.597H430.107Z" fill="#252829"/>
</g>
<rect x="154.648" y="266.797" width="113" height="114" rx="11.5" fill="#A2B5BE" stroke="#9BF7FF"/>
<rect x="270.148" y="266.297" width="114" height="115" rx="12" fill="#A2B5BE"/>
<rect x="386.148" y="266.297" width="114" height="115" rx="12" fill="#A2B5BE"/>
<path d="M171.355 350.429L170.332 348.251V353.531H169.232V345.831H170.332L171.652 348.702L172.972 345.831H174.072V353.531H172.972V348.251L171.949 350.429H171.355ZM175.937 353.531H174.837V351.001L176.707 345.831H177.807L179.677 351.001V353.531H178.577V351.749H175.937V353.531ZM176.135 350.649H178.379L177.268 347.569H177.246L176.135 350.649ZM180.443 345.831H185.283V346.931H183.413V352.431H185.283V353.531H180.443V352.431H182.313V346.931H180.443V345.831ZM189.789 345.831H190.889V353.531H189.294L187.149 347.679V353.531H186.049V345.831H187.644L189.789 351.683V345.831ZM174.072 360.471C174.072 361.571 173.192 362.451 172.092 362.451H170.332V365.531H169.232V357.831H172.092C173.192 357.831 174.072 358.711 174.072 359.811V360.471ZM170.332 361.351H172.092C172.587 361.351 172.972 360.966 172.972 360.471V359.811C172.972 359.316 172.587 358.931 172.092 358.931H170.332V361.351ZM179.677 365.531H178.467L177.07 362.451H175.937V365.531H174.837V357.831H177.697C178.797 357.831 179.677 358.711 179.677 359.811V360.471C179.677 361.384 179.072 362.143 178.236 362.374L179.677 365.531ZM175.937 361.351H177.697C178.192 361.351 178.577 360.966 178.577 360.471V359.811C178.577 359.316 178.192 358.931 177.697 358.931H175.937V361.351ZM183.303 364.42C183.787 364.42 184.183 364.024 184.183 363.54V359.811C184.183 359.316 183.798 358.931 183.303 358.931H182.423C181.928 358.931 181.543 359.327 181.543 359.811V363.54C181.543 364.024 181.939 364.42 182.423 364.42H183.303ZM180.443 363.54V359.811C180.443 358.711 181.334 357.831 182.423 357.831H183.303C184.403 357.831 185.283 358.711 185.283 359.811V363.54C185.283 364.629 184.403 365.531 183.303 365.531H182.423C181.334 365.531 180.443 364.629 180.443 363.54ZM188.909 357.831C189.998 357.831 190.889 358.711 190.889 359.811V363.54C190.889 364.629 189.998 365.531 188.909 365.531H186.049V357.831H188.909ZM187.149 364.42H188.909C189.393 364.42 189.789 364.024 189.789 363.54V359.811C189.789 359.327 189.404 358.931 188.909 358.931H187.149V364.42ZM196.494 363.54C196.494 364.629 195.603 365.531 194.514 365.531H193.634C192.534 365.531 191.654 364.629 191.654 363.54V357.831H192.754V363.54C192.754 364.024 193.15 364.42 193.634 364.42H194.514C194.998 364.42 195.394 364.024 195.394 363.54V357.831H196.494V363.54ZM201 359.811C201 359.316 200.615 358.931 200.12 358.931H199.24C198.745 358.931 198.36 359.327 198.36 359.811V363.54C198.36 364.024 198.756 364.42 199.24 364.42H200.12C200.604 364.42 201 364.024 201 363.54V362.935H202.1V363.54C202.1 364.629 201.22 365.531 200.12 365.531H199.24C198.151 365.531 197.26 364.629 197.26 363.54V359.811C197.26 358.711 198.151 357.831 199.24 357.831H200.12C201.22 357.831 202.1 358.711 202.1 359.811V360.416H201V359.811ZM202.866 357.831H207.706V358.931H205.836V365.531H204.736V358.931H202.866V357.831Z" fill="#252829"/>
<path d="M288.207 353.531H287.107V351.001L288.977 345.831H290.077L291.947 351.001V353.531H290.847V351.749H288.207V353.531ZM288.405 350.649H290.649L289.538 347.569H289.516L288.405 350.649ZM295.572 345.831C296.661 345.831 297.552 346.711 297.552 347.811V351.54C297.552 352.629 296.661 353.531 295.572 353.531H292.712V345.831H295.572ZM293.812 352.42H295.572C296.056 352.42 296.452 352.024 296.452 351.54V347.811C296.452 347.327 296.067 346.931 295.572 346.931H293.812V352.42ZM301.178 345.831C302.267 345.831 303.158 346.711 303.158 347.811V351.54C303.158 352.629 302.267 353.531 301.178 353.531H298.318V345.831H301.178ZM299.418 352.42H301.178C301.662 352.42 302.058 352.024 302.058 351.54V347.811C302.058 347.327 301.673 346.931 301.178 346.931H299.418V352.42ZM304.364 350.044H308.324V351.144H304.364V350.044ZM312.389 352.42C312.873 352.42 313.269 352.024 313.269 351.54V347.811C313.269 347.316 312.884 346.931 312.389 346.931H311.509C311.014 346.931 310.629 347.327 310.629 347.811V351.54C310.629 352.024 311.025 352.42 311.509 352.42H312.389ZM309.529 351.54V347.811C309.529 346.711 310.42 345.831 311.509 345.831H312.389C313.489 345.831 314.369 346.711 314.369 347.811V351.54C314.369 352.629 313.489 353.531 312.389 353.531H311.509C310.42 353.531 309.529 352.629 309.529 351.54ZM318.875 345.831H319.975V353.531H318.38L316.235 347.679V353.531H315.135V345.831H316.73L318.875 351.683V345.831ZM291.947 360.471C291.947 361.571 291.067 362.451 289.967 362.451H288.207V365.531H287.107V357.831H289.967C291.067 357.831 291.947 358.711 291.947 359.811V360.471ZM288.207 361.351H289.967C290.462 361.351 290.847 360.966 290.847 360.471V359.811C290.847 359.316 290.462 358.931 289.967 358.931H288.207V361.351ZM297.552 365.531H296.342L294.945 362.451H293.812V365.531H292.712V357.831H295.572C296.672 357.831 297.552 358.711 297.552 359.811V360.471C297.552 361.384 296.947 362.143 296.111 362.374L297.552 365.531ZM293.812 361.351H295.572C296.067 361.351 296.452 360.966 296.452 360.471V359.811C296.452 359.316 296.067 358.931 295.572 358.931H293.812V361.351ZM301.178 364.42C301.662 364.42 302.058 364.024 302.058 363.54V359.811C302.058 359.316 301.673 358.931 301.178 358.931H300.298C299.803 358.931 299.418 359.327 299.418 359.811V363.54C299.418 364.024 299.814 364.42 300.298 364.42H301.178ZM298.318 363.54V359.811C298.318 358.711 299.209 357.831 300.298 357.831H301.178C302.278 357.831 303.158 358.711 303.158 359.811V363.54C303.158 364.629 302.278 365.531 301.178 365.531H300.298C299.209 365.531 298.318 364.629 298.318 363.54ZM306.784 357.831C307.873 357.831 308.764 358.711 308.764 359.811V363.54C308.764 364.629 307.873 365.531 306.784 365.531H303.924V357.831H306.784ZM305.024 364.42H306.784C307.268 364.42 307.664 364.024 307.664 363.54V359.811C307.664 359.327 307.279 358.931 306.784 358.931H305.024V364.42ZM314.369 363.54C314.369 364.629 313.478 365.531 312.389 365.531H311.509C310.409 365.531 309.529 364.629 309.529 363.54V357.831H310.629V363.54C310.629 364.024 311.025 364.42 311.509 364.42H312.389C312.873 364.42 313.269 364.024 313.269 363.54V357.831H314.369V363.54ZM318.875 359.811C318.875 359.316 318.49 358.931 317.995 358.931H317.115C316.62 358.931 316.235 359.327 316.235 359.811V363.54C316.235 364.024 316.631 364.42 317.115 364.42H317.995C318.479 364.42 318.875 364.024 318.875 363.54V362.935H319.975V363.54C319.975 364.629 319.095 365.531 317.995 365.531H317.115C316.026 365.531 315.135 364.629 315.135 363.54V359.811C315.135 358.711 316.026 357.831 317.115 357.831H317.995C319.095 357.831 319.975 358.711 319.975 359.811V360.416H318.875V359.811ZM320.741 357.831H325.581V358.931H323.711V365.531H322.611V358.931H320.741V357.831Z" fill="#252829"/>
<path d="M407.947 345.831V346.931H404.207V349.274H407.507V350.374H404.207V353.531H403.107V345.831H407.947ZM408.712 345.831H413.552V346.931H411.682V352.431H413.552V353.531H408.712V352.431H410.582V346.931H408.712V345.831ZM418.058 345.831H419.158V353.531H417.563L415.418 347.679V353.531H414.318V345.831H415.913L418.058 351.683V345.831ZM421.024 353.531H419.924V351.001L421.794 345.831H422.894L424.764 351.001V353.531H423.664V351.749H421.024V353.531ZM421.222 350.649H423.466L422.355 347.569H422.333L421.222 350.649ZM429.269 345.831H430.369V353.531H428.774L426.629 347.679V353.531H425.529V345.831H427.124L429.269 351.683V345.831ZM434.875 347.811C434.875 347.316 434.49 346.931 433.995 346.931H433.115C432.62 346.931 432.235 347.327 432.235 347.811V351.54C432.235 352.024 432.631 352.42 433.115 352.42H433.995C434.479 352.42 434.875 352.024 434.875 351.54V350.935H435.975V351.54C435.975 352.629 435.095 353.531 433.995 353.531H433.115C432.026 353.531 431.135 352.629 431.135 351.54V347.811C431.135 346.711 432.026 345.831 433.115 345.831H433.995C435.095 345.831 435.975 346.711 435.975 347.811V348.416H434.875V347.811ZM436.741 345.831H441.581V346.931H439.711V352.431H441.581V353.531H436.741V352.431H438.611V346.931H436.741V345.831ZM443.446 353.531H442.346V351.001L444.216 345.831H445.316L447.186 351.001V353.531H446.086V351.749H443.446V353.531ZM443.644 350.649H445.888L444.777 347.569H444.755L443.644 350.649ZM449.052 345.831V352.431H452.792V353.531H447.952V345.831H449.052ZM407.947 360.471C407.947 361.571 407.067 362.451 405.967 362.451H404.207V365.531H403.107V357.831H405.967C407.067 357.831 407.947 358.711 407.947 359.811V360.471ZM404.207 361.351H405.967C406.462 361.351 406.847 360.966 406.847 360.471V359.811C406.847 359.316 406.462 358.931 405.967 358.931H404.207V361.351ZM413.552 365.531H412.342L410.945 362.451H409.812V365.531H408.712V357.831H411.572C412.672 357.831 413.552 358.711 413.552 359.811V360.471C413.552 361.384 412.947 362.143 412.111 362.374L413.552 365.531ZM409.812 361.351H411.572C412.067 361.351 412.452 360.966 412.452 360.471V359.811C412.452 359.316 412.067 358.931 411.572 358.931H409.812V361.351ZM417.178 364.42C417.662 364.42 418.058 364.024 418.058 363.54V359.811C418.058 359.316 417.673 358.931 417.178 358.931H416.298C415.803 358.931 415.418 359.327 415.418 359.811V363.54C415.418 364.024 415.814 364.42 416.298 364.42H417.178ZM414.318 363.54V359.811C414.318 358.711 415.209 357.831 416.298 357.831H417.178C418.278 357.831 419.158 358.711 419.158 359.811V363.54C419.158 364.629 418.278 365.531 417.178 365.531H416.298C415.209 365.531 414.318 364.629 414.318 363.54ZM422.784 357.831C423.873 357.831 424.764 358.711 424.764 359.811V363.54C424.764 364.629 423.873 365.531 422.784 365.531H419.924V357.831H422.784ZM421.024 364.42H422.784C423.268 364.42 423.664 364.024 423.664 363.54V359.811C423.664 359.327 423.279 358.931 422.784 358.931H421.024V364.42ZM430.369 363.54C430.369 364.629 429.478 365.531 428.389 365.531H427.509C426.409 365.531 425.529 364.629 425.529 363.54V357.831H426.629V363.54C426.629 364.024 427.025 364.42 427.509 364.42H428.389C428.873 364.42 429.269 364.024 429.269 363.54V357.831H430.369V363.54ZM434.875 359.811C434.875 359.316 434.49 358.931 433.995 358.931H433.115C432.62 358.931 432.235 359.327 432.235 359.811V363.54C432.235 364.024 432.631 364.42 433.115 364.42H433.995C434.479 364.42 434.875 364.024 434.875 363.54V362.935H435.975V363.54C435.975 364.629 435.095 365.531 433.995 365.531H433.115C432.026 365.531 431.135 364.629 431.135 363.54V359.811C431.135 358.711 432.026 357.831 433.115 357.831H433.995C435.095 357.831 435.975 358.711 435.975 359.811V360.416H434.875V359.811ZM436.741 357.831H441.581V358.931H439.711V365.531H438.611V358.931H436.741V357.831Z" fill="#252829"/>
<rect x="168.148" y="280.566" width="28" height="28" rx="5" fill="#D5E1E7"/>
<path d="M182.148 294.637V301.067" stroke="#3B4144" stroke-width="1.1" stroke-linecap="round" stroke-linejoin="round"/>
<path d="M176.189 291.375L182.146 294.635L188.102 291.375" stroke="#3B4144" stroke-width="1.1" stroke-linecap="round" stroke-linejoin="round"/>
<path d="M187.885 297.993L182.385 301.004C182.311 301.044 182.228 301.065 182.145 301.065C182.061 301.065 181.978 301.044 181.905 301.004L176.405 297.993C176.326 297.95 176.26 297.887 176.215 297.81C176.169 297.733 176.145 297.645 176.145 297.555V291.577C176.145 291.487 176.169 291.399 176.215 291.322C176.26 291.245 176.326 291.182 176.405 291.139L181.905 288.128C181.978 288.088 182.061 288.066 182.145 288.066C182.228 288.066 182.311 288.088 182.385 288.128L187.885 291.139C187.963 291.182 188.029 291.245 188.074 291.322C188.12 291.399 188.144 291.487 188.145 291.577V297.554C188.145 297.644 188.12 297.732 188.075 297.809C188.029 297.886 187.963 297.95 187.885 297.993Z" stroke="#3B4144" stroke-width="1.1" stroke-linecap="round" stroke-linejoin="round"/>
<path d="M179.246 289.586L185.149 292.817V296.067" stroke="#3B4144" stroke-width="1.1" stroke-linecap="round" stroke-linejoin="round"/>
<rect x="286.227" y="280.566" width="28" height="28" rx="5" fill="#B1C5CE"/>
<g clip-path="url(#clip6_6569_35637)">
<path d="M294.441 294.945L299.069 297.645C299.732 298.031 300.551 298.031 301.214 297.645L305.841 294.945" stroke="#252829" stroke-width="1.1" stroke-linecap="round" stroke-linejoin="round"/>
<path d="M294.441 292.095L299.069 294.794C299.732 295.181 300.551 295.181 301.214 294.794L305.841 292.095L301.214 289.395C300.551 289.008 299.732 289.008 299.069 289.395L294.441 292.095Z" stroke="#252829" stroke-width="1.1" stroke-linecap="round" stroke-linejoin="round"/>
<path d="M303.465 299.219H306.315" stroke="#252829" stroke-width="1.1" stroke-linecap="round" stroke-linejoin="round"/>
<path d="M304.891 297.793V300.643" stroke="#252829" stroke-width="1.1" stroke-linecap="round" stroke-linejoin="round"/>
<path d="M294.441 297.793L299.191 300.564C299.778 300.906 300.504 300.906 301.091 300.564V300.564" stroke="#252829" stroke-width="1.1" stroke-linecap="round" stroke-linejoin="round"/>
</g>
<rect x="402.227" y="280.566" width="28" height="28" rx="5" fill="#B1C5CE"/>
<g clip-path="url(#clip7_6569_35637)">
<path d="M419.102 294.641C419.516 294.641 419.852 294.305 419.852 293.891C419.852 293.476 419.516 293.141 419.102 293.141C418.687 293.141 418.352 293.476 418.352 293.891C418.352 294.305 418.687 294.641 419.102 294.641Z" fill="#252829"/>
<path d="M414.852 291.141H417.352" stroke="#252829" stroke-width="1.1" stroke-linecap="round" stroke-linejoin="round"/>
<path d="M421.352 289.141H416.852" stroke="#252829" stroke-width="1.1" stroke-linecap="round" stroke-linejoin="round"/>
<path d="M408.352 295.641C408.352 295.243 408.51 294.861 408.791 294.58C409.072 294.299 409.454 294.141 409.852 294.141" stroke="#252829" stroke-width="1.1" stroke-linecap="round" stroke-linejoin="round"/>
<path d="M421.623 292.641H421.852C422.117 292.641 422.371 292.746 422.559 292.934C422.746 293.121 422.852 293.375 422.852 293.641V295.641C422.852 295.906 422.746 296.16 422.559 296.348C422.371 296.535 422.117 296.641 421.852 296.641H421.352L420.22 299.809C420.186 299.906 420.122 299.99 420.037 300.049C419.953 300.109 419.852 300.141 419.749 300.141H418.954C418.851 300.141 418.75 300.109 418.666 300.049C418.581 299.99 418.518 299.906 418.483 299.809L418.245 299.141H413.958L413.72 299.809C413.686 299.906 413.622 299.99 413.537 300.049C413.453 300.109 413.352 300.141 413.249 300.141H412.454C412.351 300.141 412.25 300.109 412.166 300.049C412.081 299.99 412.018 299.906 411.983 299.809L411.164 297.516C410.319 296.595 409.85 295.39 409.852 294.141C409.852 292.815 410.378 291.543 411.316 290.605C412.254 289.667 413.525 289.141 414.852 289.141H416.852C417.827 289.14 418.782 289.426 419.597 289.961C420.413 290.497 421.054 291.259 421.442 292.154C421.51 292.313 421.571 292.476 421.623 292.641Z" stroke="#252829" stroke-width="1.1" stroke-linecap="round" stroke-linejoin="round"/>
</g>
<rect x="93.4453" y="72.0508" width="50.3203" height="30" rx="15" fill="#3B4144"/>
<path d="M107.713 82.3508V91.0508H106.441V82.3508H107.713ZM106.669 91.0508V89.8748H111.493V91.0508H106.669ZM114.537 91.2068C113.961 91.2068 113.449 91.0748 113.001 90.8108C112.561 90.5468 112.213 90.1828 111.957 89.7188C111.709 89.2548 111.585 88.7188 111.585 88.1108C111.585 87.4948 111.705 86.9548 111.945 86.4908C112.193 86.0268 112.533 85.6628 112.965 85.3988C113.405 85.1348 113.909 85.0028 114.477 85.0028C115.045 85.0028 115.537 85.1228 115.953 85.3628C116.377 85.6028 116.701 85.9428 116.925 86.3828C117.157 86.8228 117.273 87.3388 117.273 87.9308V88.3508L112.233 88.3628L112.257 87.5588H116.073C116.073 87.0948 115.929 86.7228 115.641 86.4428C115.353 86.1548 114.969 86.0108 114.489 86.0108C114.121 86.0108 113.805 86.0908 113.541 86.2508C113.285 86.4108 113.085 86.6468 112.941 86.9588C112.805 87.2628 112.737 87.6308 112.737 88.0628C112.737 88.7508 112.893 89.2788 113.205 89.6468C113.517 90.0148 113.965 90.1988 114.549 90.1988C114.981 90.1988 115.333 90.1148 115.605 89.9468C115.885 89.7708 116.069 89.5228 116.157 89.2028H117.285C117.149 89.8348 116.841 90.3268 116.361 90.6788C115.881 91.0308 115.273 91.2068 114.537 91.2068ZM119.239 91.0508H118.039V85.1708H119.131L119.251 86.0348C119.443 85.7068 119.711 85.4548 120.055 85.2788C120.399 85.0948 120.779 85.0028 121.195 85.0028C121.955 85.0028 122.519 85.2228 122.887 85.6628C123.255 86.0948 123.439 86.6868 123.439 87.4388V91.0508H122.239V87.7268C122.239 87.1588 122.111 86.7468 121.855 86.4908C121.607 86.2268 121.275 86.0948 120.859 86.0948C120.347 86.0948 119.947 86.2628 119.659 86.5988C119.379 86.9268 119.239 87.3668 119.239 87.9188V91.0508ZM126.213 91.2068C125.589 91.2068 125.097 91.0428 124.737 90.7148C124.385 90.3788 124.209 89.9428 124.209 89.4068C124.209 88.8628 124.401 88.4308 124.785 88.1108C125.169 87.7828 125.709 87.5908 126.405 87.5348L128.229 87.3908V87.2348C128.229 86.9228 128.169 86.6748 128.049 86.4908C127.937 86.2988 127.781 86.1628 127.581 86.0828C127.381 86.0028 127.149 85.9628 126.885 85.9628C126.421 85.9628 126.061 86.0588 125.805 86.2508C125.557 86.4348 125.433 86.7028 125.433 87.0548H124.389C124.389 86.6308 124.493 86.2668 124.701 85.9628C124.909 85.6588 125.205 85.4228 125.589 85.2548C125.981 85.0868 126.433 85.0028 126.945 85.0028C127.441 85.0028 127.873 85.0908 128.241 85.2668C128.609 85.4348 128.897 85.6988 129.105 86.0588C129.313 86.4108 129.417 86.8548 129.417 87.3908V91.0508H128.373L128.253 90.1148C128.109 90.4508 127.849 90.7188 127.473 90.9188C127.105 91.1108 126.685 91.2068 126.213 91.2068ZM126.585 90.2708C127.097 90.2708 127.501 90.1148 127.797 89.8028C128.093 89.4908 128.241 89.0748 128.241 88.5548V88.2428L126.813 88.3628C126.317 88.4028 125.961 88.5108 125.745 88.6868C125.537 88.8628 125.433 89.0868 125.433 89.3588C125.433 89.6628 125.533 89.8908 125.733 90.0428C125.941 90.1948 126.225 90.2708 126.585 90.2708Z" fill="#C994FF"/>
<path d="M142.539 65.5125L151.246 61.5471C151.99 61.2081 152.801 61.8597 152.634 62.6622L150.673 72.077C150.485 72.977 149.29 73.172 148.832 72.3774L146.974 69.1597C146.855 68.9535 146.666 68.7969 146.442 68.7179L142.617 67.3698C141.769 67.0708 141.719 65.8859 142.539 65.5125Z" fill="#C994FF"/>
<rect x="176.627" y="126.367" width="54.5234" height="31" rx="15" fill="#3B4144"/>
<path d="M193.259 146.511C192.427 146.511 191.699 146.327 191.075 145.959C190.451 145.583 189.967 145.059 189.623 144.387C189.279 143.707 189.107 142.919 189.107 142.023C189.107 141.119 189.283 140.331 189.635 139.659C189.987 138.987 190.479 138.463 191.111 138.087C191.751 137.711 192.487 137.523 193.319 137.523C193.983 137.523 194.583 137.647 195.119 137.895C195.655 138.135 196.099 138.479 196.451 138.927C196.803 139.375 197.031 139.903 197.135 140.511H195.779C195.619 139.951 195.319 139.515 194.879 139.203C194.439 138.891 193.907 138.735 193.283 138.735C192.707 138.735 192.203 138.871 191.771 139.143C191.347 139.415 191.019 139.795 190.787 140.283C190.555 140.771 190.439 141.347 190.439 142.011C190.439 142.667 190.555 143.243 190.787 143.739C191.027 144.235 191.359 144.619 191.783 144.891C192.215 145.155 192.715 145.287 193.283 145.287C193.907 145.287 194.447 145.135 194.903 144.831C195.359 144.519 195.667 144.099 195.827 143.571H197.159C197.039 144.155 196.795 144.667 196.427 145.107C196.067 145.547 195.615 145.891 195.071 146.139C194.527 146.387 193.923 146.511 193.259 146.511ZM199.515 146.523C198.891 146.523 198.399 146.359 198.039 146.031C197.687 145.695 197.511 145.259 197.511 144.723C197.511 144.179 197.703 143.747 198.087 143.427C198.471 143.099 199.011 142.907 199.707 142.851L201.531 142.707V142.551C201.531 142.239 201.471 141.991 201.351 141.807C201.239 141.615 201.083 141.479 200.883 141.399C200.683 141.319 200.451 141.279 200.187 141.279C199.723 141.279 199.363 141.375 199.107 141.567C198.859 141.751 198.735 142.019 198.735 142.371H197.691C197.691 141.947 197.795 141.583 198.003 141.279C198.211 140.975 198.507 140.739 198.891 140.571C199.283 140.403 199.735 140.319 200.247 140.319C200.743 140.319 201.175 140.407 201.543 140.583C201.911 140.751 202.199 141.015 202.407 141.375C202.615 141.727 202.719 142.171 202.719 142.707V146.367H201.675L201.555 145.431C201.411 145.767 201.151 146.035 200.775 146.235C200.407 146.427 199.987 146.523 199.515 146.523ZM199.887 145.587C200.399 145.587 200.803 145.431 201.099 145.119C201.395 144.807 201.543 144.391 201.543 143.871V143.559L200.115 143.679C199.619 143.719 199.263 143.827 199.047 144.003C198.839 144.179 198.735 144.403 198.735 144.675C198.735 144.979 198.835 145.207 199.035 145.359C199.243 145.511 199.527 145.587 199.887 145.587ZM205 146.367H203.8V137.511H205V146.367ZM208.723 146.523C208.147 146.523 207.635 146.391 207.187 146.127C206.747 145.863 206.399 145.499 206.143 145.035C205.895 144.571 205.771 144.035 205.771 143.427C205.771 142.811 205.891 142.271 206.131 141.807C206.379 141.343 206.719 140.979 207.151 140.715C207.591 140.451 208.095 140.319 208.663 140.319C209.231 140.319 209.723 140.439 210.139 140.679C210.563 140.919 210.887 141.259 211.111 141.699C211.343 142.139 211.459 142.655 211.459 143.247V143.667L206.419 143.679L206.443 142.875H210.259C210.259 142.411 210.115 142.039 209.827 141.759C209.539 141.471 209.155 141.327 208.675 141.327C208.307 141.327 207.991 141.407 207.727 141.567C207.471 141.727 207.271 141.963 207.127 142.275C206.991 142.579 206.923 142.947 206.923 143.379C206.923 144.067 207.079 144.595 207.391 144.963C207.703 145.331 208.151 145.515 208.735 145.515C209.167 145.515 209.519 145.431 209.791 145.263C210.071 145.087 210.255 144.839 210.343 144.519H211.471C211.335 145.151 211.027 145.643 210.547 145.995C210.067 146.347 209.459 146.523 208.723 146.523ZM213.318 146.367H212.226V137.511H213.426V141.459C213.626 141.083 213.91 140.799 214.278 140.607C214.654 140.407 215.078 140.307 215.55 140.307C216.118 140.307 216.602 140.443 217.002 140.715C217.402 140.987 217.71 141.359 217.926 141.831C218.142 142.303 218.25 142.843 218.25 143.451C218.25 144.051 218.138 144.583 217.914 145.047C217.69 145.503 217.37 145.863 216.954 146.127C216.538 146.391 216.046 146.523 215.478 146.523C215.022 146.523 214.61 146.423 214.242 146.223C213.874 146.015 213.598 145.719 213.414 145.335L213.318 146.367ZM213.438 143.403C213.438 143.795 213.51 144.143 213.654 144.447C213.806 144.751 214.018 144.991 214.29 145.167C214.562 145.335 214.882 145.419 215.25 145.419C215.626 145.419 215.946 145.335 216.21 145.167C216.474 144.991 216.678 144.751 216.822 144.447C216.966 144.143 217.038 143.795 217.038 143.403C217.038 143.019 216.966 142.679 216.822 142.383C216.678 142.079 216.474 141.839 216.21 141.663C215.946 141.487 215.626 141.399 215.25 141.399C214.882 141.399 214.562 141.487 214.29 141.663C214.018 141.831 213.806 142.067 213.654 142.371C213.51 142.667 213.438 143.011 213.438 143.403Z" fill="#B8FD83"/>
<path d="M229.728 120.868L238.435 116.903C239.18 116.564 239.991 117.215 239.823 118.018L237.862 127.432C237.675 128.332 236.48 128.527 236.021 127.733L234.163 124.515C234.044 124.309 233.856 124.152 233.632 124.073L229.807 122.725C228.958 122.426 228.908 121.241 229.728 120.868Z" fill="#B8FD83"/>
<path d="M388.632 85.5427L385.997 76.3452C385.772 75.5591 386.536 74.8532 387.305 75.1372L396.326 78.4684C397.189 78.7869 397.205 79.9974 396.351 80.3337L392.894 81.6955C392.673 81.7827 392.49 81.9459 392.379 82.1558L390.48 85.7396C390.059 86.5344 388.88 86.4088 388.632 85.5427Z" fill="#4FDFF3"/>
<rect x="394.547" y="85.2617" width="113.781" height="47" rx="15" fill="#4FDFF3"/>
<path d="M415.415 100.906C415.415 101.786 415.235 102.566 414.875 103.246C414.523 103.918 414.031 104.446 413.399 104.83C412.767 105.214 412.039 105.406 411.215 105.406C410.391 105.406 409.663 105.214 409.031 104.83C408.399 104.446 407.907 103.918 407.555 103.246C407.203 102.574 407.027 101.794 407.027 100.906C407.027 100.026 407.203 99.2497 407.555 98.5777C407.915 97.8977 408.411 97.3657 409.043 96.9817C409.675 96.5977 410.399 96.4057 411.215 96.4057C412.047 96.4057 412.775 96.5977 413.399 96.9817C414.031 97.3657 414.523 97.8937 414.875 98.5657C415.235 99.2377 415.415 100.018 415.415 100.906ZM414.083 100.906C414.083 100.242 413.963 99.6657 413.723 99.1777C413.491 98.6897 413.159 98.3097 412.727 98.0377C412.303 97.7657 411.803 97.6297 411.227 97.6297C410.651 97.6297 410.147 97.7657 409.715 98.0377C409.283 98.3097 408.947 98.6897 408.707 99.1777C408.475 99.6657 408.359 100.242 408.359 100.906C408.359 101.562 408.475 102.138 408.707 102.634C408.947 103.13 409.283 103.514 409.715 103.786C410.147 104.05 410.651 104.182 411.227 104.182C411.803 104.182 412.303 104.046 412.727 103.774C413.159 103.502 413.491 103.122 413.723 102.634C413.963 102.138 414.083 101.562 414.083 100.906ZM417.446 105.262H416.246V96.4057H417.446V102.07L419.978 99.3817H421.502L419.258 101.722L421.478 105.262H420.086L418.418 102.598L417.446 103.618V105.262ZM423.505 105.418C422.881 105.418 422.389 105.254 422.029 104.926C421.677 104.59 421.501 104.154 421.501 103.618C421.501 103.074 421.693 102.642 422.077 102.322C422.461 101.994 423.001 101.802 423.697 101.746L425.521 101.602V101.446C425.521 101.134 425.461 100.886 425.341 100.702C425.229 100.51 425.073 100.374 424.873 100.294C424.673 100.214 424.441 100.174 424.177 100.174C423.713 100.174 423.353 100.27 423.097 100.462C422.849 100.646 422.725 100.914 422.725 101.266H421.681C421.681 100.842 421.785 100.478 421.993 100.174C422.201 99.8697 422.497 99.6337 422.881 99.4657C423.273 99.2977 423.725 99.2137 424.237 99.2137C424.733 99.2137 425.165 99.3017 425.533 99.4777C425.901 99.6457 426.189 99.9097 426.397 100.27C426.605 100.622 426.709 101.066 426.709 101.602V105.262H425.665L425.545 104.326C425.401 104.662 425.141 104.93 424.765 105.13C424.397 105.322 423.977 105.418 423.505 105.418ZM423.877 104.482C424.389 104.482 424.793 104.326 425.089 104.014C425.385 103.702 425.533 103.286 425.533 102.766V102.454L424.105 102.574C423.609 102.614 423.253 102.722 423.037 102.898C422.829 103.074 422.725 103.298 422.725 103.57C422.725 103.874 422.825 104.102 423.025 104.254C423.233 104.406 423.517 104.482 423.877 104.482ZM428.202 99.3817L430.23 105.034L429.51 106.126L426.906 99.3817H428.202ZM427.074 107.926V106.918H427.854C428.038 106.918 428.206 106.898 428.358 106.858C428.51 106.826 428.646 106.75 428.766 106.63C428.894 106.518 429.002 106.338 429.09 106.09L431.562 99.3817H432.81L430.002 106.582C429.802 107.094 429.546 107.466 429.234 107.698C428.922 107.93 428.538 108.046 428.082 108.046C427.89 108.046 427.71 108.034 427.542 108.01C427.382 107.994 427.226 107.966 427.074 107.926ZM437.23 105.262H436.03V96.4057H437.23V105.262ZM440.953 105.418C440.377 105.418 439.865 105.286 439.417 105.022C438.977 104.758 438.629 104.394 438.373 103.93C438.125 103.466 438.001 102.93 438.001 102.322C438.001 101.706 438.121 101.166 438.361 100.702C438.609 100.238 438.949 99.8737 439.381 99.6097C439.821 99.3457 440.325 99.2137 440.893 99.2137C441.461 99.2137 441.953 99.3337 442.369 99.5737C442.793 99.8137 443.117 100.154 443.341 100.594C443.573 101.034 443.689 101.55 443.689 102.142V102.562L438.649 102.574L438.673 101.77H442.489C442.489 101.306 442.345 100.934 442.057 100.654C441.769 100.366 441.385 100.222 440.905 100.222C440.537 100.222 440.221 100.302 439.957 100.462C439.701 100.622 439.501 100.858 439.357 101.17C439.221 101.474 439.153 101.842 439.153 102.274C439.153 102.962 439.309 103.49 439.621 103.858C439.933 104.226 440.381 104.41 440.965 104.41C441.397 104.41 441.749 104.326 442.021 104.158C442.301 103.982 442.485 103.734 442.573 103.414H443.701C443.565 104.046 443.257 104.538 442.777 104.89C442.297 105.242 441.689 105.418 440.953 105.418ZM443.773 99.3817H447.289V100.39H443.773V99.3817ZM446.137 105.262H444.925V97.5337H446.137V105.262ZM447.316 103.534H448.468C448.476 103.822 448.584 104.05 448.792 104.218C449 104.386 449.284 104.47 449.644 104.47C450.028 104.47 450.324 104.394 450.532 104.242C450.74 104.09 450.844 103.89 450.844 103.642C450.844 103.458 450.788 103.306 450.676 103.186C450.572 103.058 450.368 102.958 450.064 102.886L449.032 102.646C448.512 102.518 448.12 102.322 447.856 102.058C447.6 101.794 447.472 101.442 447.472 101.002C447.472 100.626 447.568 100.306 447.76 100.042C447.96 99.7777 448.228 99.5737 448.564 99.4297C448.9 99.2857 449.288 99.2137 449.728 99.2137C450.16 99.2137 450.536 99.2897 450.856 99.4417C451.176 99.5937 451.428 99.8097 451.612 100.09C451.796 100.362 451.888 100.69 451.888 101.074H450.736C450.728 100.778 450.632 100.55 450.448 100.39C450.264 100.222 450.008 100.138 449.68 100.138C449.344 100.138 449.084 100.21 448.9 100.354C448.716 100.498 448.624 100.698 448.624 100.954C448.624 101.33 448.904 101.586 449.464 101.722L450.508 101.974C451.004 102.086 451.376 102.27 451.624 102.526C451.872 102.774 451.996 103.118 451.996 103.558C451.996 103.934 451.896 104.262 451.696 104.542C451.496 104.822 451.216 105.038 450.856 105.19C450.504 105.342 450.092 105.418 449.62 105.418C448.916 105.418 448.356 105.246 447.94 104.902C447.524 104.55 447.316 104.094 447.316 103.534ZM455.136 102.322C455.136 101.706 455.26 101.166 455.508 100.702C455.756 100.238 456.096 99.8737 456.528 99.6097C456.968 99.3457 457.476 99.2137 458.052 99.2137C458.804 99.2137 459.424 99.4137 459.912 99.8137C460.408 100.206 460.704 100.734 460.8 101.398H459.576C459.488 101.038 459.308 100.766 459.036 100.582C458.772 100.39 458.456 100.294 458.088 100.294C457.744 100.294 457.44 100.378 457.176 100.546C456.912 100.706 456.708 100.938 456.564 101.242C456.42 101.546 456.348 101.902 456.348 102.31C456.348 102.718 456.416 103.074 456.552 103.378C456.688 103.682 456.884 103.918 457.14 104.086C457.396 104.246 457.696 104.326 458.04 104.326C458.432 104.326 458.764 104.23 459.036 104.038C459.316 103.846 459.5 103.578 459.588 103.234H460.812C460.74 103.666 460.576 104.046 460.32 104.374C460.064 104.694 459.74 104.95 459.348 105.142C458.956 105.326 458.52 105.418 458.04 105.418C457.456 105.418 456.944 105.29 456.504 105.034C456.072 104.77 455.736 104.406 455.496 103.942C455.256 103.478 455.136 102.938 455.136 102.322ZM464.941 99.3337V100.45H464.425C463.897 100.45 463.477 100.602 463.165 100.906C462.853 101.21 462.697 101.646 462.697 102.214V105.262H461.497V99.3817H462.625L462.733 100.582H462.613C462.693 100.19 462.881 99.8737 463.177 99.6337C463.481 99.3857 463.865 99.2617 464.329 99.2617C464.433 99.2617 464.533 99.2697 464.629 99.2857C464.725 99.2937 464.829 99.3097 464.941 99.3337ZM467.862 105.418C467.286 105.418 466.774 105.286 466.326 105.022C465.886 104.758 465.538 104.394 465.282 103.93C465.034 103.466 464.91 102.93 464.91 102.322C464.91 101.706 465.03 101.166 465.27 100.702C465.518 100.238 465.858 99.8737 466.29 99.6097C466.73 99.3457 467.234 99.2137 467.802 99.2137C468.37 99.2137 468.862 99.3337 469.278 99.5737C469.702 99.8137 470.026 100.154 470.25 100.594C470.482 101.034 470.598 101.55 470.598 102.142V102.562L465.558 102.574L465.582 101.77H469.398C469.398 101.306 469.254 100.934 468.966 100.654C468.678 100.366 468.294 100.222 467.814 100.222C467.446 100.222 467.13 100.302 466.866 100.462C466.61 100.622 466.41 100.858 466.266 101.17C466.13 101.474 466.062 101.842 466.062 102.274C466.062 102.962 466.218 103.49 466.53 103.858C466.842 104.226 467.29 104.41 467.874 104.41C468.306 104.41 468.658 104.326 468.93 104.158C469.21 103.982 469.394 103.734 469.482 103.414H470.61C470.474 104.046 470.166 104.538 469.686 104.89C469.206 105.242 468.598 105.418 467.862 105.418ZM473.022 105.418C472.398 105.418 471.906 105.254 471.546 104.926C471.194 104.59 471.018 104.154 471.018 103.618C471.018 103.074 471.21 102.642 471.594 102.322C471.978 101.994 472.518 101.802 473.214 101.746L475.038 101.602V101.446C475.038 101.134 474.978 100.886 474.858 100.702C474.746 100.51 474.59 100.374 474.39 100.294C474.19 100.214 473.958 100.174 473.694 100.174C473.23 100.174 472.87 100.27 472.614 100.462C472.366 100.646 472.242 100.914 472.242 101.266H471.198C471.198 100.842 471.302 100.478 471.51 100.174C471.718 99.8697 472.014 99.6337 472.398 99.4657C472.79 99.2977 473.242 99.2137 473.754 99.2137C474.25 99.2137 474.682 99.3017 475.05 99.4777C475.418 99.6457 475.706 99.9097 475.914 100.27C476.122 100.622 476.226 101.066 476.226 101.602V105.262H475.182L475.062 104.326C474.918 104.662 474.658 104.93 474.282 105.13C473.914 105.322 473.494 105.418 473.022 105.418ZM473.394 104.482C473.906 104.482 474.31 104.326 474.606 104.014C474.902 103.702 475.05 103.286 475.05 102.766V102.454L473.622 102.574C473.126 102.614 472.77 102.722 472.554 102.898C472.346 103.074 472.242 103.298 472.242 103.57C472.242 103.874 472.342 104.102 472.542 104.254C472.75 104.406 473.034 104.482 473.394 104.482ZM476.565 99.3817H480.081V100.39H476.565V99.3817ZM478.929 105.262H477.717V97.5337H478.929V105.262ZM483.098 105.418C482.522 105.418 482.01 105.286 481.562 105.022C481.122 104.758 480.774 104.394 480.518 103.93C480.27 103.466 480.146 102.93 480.146 102.322C480.146 101.706 480.266 101.166 480.506 100.702C480.754 100.238 481.094 99.8737 481.526 99.6097C481.966 99.3457 482.47 99.2137 483.038 99.2137C483.606 99.2137 484.098 99.3337 484.514 99.5737C484.938 99.8137 485.262 100.154 485.486 100.594C485.718 101.034 485.834 101.55 485.834 102.142V102.562L480.794 102.574L480.818 101.77H484.634C484.634 101.306 484.49 100.934 484.202 100.654C483.914 100.366 483.53 100.222 483.05 100.222C482.682 100.222 482.366 100.302 482.102 100.462C481.846 100.622 481.646 100.858 481.502 101.17C481.366 101.474 481.298 101.842 481.298 102.274C481.298 102.962 481.454 103.49 481.766 103.858C482.078 104.226 482.526 104.41 483.11 104.41C483.542 104.41 483.894 104.326 484.166 104.158C484.446 103.982 484.63 103.734 484.718 103.414H485.846C485.71 104.046 485.402 104.538 484.922 104.89C484.442 105.242 483.834 105.418 483.098 105.418ZM406.967 118.31C406.967 117.702 407.099 117.166 407.363 116.702C407.635 116.238 408.003 115.874 408.467 115.61C408.939 115.346 409.471 115.214 410.063 115.214C410.655 115.214 411.183 115.346 411.647 115.61C412.111 115.874 412.475 116.238 412.739 116.702C413.003 117.166 413.135 117.702 413.135 118.31C413.135 118.918 413.003 119.454 412.739 119.918C412.475 120.382 412.111 120.746 411.647 121.01C411.183 121.274 410.655 121.406 410.063 121.406C409.471 121.406 408.939 121.274 408.467 121.01C408.003 120.746 407.635 120.382 407.363 119.918C407.099 119.454 406.967 118.918 406.967 118.31ZM408.191 118.31C408.191 118.702 408.271 119.05 408.431 119.354C408.591 119.658 408.811 119.898 409.091 120.074C409.371 120.242 409.695 120.326 410.063 120.326C410.431 120.326 410.751 120.242 411.023 120.074C411.303 119.898 411.523 119.658 411.683 119.354C411.843 119.05 411.923 118.702 411.923 118.31C411.923 117.91 411.843 117.562 411.683 117.266C411.523 116.962 411.303 116.726 411.023 116.558C410.751 116.39 410.431 116.306 410.063 116.306C409.695 116.306 409.371 116.39 409.091 116.558C408.811 116.726 408.591 116.962 408.431 117.266C408.271 117.562 408.191 117.91 408.191 118.31ZM417.794 115.382H418.994V121.262H417.902L417.782 120.398C417.614 120.702 417.35 120.95 416.99 121.142C416.63 121.326 416.242 121.418 415.826 121.418C415.138 121.418 414.606 121.202 414.23 120.77C413.862 120.338 413.678 119.762 413.678 119.042V115.37H414.89V118.634C414.89 119.242 415.01 119.678 415.25 119.942C415.498 120.206 415.834 120.338 416.258 120.338C416.762 120.338 417.142 120.182 417.398 119.87C417.662 119.558 417.794 119.094 417.794 118.478V115.382ZM423.569 115.334V116.45H423.053C422.525 116.45 422.105 116.602 421.793 116.906C421.481 117.21 421.325 117.646 421.325 118.214V121.262H420.125V115.382H421.253L421.361 116.582H421.241C421.321 116.19 421.509 115.874 421.805 115.634C422.109 115.386 422.493 115.262 422.957 115.262C423.061 115.262 423.161 115.27 423.257 115.286C423.353 115.294 423.457 115.31 423.569 115.334ZM426.299 115.382H432.143V116.39H426.299V115.382ZM429.731 112.454V113.498C429.659 113.498 429.579 113.498 429.491 113.498C429.411 113.498 429.323 113.498 429.227 113.498C428.891 113.498 428.663 113.586 428.543 113.762C428.431 113.938 428.375 114.182 428.375 114.494V121.262H427.163V114.494C427.163 113.998 427.243 113.598 427.403 113.294C427.571 112.982 427.795 112.758 428.075 112.622C428.355 112.478 428.671 112.406 429.023 112.406C429.135 112.406 429.251 112.41 429.371 112.418C429.499 112.426 429.619 112.438 429.731 112.454ZM430.931 121.262V115.382H432.143V121.262H430.931ZM431.531 113.99C431.323 113.99 431.147 113.918 431.003 113.774C430.859 113.63 430.787 113.454 430.787 113.246C430.787 113.022 430.859 112.838 431.003 112.694C431.147 112.55 431.323 112.478 431.531 112.478C431.747 112.478 431.927 112.55 432.071 112.694C432.215 112.838 432.287 113.022 432.287 113.246C432.287 113.454 432.215 113.63 432.071 113.774C431.927 113.918 431.747 113.99 431.531 113.99ZM436.696 115.334V116.45H436.18C435.652 116.45 435.232 116.602 434.92 116.906C434.608 117.21 434.452 117.646 434.452 118.214V121.262H433.252V115.382H434.38L434.488 116.582H434.368C434.448 116.19 434.636 115.874 434.932 115.634C435.236 115.386 435.62 115.262 436.084 115.262C436.188 115.262 436.288 115.27 436.384 115.286C436.48 115.294 436.584 115.31 436.696 115.334ZM436.78 119.534H437.932C437.94 119.822 438.048 120.05 438.256 120.218C438.464 120.386 438.748 120.47 439.108 120.47C439.492 120.47 439.788 120.394 439.996 120.242C440.204 120.09 440.308 119.89 440.308 119.642C440.308 119.458 440.252 119.306 440.14 119.186C440.036 119.058 439.832 118.958 439.528 118.886L438.496 118.646C437.976 118.518 437.584 118.322 437.32 118.058C437.064 117.794 436.936 117.442 436.936 117.002C436.936 116.626 437.032 116.306 437.224 116.042C437.424 115.778 437.692 115.574 438.028 115.43C438.364 115.286 438.752 115.214 439.192 115.214C439.624 115.214 440 115.29 440.32 115.442C440.64 115.594 440.892 115.81 441.076 116.09C441.26 116.362 441.352 116.69 441.352 117.074H440.2C440.192 116.778 440.096 116.55 439.912 116.39C439.728 116.222 439.472 116.138 439.144 116.138C438.808 116.138 438.548 116.21 438.364 116.354C438.18 116.498 438.088 116.698 438.088 116.954C438.088 117.33 438.368 117.586 438.928 117.722L439.972 117.974C440.468 118.086 440.84 118.27 441.088 118.526C441.336 118.774 441.46 119.118 441.46 119.558C441.46 119.934 441.36 120.262 441.16 120.542C440.96 120.822 440.68 121.038 440.32 121.19C439.968 121.342 439.556 121.418 439.084 121.418C438.38 121.418 437.82 121.246 437.404 120.902C436.988 120.55 436.78 120.094 436.78 119.534ZM441.57 115.382H445.086V116.39H441.57V115.382ZM443.934 121.262H442.722V113.534H443.934V121.262ZM448.382 123.926V115.382H449.474L449.57 116.39C449.762 116.006 450.042 115.714 450.41 115.514C450.786 115.314 451.206 115.214 451.67 115.214C452.23 115.214 452.714 115.342 453.122 115.598C453.53 115.854 453.846 116.214 454.07 116.678C454.294 117.134 454.406 117.666 454.406 118.274C454.406 118.874 454.298 119.41 454.082 119.882C453.874 120.354 453.566 120.73 453.158 121.01C452.75 121.282 452.254 121.418 451.67 121.418C451.206 121.418 450.79 121.326 450.422 121.142C450.054 120.95 449.774 120.682 449.582 120.338V123.926H448.382ZM449.594 118.322C449.594 118.706 449.666 119.05 449.81 119.354C449.962 119.658 450.174 119.898 450.446 120.074C450.718 120.242 451.038 120.326 451.406 120.326C451.782 120.326 452.102 120.242 452.366 120.074C452.63 119.898 452.834 119.658 452.978 119.354C453.122 119.05 453.194 118.706 453.194 118.322C453.194 117.93 453.122 117.586 452.978 117.29C452.834 116.986 452.63 116.75 452.366 116.582C452.102 116.406 451.782 116.318 451.406 116.318C451.038 116.318 450.718 116.402 450.446 116.57C450.174 116.738 449.962 116.974 449.81 117.278C449.666 117.582 449.594 117.93 449.594 118.322ZM458.612 115.334V116.45H458.096C457.568 116.45 457.148 116.602 456.836 116.906C456.524 117.21 456.368 117.646 456.368 118.214V121.262H455.168V115.382H456.296L456.404 116.582H456.284C456.364 116.19 456.552 115.874 456.848 115.634C457.152 115.386 457.536 115.262 458 115.262C458.104 115.262 458.204 115.27 458.3 115.286C458.396 115.294 458.5 115.31 458.612 115.334ZM458.581 118.31C458.581 117.702 458.713 117.166 458.977 116.702C459.249 116.238 459.617 115.874 460.081 115.61C460.553 115.346 461.085 115.214 461.677 115.214C462.269 115.214 462.797 115.346 463.261 115.61C463.725 115.874 464.089 116.238 464.353 116.702C464.617 117.166 464.749 117.702 464.749 118.31C464.749 118.918 464.617 119.454 464.353 119.918C464.089 120.382 463.725 120.746 463.261 121.01C462.797 121.274 462.269 121.406 461.677 121.406C461.085 121.406 460.553 121.274 460.081 121.01C459.617 120.746 459.249 120.382 458.977 119.918C458.713 119.454 458.581 118.918 458.581 118.31ZM459.805 118.31C459.805 118.702 459.885 119.05 460.045 119.354C460.205 119.658 460.425 119.898 460.705 120.074C460.985 120.242 461.309 120.326 461.677 120.326C462.045 120.326 462.365 120.242 462.637 120.074C462.917 119.898 463.137 119.658 463.297 119.354C463.457 119.05 463.537 118.702 463.537 118.31C463.537 117.91 463.457 117.562 463.297 117.266C463.137 116.962 462.917 116.726 462.637 116.558C462.365 116.39 462.045 116.306 461.677 116.306C461.309 116.306 460.985 116.39 460.705 116.558C460.425 116.726 460.205 116.962 460.045 117.266C459.885 117.562 459.805 117.91 459.805 118.31ZM467.881 121.418C467.313 121.418 466.821 121.286 466.405 121.022C465.997 120.758 465.681 120.398 465.457 119.942C465.233 119.478 465.121 118.942 465.121 118.334C465.121 117.734 465.233 117.198 465.457 116.726C465.681 116.254 466.005 115.886 466.429 115.622C466.853 115.35 467.357 115.214 467.941 115.214C468.381 115.214 468.777 115.306 469.129 115.49C469.481 115.666 469.753 115.93 469.945 116.282V112.406H471.157V121.262H470.053L469.969 120.23C469.777 120.614 469.493 120.91 469.117 121.118C468.749 121.318 468.337 121.418 467.881 121.418ZM468.133 120.314C468.509 120.314 468.829 120.23 469.093 120.062C469.365 119.886 469.573 119.646 469.717 119.342C469.861 119.038 469.933 118.69 469.933 118.298C469.933 117.906 469.861 117.562 469.717 117.266C469.573 116.962 469.365 116.726 469.093 116.558C468.829 116.382 468.509 116.294 468.133 116.294C467.757 116.294 467.433 116.382 467.161 116.558C466.897 116.734 466.693 116.974 466.549 117.278C466.413 117.574 466.345 117.914 466.345 118.298C466.345 118.69 466.413 119.038 466.549 119.342C466.693 119.646 466.897 119.886 467.161 120.062C467.433 120.23 467.757 120.314 468.133 120.314ZM476.335 115.382H477.535V121.262H476.443L476.323 120.398C476.155 120.702 475.891 120.95 475.531 121.142C475.171 121.326 474.783 121.418 474.367 121.418C473.679 121.418 473.147 121.202 472.771 120.77C472.403 120.338 472.219 119.762 472.219 119.042V115.37H473.431V118.634C473.431 119.242 473.551 119.678 473.791 119.942C474.039 120.206 474.375 120.338 474.799 120.338C475.303 120.338 475.683 120.182 475.939 119.87C476.203 119.558 476.335 119.094 476.335 118.478V115.382ZM478.165 118.322C478.165 117.706 478.289 117.166 478.537 116.702C478.785 116.238 479.125 115.874 479.557 115.61C479.997 115.346 480.505 115.214 481.081 115.214C481.833 115.214 482.453 115.414 482.941 115.814C483.437 116.206 483.733 116.734 483.829 117.398H482.605C482.517 117.038 482.337 116.766 482.065 116.582C481.801 116.39 481.485 116.294 481.117 116.294C480.773 116.294 480.469 116.378 480.205 116.546C479.941 116.706 479.737 116.938 479.593 117.242C479.449 117.546 479.377 117.902 479.377 118.31C479.377 118.718 479.445 119.074 479.581 119.378C479.717 119.682 479.913 119.918 480.169 120.086C480.425 120.246 480.725 120.326 481.069 120.326C481.461 120.326 481.793 120.23 482.065 120.038C482.345 119.846 482.529 119.578 482.617 119.234H483.841C483.769 119.666 483.605 120.046 483.349 120.374C483.093 120.694 482.769 120.95 482.377 121.142C481.985 121.326 481.549 121.418 481.069 121.418C480.485 121.418 479.973 121.29 479.533 121.034C479.101 120.77 478.765 120.406 478.525 119.942C478.285 119.478 478.165 118.938 478.165 118.322ZM483.902 115.382H487.418V116.39H483.902V115.382ZM486.266 121.262H485.054V113.534H486.266V121.262ZM489.389 118.658H488.441C488.401 118.346 488.361 117.974 488.321 117.542C488.289 117.102 488.265 116.63 488.249 116.126C488.233 115.614 488.225 115.098 488.225 114.578V112.562H489.629V114.578C489.629 115.106 489.617 115.626 489.593 116.138C489.577 116.65 489.549 117.122 489.509 117.554C489.477 117.986 489.437 118.354 489.389 118.658ZM488.921 121.418C488.681 121.418 488.473 121.334 488.297 121.166C488.121 120.99 488.033 120.786 488.033 120.554C488.033 120.306 488.121 120.098 488.297 119.93C488.473 119.762 488.681 119.678 488.921 119.678C489.161 119.678 489.365 119.762 489.533 119.93C489.709 120.098 489.797 120.306 489.797 120.554C489.797 120.786 489.709 120.99 489.533 121.166C489.365 121.334 489.161 121.418 488.921 121.418Z" fill="black"/>
</g>
<defs>
<clipPath id="clip0_6569_35637">
<rect width="600" height="450" fill="white" transform="translate(0.326172)"/>
</clipPath>
<clipPath id="clip1_6569_35637">
<rect width="18.121" height="18.121" fill="white" transform="translate(77.5898 224.117)"/>
</clipPath>
<clipPath id="clip2_6569_35637">
<rect width="18.5328" height="18.5328" fill="white" transform="translate(77.3848 267.055)"/>
</clipPath>
<clipPath id="clip3_6569_35637">
<rect width="18.5328" height="18.5328" fill="white" transform="translate(77.3848 350.438)"/>
</clipPath>
<clipPath id="clip4_6569_35637">
<rect width="18.5328" height="18.5328" fill="white" transform="translate(77.3848 393.785)"/>
</clipPath>
<clipPath id="clip5_6569_35637">
<rect width="18.5328" height="18.5328" fill="white" transform="translate(77.3848 437.137)"/>
</clipPath>
<clipPath id="clip6_6569_35637">
<rect width="15.2" height="15.2" fill="white" transform="translate(292.539 287.344)"/>
</clipPath>
<clipPath id="clip7_6569_35637">
<rect width="16" height="16" fill="white" transform="translate(407.852 286.641)"/>
</clipPath>
</defs>
</svg>
