<svg width="32" height="33" viewBox="0 0 32 33" fill="none" xmlns="http://www.w3.org/2000/svg">
<path fill-rule="evenodd" clip-rule="evenodd" d="M6.88351 11.929C7.97704 14.3593 10.0306 17.2691 12.8069 20.0453C15.5831 22.8215 18.4929 24.8751 20.9232 25.9687C22.1417 26.517 23.1897 26.8012 24.0105 26.8458C24.832 26.8904 25.3085 26.6939 25.5754 26.427C25.8424 26.16 26.0389 25.6835 25.9943 24.862C25.9497 24.0412 25.6655 22.9933 25.1171 21.7747C24.0236 19.3444 21.97 16.4346 19.1938 13.6584C16.4176 10.8822 13.5078 8.82856 11.0775 7.73504C9.85891 7.18673 8.81095 6.90253 7.99014 6.85791C7.1687 6.81326 6.69218 7.00978 6.42522 7.27674C6.15826 7.5437 5.96173 8.02022 6.00638 8.84167C6.051 9.66247 6.3352 10.7104 6.88351 11.929ZM4.00933 8.95022C3.94668 7.79773 4.20085 6.67268 5.011 5.86253C5.82116 5.05238 6.94621 4.79821 8.0987 4.86086C9.25183 4.92354 10.5502 5.30463 11.8982 5.91117C14.601 7.12734 17.7055 9.34168 20.608 12.2442C23.5105 15.1467 25.7248 18.2511 26.941 20.954C27.5476 22.302 27.9286 23.6004 27.9913 24.7535C28.054 25.906 27.7998 27.031 26.9897 27.8412C26.1795 28.6513 25.0544 28.9055 23.902 28.8428C22.7488 28.7802 21.4505 28.3991 20.1025 27.7925C17.3996 26.5764 14.2951 24.362 11.3926 21.4595C8.49015 18.557 6.27582 15.4526 5.05964 12.7497C4.4531 11.4017 4.07201 10.1034 4.00933 8.95022Z" fill="#252829"/>
<path fill-rule="evenodd" clip-rule="evenodd" d="M6.00638 24.8619C5.96173 25.6834 6.15826 26.1599 6.42522 26.4269C6.69218 26.6938 7.1687 26.8904 7.99014 26.8457C8.81095 26.8011 9.85891 26.5169 11.0775 25.9686C13.5078 24.875 16.4176 22.8214 19.1938 20.0452C21.97 17.269 24.0236 14.3592 25.1171 11.9289C25.6655 10.7103 25.9497 9.66238 25.9943 8.84157C26.0389 8.02013 25.8424 7.54361 25.5754 7.27665C25.3085 7.00969 24.832 6.81316 24.0105 6.85782C23.1897 6.90243 22.1417 7.18664 20.9232 7.73495C18.4929 8.82847 15.5831 10.8821 12.8069 13.6583C10.0306 16.4345 7.97704 19.3443 6.88351 21.7746C6.3352 22.9932 6.051 24.0411 6.00638 24.8619ZM5.05964 20.9539C6.27582 18.2511 8.49015 15.1466 11.3926 12.2441C14.2951 9.34158 17.3996 7.12725 20.1025 5.91107C21.4505 5.30453 22.7488 4.92345 23.902 4.86076C25.0544 4.79812 26.1795 5.05228 26.9897 5.86244C27.7998 6.67259 28.054 7.79764 27.9913 8.95013C27.9286 10.1033 27.5476 11.4016 26.941 12.7496C25.7248 15.4525 23.5105 18.557 20.608 21.4594C17.7055 24.3619 14.601 26.5763 11.8982 27.7924C10.5502 28.399 9.25183 28.7801 8.0987 28.8428C6.94621 28.9054 5.82116 28.6512 5.011 27.8411C4.20085 27.0309 3.94668 25.9059 4.00933 24.7534C4.07201 23.6003 4.4531 22.3019 5.05964 20.9539Z" fill="#252829"/>
<path d="M16 18.3518C16.8284 18.3518 17.5 17.6802 17.5 16.8518C17.5 16.0234 16.8284 15.3518 16 15.3518C15.1716 15.3518 14.5 16.0234 14.5 16.8518C14.5 17.6802 15.1716 18.3518 16 18.3518Z" fill="#252829"/>
</svg>
