<svg width="32" height="33" viewBox="0 0 32 33" fill="none" xmlns="http://www.w3.org/2000/svg">
<g clip-path="url(#clip0_5895_8495)">
<path d="M24 15.8518C25.1645 15.8509 26.3131 16.1216 27.3547 16.6424C28.3963 17.1632 29.302 17.9197 30 18.8518" stroke="#252829" stroke-width="2" stroke-linecap="round" stroke-linejoin="round"/>
<path d="M2 18.8518C2.698 17.9197 3.60375 17.1632 4.6453 16.6424C5.68686 16.1216 6.83551 15.8509 8 15.8518" stroke="#252829" stroke-width="2" stroke-linecap="round" stroke-linejoin="round"/>
<path d="M16 23.8518C18.7614 23.8518 21 21.6132 21 18.8518C21 16.0904 18.7614 13.8518 16 13.8518C13.2386 13.8518 11 16.0904 11 18.8518C11 21.6132 13.2386 23.8518 16 23.8518Z" stroke="#252829" stroke-width="2" stroke-linecap="round" stroke-linejoin="round"/>
<path d="M9 27.8518C9.71786 26.6336 10.7412 25.6239 11.9689 24.9223C13.1965 24.2208 14.586 23.8518 16 23.8518C17.414 23.8518 18.8035 24.2208 20.0311 24.9223C21.2588 25.6239 22.2821 26.6336 23 27.8518" stroke="#252829" stroke-width="2" stroke-linecap="round" stroke-linejoin="round"/>
<path d="M20.125 10.8518C20.312 10.1275 20.6984 9.47017 21.2402 8.95444C21.7821 8.4387 22.4577 8.08524 23.1903 7.9342C23.923 7.78315 24.6833 7.84058 25.3849 8.09995C26.0866 8.35933 26.7014 8.81025 27.1596 9.40152C27.6179 9.99279 27.9011 10.7007 27.9772 11.4449C28.0533 12.189 27.9192 12.9396 27.5902 13.6114C27.2611 14.2832 26.7502 14.8492 26.1156 15.2453C25.481 15.6413 24.748 15.8514 24 15.8518" stroke="#252829" stroke-width="2" stroke-linecap="round" stroke-linejoin="round"/>
<path d="M7.99994 15.8518C7.25189 15.8514 6.51894 15.6413 5.88432 15.2453C5.2497 14.8492 4.73884 14.2832 4.40977 13.6114C4.08071 12.9396 3.94661 12.189 4.02271 11.4449C4.09881 10.7007 4.38206 9.99279 4.84029 9.40152C5.29853 8.81025 5.91338 8.35933 6.61502 8.09995C7.31667 7.84058 8.07698 7.78315 8.80962 7.9342C9.54226 8.08524 10.2179 8.4387 10.7597 8.95444C11.3016 9.47017 11.6879 10.1275 11.8749 10.8518" stroke="#252829" stroke-width="2" stroke-linecap="round" stroke-linejoin="round"/>
</g>
<defs>
<clipPath id="clip0_5895_8495">
<rect width="32" height="32" fill="white" transform="translate(0 0.851807)"/>
</clipPath>
</defs>
</svg>
