<svg width="32" height="33" viewBox="0 0 32 33" fill="none" xmlns="http://www.w3.org/2000/svg">
<g clip-path="url(#clip0_5895_8522)">
<path fill-rule="evenodd" clip-rule="evenodd" d="M16 11.8518C13.7909 11.8518 12 13.6427 12 15.8518C12 18.0609 13.7909 19.8518 16 19.8518C18.2091 19.8518 20 18.0609 20 15.8518C20 13.6427 18.2091 11.8518 16 11.8518ZM10 15.8518C10 12.5381 12.6863 9.85181 16 9.85181C19.3137 9.85181 22 12.5381 22 15.8518C22 19.1655 19.3137 21.8518 16 21.8518C12.6863 21.8518 10 19.1655 10 15.8518Z" fill="#252829"/>
<path fill-rule="evenodd" clip-rule="evenodd" d="M15.9998 21.8473C14.5225 21.8473 13.074 22.2564 11.8149 23.0292C10.5558 23.802 9.53528 24.9084 8.86649 26.2257C8.61648 26.7182 8.01458 26.9147 7.52213 26.6647C7.02968 26.4147 6.83314 25.8128 7.08316 25.3204C7.91914 23.6737 9.19477 22.2907 10.7686 21.3247C12.3425 20.3587 14.1531 19.8473 15.9998 19.8473C17.8465 19.8473 19.6572 20.3587 21.231 21.3247C22.8049 22.2907 24.0805 23.6737 24.9165 25.3204C25.1665 25.8128 24.97 26.4147 24.4775 26.6647C23.9851 26.9147 23.3832 26.7182 23.1332 26.2257C22.4644 24.9084 21.4439 23.802 20.1848 23.0292C18.9257 22.2564 17.4772 21.8473 15.9998 21.8473Z" fill="#252829"/>
<path fill-rule="evenodd" clip-rule="evenodd" d="M24.2929 16.1447C24.6834 15.7542 25.3166 15.7542 25.7071 16.1447L28 18.4376L30.2929 16.1447C30.6834 15.7542 31.3166 15.7542 31.7071 16.1447C32.0976 16.5352 32.0976 17.1684 31.7071 17.5589L28.7071 20.5589C28.3166 20.9494 27.6834 20.9494 27.2929 20.5589L24.2929 17.5589C23.9024 17.1684 23.9024 16.5352 24.2929 16.1447Z" fill="#252829"/>
<path fill-rule="evenodd" clip-rule="evenodd" d="M3.29289 13.1447C3.68342 12.7542 4.31658 12.7542 4.70711 13.1447L7.70711 16.1447C8.09763 16.5352 8.09763 17.1684 7.70711 17.5589C7.31658 17.9494 6.68342 17.9494 6.29289 17.5589L4 15.266L1.70711 17.5589C1.31658 17.9494 0.683417 17.9494 0.292893 17.5589C-0.0976311 17.1684 -0.0976311 16.5352 0.292893 16.1447L3.29289 13.1447Z" fill="#252829"/>
<path fill-rule="evenodd" clip-rule="evenodd" d="M4 12.8518C4.55229 12.8518 5 13.2995 5 13.8518V16.8518C4.99913 19.1807 5.73746 21.4502 7.10863 23.3327C8.47981 25.2151 10.4131 26.6138 12.63 27.3273C14.8469 28.0408 17.2331 28.0323 19.4449 27.3029C21.6566 26.5736 23.5798 25.1611 24.9375 23.2688C25.2595 22.8201 25.8842 22.7173 26.333 23.0393C26.7817 23.3613 26.8845 23.986 26.5625 24.4348C24.958 26.6711 22.6851 28.3404 20.0712 29.2023C17.4573 30.0643 14.6373 30.0744 12.0173 29.2312C9.39727 28.3879 7.1125 26.7349 5.49202 24.5102C3.87161 22.2855 2.99905 19.604 3 16.8518V13.8518C3 13.2995 3.44772 12.8518 4 12.8518Z" fill="#252829"/>
<path fill-rule="evenodd" clip-rule="evenodd" d="M11.9289 4.50123C14.5428 3.63927 17.3628 3.62918 19.9828 4.4724C22.6028 5.31562 24.8876 6.96864 26.5081 9.19338C28.1285 11.418 29.001 14.0995 29.0001 16.8518C29.0001 16.8519 29.0001 16.8516 29.0001 16.8518V19.8518C29.0001 20.404 28.5524 20.8518 28.0001 20.8518C27.4478 20.8518 27.0001 20.404 27.0001 19.8518V16.8518C27.0009 14.5228 26.2626 12.2534 24.8914 10.3709C23.5203 8.48843 21.587 7.08972 19.3701 6.37623C17.1531 5.66274 14.767 5.67128 12.5552 6.40062C10.3434 7.12997 8.42024 8.54248 7.06258 10.4347C6.74062 10.8834 6.11585 10.9862 5.66711 10.6643C5.21838 10.3423 5.11562 9.71753 5.43758 9.2688C7.04209 7.03251 9.31497 5.36318 11.9289 4.50123Z" fill="#252829"/>
</g>
<defs>
<clipPath id="clip0_5895_8522">
<rect width="32" height="32" fill="white" transform="translate(0 0.851807)"/>
</clipPath>
</defs>
</svg>
