<svg xmlns="http://www.w3.org/2000/svg" width="64" height="64" fill="none" viewBox="0 0 64 64"><rect width="64" height="63.486" fill="#077AC7" fill-opacity=".5" rx="31.743"/><path fill="#FFDE17" d="m9.467 46.885.834-2.73-2.207-1.71 2.8-.066.912-2.488.947 2.488 2.77.064-2.189 1.713.787 2.724-2.311-1.634-2.343 1.638ZM9.467 23.601l.834-2.73-2.207-1.71 2.8-.065.912-2.489.947 2.49 2.77.063-2.189 1.712.787 2.725-2.311-1.634L9.467 23.6v.001ZM6.373 35.242l.834-2.73L5 30.802l2.8-.065.913-2.489.946 2.489 2.769.064-2.189 1.712.787 2.725-2.31-1.634-2.343 1.637ZM52.944 35.242l.834-2.73-2.208-1.71 2.8-.065.913-2.489.946 2.489L59 30.8l-2.188 1.712.786 2.725-2.31-1.634-2.343 1.637ZM49.819 46.885l.834-2.73-2.208-1.71 2.8-.066.913-2.488.946 2.488 2.77.064-2.188 1.713.786 2.724-2.31-1.634-2.343 1.638ZM49.819 23.601l.834-2.73-2.208-1.71 2.8-.065.913-2.489.946 2.49 2.77.063-2.188 1.712.786 2.725-2.31-1.634-2.343 1.637v.001ZM29.64 11.955l.833-2.73-2.207-1.71 2.8-.065.912-2.49.947 2.49 2.77.064-2.19 1.712.787 2.725-2.31-1.634-2.343 1.637ZM18.022 55.408l.834-2.73-2.208-1.71 2.801-.065.912-2.489.946 2.489 2.77.064-2.188 1.712.786 2.725-2.31-1.634-2.343 1.637ZM41.295 55.408l.834-2.73-2.207-1.71 2.8-.065.913-2.489.946 2.489 2.769.064-2.189 1.712.787 2.725-2.311-1.634-2.343 1.637h.001ZM18.022 15.076l.834-2.73-2.208-1.71 2.801-.065.912-2.489.946 2.489 2.77.064-2.188 1.712.786 2.725-2.31-1.634-2.343 1.637ZM41.295 15.076l.834-2.73-2.207-1.71 2.8-.065.913-2.489.946 2.489 2.769.064-2.189 1.712.787 2.725-2.311-1.634-2.343 1.637h.001ZM29.64 58.527l.833-2.73-2.207-1.71 2.8-.065.912-2.489.947 2.489 2.77.064-2.19 1.712.787 2.725-2.31-1.634-2.343 1.637v.001Z"/><path fill="#fff" d="M38.672 25.925h-.487v-2.568a6.1 6.1 0 0 0-6.093-6.093h-.106a6.1 6.1 0 0 0-6.094 6.093v2.568h-.594a.797.797 0 0 0-.798.798v10.032c0 .44.357.798.798.798H38.67c.44 0 .798-.357.798-.798V26.723a.797.797 0 0 0-.798-.798h.001Zm-2.119 0h-9.029v-2.568c0-2.46 2.001-4.46 4.46-4.46h.107c2.46 0 4.461 2 4.461 4.46v2.568h.001ZM23.907 43.526v-1.062h2.372v2.5c-.239.265-.577.493-1.016.684a3.279 3.279 0 0 1-1.32.287c-.54 0-1.014-.125-1.425-.375-.411-.25-.736-.623-.977-1.121-.24-.498-.361-1.084-.361-1.757 0-.673.121-1.28.365-1.771.243-.49.559-.857.947-1.1.389-.242.854-.364 1.395-.364.65 0 1.171.157 1.563.469.392.312.643.77.755 1.376l-1.088.235c-.082-.322-.232-.57-.45-.74a1.223 1.223 0 0 0-.78-.257c-.468 0-.848.172-1.139.516-.29.343-.435.868-.435 1.572 0 .756.157 1.331.472 1.725.269.34.633.509 1.093.509.214 0 .437-.047.669-.143.231-.096.437-.225.619-.39v-.793h-1.262.003ZM27.29 39.557h2.007c.508 0 .89.053 1.148.16.258.107.496.288.714.541.218.254.389.584.512.989.124.405.185.909.185 1.51 0 .543-.064 1.014-.195 1.415-.13.4-.294.718-.493.953-.2.234-.441.41-.723.528-.283.119-.646.178-1.09.178H27.29v-6.274Zm1.097 1.06v4.152h.825c.354 0 .61-.032.77-.094a.916.916 0 0 0 .39-.285c.1-.126.185-.327.252-.6.066-.274.1-.634.1-1.082 0-.448-.035-.83-.103-1.099-.068-.267-.174-.478-.317-.632a1.02 1.02 0 0 0-.524-.304c-.154-.037-.452-.055-.894-.055h-.5ZM32.797 45.83v-6.273h1.769c.66 0 1.09.03 1.293.09.324.097.59.304.8.62.21.317.316.725.316 1.225 0 .453-.091.834-.273 1.14-.181.307-.408.522-.68.646-.273.124-.741.187-1.406.187h-.721v2.366h-1.098Zm1.098-5.213v1.785h.609c.409 0 .687-.028.834-.082a.732.732 0 0 0 .361-.294.92.92 0 0 0 .14-.52.922.922 0 0 0-.144-.529.71.71 0 0 0-.36-.287c-.142-.049-.444-.073-.904-.073h-.537ZM37.884 45.83v-6.273h2.318c.593 0 1.017.056 1.27.169.255.113.463.308.626.586.163.278.245.611.245.999 0 .49-.125.885-.375 1.185-.25.3-.604.488-1.064.565.237.16.432.334.586.525.154.19.364.53.63 1.02l.663 1.223h-1.314l-.797-1.364c-.286-.494-.481-.803-.584-.927a.856.856 0 0 0-.327-.257c-.115-.047-.3-.07-.554-.07h-.226v2.62h-1.098.001Zm1.099-3.62h.817c.499 0 .816-.02.952-.063a.602.602 0 0 0 .331-.25c.084-.126.127-.292.127-.5 0-.21-.043-.361-.127-.482a.647.647 0 0 0-.344-.25c-.103-.032-.401-.048-.894-.048h-.862v1.593Z"/><path fill="#077AC7" stroke="#077AC7" stroke-width=".25" d="M34.653 29.836a.43.43 0 0 1 .54.055l.054.067a.429.429 0 0 1 0 .472l-.055.067-3.932 3.933a.428.428 0 0 1-.303.125h-.052l-.007-.007a.424.424 0 0 1-.176-.065l-.068-.054-1.865-1.866a.429.429 0 0 1 .606-.605l1.562 1.562 3.63-3.63.066-.054Z"/><path fill="#077AC7" stroke="#077AC7" stroke-width=".25" d="M31.982 26.738c2.73 0 4.951 2.22 4.952 4.951 0 2.731-2.221 4.953-4.952 4.953a4.957 4.957 0 0 1-4.95-4.953c0-2.73 2.22-4.95 4.95-4.95Zm0 .857a4.1 4.1 0 0 0-4.094 4.095 4.1 4.1 0 0 0 4.094 4.095 4.1 4.1 0 0 0 4.095-4.095 4.1 4.1 0 0 0-4.095-4.095Z"/></svg>